<?xml version="1.0" encoding="UTF-8" standalone="no"?>
<!-- Created with Inkscape (http://www.inkscape.org/) -->

<svg
   width="250mm"
   height="160mm"
   viewBox="0 0 250 160"
   version="1.1"
   id="svg1"
   xml:space="preserve"
   inkscape:version="1.4.2 (f4327f4, 2025-05-13)"
   sodipodi:docname="austin.svg"
   xmlns:inkscape="http://www.inkscape.org/namespaces/inkscape"
   xmlns:sodipodi="http://sodipodi.sourceforge.net/DTD/sodipodi-0.dtd"
   xmlns="http://www.w3.org/2000/svg"
   xmlns:svg="http://www.w3.org/2000/svg"><sodipodi:namedview
     id="namedview1"
     pagecolor="#505050"
     bordercolor="#eeeeee"
     borderopacity="1"
     inkscape:showpageshadow="0"
     inkscape:pageopacity="0"
     inkscape:pagecheckerboard="0"
     inkscape:deskcolor="#505050"
     inkscape:document-units="mm"
     inkscape:zoom="4.0668163"
     inkscape:cx="177.6574"
     inkscape:cy="323.96349"
     inkscape:window-width="1920"
     inkscape:window-height="1009"
     inkscape:window-x="-8"
     inkscape:window-y="-8"
     inkscape:window-maximized="1"
     inkscape:current-layer="svg1"
     showguides="false" /><defs
     id="defs1" /><path
     style="display:inline;fill:none;stroke:#00ff00;stroke-width:1.6;stroke-linejoin:round;stroke-dasharray:none;stroke-opacity:1"
     d="m 36.148451,81.397043 47.517526,44.898897 c 0,0 3.822221,3.35054 5.676405,3.87102 0.504209,0.14638 2.309598,0.73191 2.065626,-1.65901 -0.06506,-0.84577 0.03253,-0.58553 -0.68312,-3.7409 -0.71565,-3.15536 -3.025248,-12.37749 -3.025248,-12.37749 0,0 -1.431299,-8.13238 4.293899,-11.22269 5.47895,-2.957391 13.597351,-5.985435 18.021361,-9.140801 2.11443,-1.463828 2.3096,-1.366239 4.19631,-5.334844 0.71566,-1.593947 2.0819,-5.62761 6.76615,-5.855319 1.88671,-0.227705 5.13967,-1.39877 5.98544,-5.269785 0.84576,-3.871016 2.34212,-8.099854 5.46496,-9.823921 3.12283,-1.724065 5.43243,-2.179479 5.43243,-2.179479 0,0 2.8626,-0.585531 5.26979,0.813238 1.85418,1.203593 4.8469,2.927661 4.8469,2.927661"
     id="vs1"
     inkscape:label="vs1"
     sodipodi:nodetypes="ccccscscccssccc"
     sodipodi:insensitive="true" /><path
     style="fill:none;stroke:none;stroke-width:5.6;stroke-linejoin:round;stroke-dasharray:none;stroke-opacity:1"
     d="m 36.148277,81.39728 47.517526,44.89889 c 0,0 3.822221,3.35054 5.676405,3.87102 0.504209,0.14638 2.309598,0.73191 2.065626,-1.65901 -0.06506,-0.84577 0.03253,-0.58553 -0.68312,-3.7409 -0.71565,-3.15536 -3.025248,-12.37748 -3.025248,-12.37748 0,0 -1.431299,-8.13238 4.293899,-11.22269 5.47895,-2.95739 13.597355,-5.985438 18.021365,-9.140804 2.11443,-1.463828 2.3096,-1.366239 4.19631,-5.334844 0.71566,-1.593947 2.0819,-5.62761 6.76614,-5.855319 1.88671,-0.227705 5.13967,-1.39877 5.98544,-5.269785 0.84576,-3.871016 2.34212,-8.099854 5.46496,-9.823921 3.12283,-1.724065 5.43243,-2.179479 5.43243,-2.179479 0,0 2.8626,-0.585531 5.26979,0.813238 1.85418,1.203593 4.8469,2.927661 4.8469,2.927661"
     id="s1"
     inkscape:label="s1"
     sodipodi:nodetypes="ccccscscccssccc"
     sodipodi:insensitive="true" /><path
     style="fill:none;stroke:#00ff00;stroke-width:1.6;stroke-linejoin:round;stroke-dasharray:none;stroke-opacity:1"
     d="m 147.9537,67.291936 3.73206,2.242682 c 0,0 1.98966,1.449118 4.30134,-0.138012 1.54113,-0.793564 3.77231,-2.300184 4.24385,-2.932736 0.64405,-0.655553 3.91031,-4.19784 4.48536,-4.542867 0.57505,-0.345027 4.98399,-3.758153 8.30367,1.909154 0.70795,1.101299 1.11478,3.688868 5.08341,3.151256 2.18518,-0.276024 15.36524,-1.84015 15.36524,-1.84015 0,0 2.49243,-0.293924 5.29043,-3.335269 2.80623,-2.760223 23.07086,-23.599907 23.07086,-23.599907 0,0 1.52963,-1.759643 1.81715,-2.691217 0.17251,-0.60955 0.75906,-2.886734 -3.6918,-1.782644 -2.28868,0.540544 -23.28167,4.945399 -23.28167,4.945399 0,0 -8.15934,1.586053 -18.96472,2.992715 -3.09031,0.422886 -16.6226,2.277068 -27.7477,2.992718 -2.83007,0.162647 -12.62146,1.106006 -24.91763,1.106006 -4.61919,0.09759 -23.19356,0.618061 -23.19356,0.618061 0,0 -1.854183,0.243973 -0.92709,2.11442 1.30118,2.033096 4.75745,7.758294 4.89569,8.034796"
     id="vs2"
     inkscape:label="vs2"
     sodipodi:nodetypes="ccccscccccccccccccc"
     sodipodi:insensitive="true" /><path
     style="fill:none;stroke:none;stroke-width:5.6;stroke-linejoin:round;stroke-dasharray:none;stroke-opacity:1"
     d="m 147.95328,67.291141 3.73206,2.242682 c 0,0 1.98966,1.449118 4.30134,-0.138012 1.54113,-0.793564 3.77231,-2.300184 4.24385,-2.932736 0.64405,-0.655553 3.91031,-4.19784 4.48536,-4.542867 0.57505,-0.345027 4.98399,-3.758153 8.30367,1.909154 0.70795,1.101299 1.11478,3.688868 5.08341,3.151256 2.18518,-0.276024 15.36524,-1.84015 15.36524,-1.84015 0,0 2.49243,-0.293924 5.29043,-3.335269 2.80623,-2.760223 23.07086,-23.599907 23.07086,-23.599907 0,0 1.52963,-1.759643 1.81715,-2.691217 0.17251,-0.60955 0.75906,-2.886734 -3.6918,-1.782644 -2.28868,0.540544 -23.28167,4.945399 -23.28167,4.945399 0,0 -8.15934,1.586053 -18.96472,2.992715 -3.09031,0.422886 -16.6226,2.277068 -27.7477,2.992718 -2.83007,0.162647 -12.62146,1.106006 -24.91763,1.106006 -4.61919,0.09759 -23.19356,0.618061 -23.19356,0.618061 0,0 -1.854188,0.243973 -0.92709,2.11442 1.30118,2.033096 4.75745,7.758294 4.89569,8.034796"
     id="s2"
     inkscape:label="s2"
     sodipodi:nodetypes="ccccscccccccccccccc"
     sodipodi:insensitive="true" /><path
     style="fill:none;stroke:#00ff00;stroke-width:1.6;stroke-linejoin:round;stroke-dasharray:none;stroke-opacity:1"
     d="m 105.7913,56.486815 c 0,0 4.91664,8.378426 4.75563,9.114486 0.092,0.391031 0.94308,3.703299 -4.09433,2.645212 -3.7493,-0.667052 -4.30135,-0.736058 -4.30135,-0.736058 0,0 -1.79414,-0.345029 -2.13917,-2.645214 -0.230017,-1.748142 -0.690054,-3.910316 -2.553205,-6.072491 -1.380111,-1.679136 -2.208178,-3.795305 -5.129416,-4.393354 -2.921235,-0.598048 -4.945398,-0.299024 -4.071329,2.116169 0.874073,2.415197 7.935643,16.124304 7.659619,17.182389 0.184015,0.782063 0.828069,2.392193 -0.667052,5.658458 -1.495123,3.266263 -1.955159,5.08341 -5.45144,6.118495 -3.496284,1.035082 -5.819471,3.243262 -10.534854,1.886151 -4.71538,-1.357109 -7.268585,-2.484199 -9.407758,-5.911477 -2.139174,-3.427278 -4.554368,-8.556691 -9.867799,-16.377324 -0.414033,-0.621049 -0.989079,-2.300185 -4.876392,-1.173094 -3.887314,1.12709 -20.356645,6.647537 -24.611989,8.257667 -0.690057,0.299024 -3.381274,1.10409 0.299024,4.209341 3.450278,3.151253 5.405438,5.08341 5.405438,5.08341"
     id="vs3"
     inkscape:label="vs3"
     sodipodi:nodetypes="ccccccsscsssscsccc"
     sodipodi:insensitive="true" /><path
     style="fill:none;stroke:none;stroke-width:5.6;stroke-linejoin:round;stroke-dasharray:none;stroke-opacity:1"
     d="m 105.79199,56.487036 c 0,0 4.91664,8.378426 4.75563,9.114486 0.092,0.391031 0.94308,3.703299 -4.09433,2.645212 -3.7493,-0.667052 -4.30135,-0.736058 -4.30135,-0.736058 0,0 -1.79414,-0.345029 -2.13917,-2.645214 -0.23002,-1.748142 -0.690057,-3.910316 -2.553208,-6.072491 -1.380111,-1.679136 -2.208178,-3.795305 -5.129416,-4.393354 -2.921235,-0.598048 -4.945398,-0.299024 -4.071329,2.116169 0.874073,2.415197 7.935643,16.124304 7.659619,17.182389 0.184015,0.782063 0.828069,2.392193 -0.667052,5.658458 -1.495123,3.266263 -1.955159,5.08341 -5.45144,6.118495 -3.496284,1.03508 -5.819471,3.24326 -10.534854,1.88615 -4.71538,-1.35711 -7.268585,-2.484198 -9.407758,-5.911476 -2.139174,-3.427278 -4.554368,-8.556691 -9.867799,-16.377324 -0.414033,-0.621049 -0.989079,-2.300185 -4.876392,-1.173094 -3.887314,1.12709 -20.356645,6.647537 -24.611989,8.257667 -0.690057,0.299024 -3.381274,1.10409 0.299024,4.209341 3.450278,3.151253 5.405438,5.08341 5.405438,5.08341"
     id="s3"
     inkscape:label="s3"
     sodipodi:nodetypes="ccccccsscsssscsccc"
     sodipodi:insensitive="true" /></svg>
