<?xml version="1.0" encoding="UTF-8" standalone="no"?>
<!-- Created with Inkscape (http://www.inkscape.org/) -->

<svg
   width="250mm"
   height="160mm"
   viewBox="0 0 250 160"
   version="1.1"
   id="svg1"
   xml:space="preserve"
   inkscape:version="1.4.2 (f4327f4, 2025-05-13)"
   sodipodi:docname="baku.svg"
   xmlns:inkscape="http://www.inkscape.org/namespaces/inkscape"
   xmlns:sodipodi="http://sodipodi.sourceforge.net/DTD/sodipodi-0.dtd"
   xmlns="http://www.w3.org/2000/svg"
   xmlns:svg="http://www.w3.org/2000/svg"><sodipodi:namedview
     id="namedview1"
     pagecolor="#505050"
     bordercolor="#eeeeee"
     borderopacity="1"
     inkscape:showpageshadow="0"
     inkscape:pageopacity="0"
     inkscape:pagecheckerboard="0"
     inkscape:deskcolor="#505050"
     inkscape:document-units="mm"
     inkscape:zoom="2.0334082"
     inkscape:cx="174.33784"
     inkscape:cy="214.17244"
     inkscape:window-width="1920"
     inkscape:window-height="1009"
     inkscape:window-x="-8"
     inkscape:window-y="-8"
     inkscape:window-maximized="1"
     inkscape:current-layer="svg1" /><defs
     id="defs1" /><path
     style="display:inline;fill:none;stroke:#00ff00;stroke-width:1.6;stroke-linejoin:round;stroke-dasharray:none;stroke-opacity:1"
     d="m 124.17955,77.387774 7.6786,2.946215 c 0,0 1.64136,0.746403 2.62221,1.276604 0.85107,0.471538 11.80498,6.576989 11.80498,6.576989 0,0 0.9436,0.446366 1.62648,-0.284634 0.7642,-0.921749 4.97702,-9.994701 9.30344,-15.459664 0.42289,-0.487942 1.10601,-0.870164 1.92738,-0.504206 0.97589,0.496076 41.06553,21.356457 64.06739,37.181732 0.3945,0.41125 1.39672,0.85155 0.88557,2.00117 -0.71306,1.43761 -11.87125,22.86324 -13.59695,24.13585 -0.52803,0.45377 -1.22217,1.30339 -2.80567,0.42288 -1.58582,-0.98402 -27.49642,-15.74902 -27.49642,-15.74902"
     id="vs1"
     sodipodi:nodetypes="cccccccccccc"
     inkscape:label="vs1" /><path
     style="display:inline;fill:none;stroke:none;stroke-width:5.6;stroke-linejoin:round;stroke-dasharray:none;stroke-opacity:1"
     d="m 124.1835,77.388203 7.6786,2.946215 c 0,0 1.64136,0.746403 2.62221,1.276604 0.85107,0.471538 11.80498,6.576989 11.80498,6.576989 0,0 0.9436,0.446366 1.62648,-0.284634 0.7642,-0.921749 4.97702,-9.994701 9.30344,-15.459664 0.42289,-0.487942 1.10601,-0.870164 1.92738,-0.504206 0.97589,0.496076 41.06553,21.356457 64.06739,37.181733 0.3945,0.41125 1.39672,0.85155 0.88557,2.00117 -0.71306,1.43761 -11.87125,22.86324 -13.59695,24.13585 -0.52803,0.45377 -1.22217,1.30339 -2.80567,0.42288 -1.58582,-0.98402 -27.49642,-15.74902 -27.49642,-15.74902"
     id="s1"
     sodipodi:nodetypes="cccccccccccc"
     inkscape:label="s1"
     sodipodi:insensitive="true" /><path
     style="display:inline;fill:none;stroke:#00ff00;stroke-width:1.6;stroke-linejoin:round;stroke-dasharray:none;stroke-opacity:1"
     d="m 124.21003,77.401252 -2.21968,-0.828066 c 0,0 -2.76022,-0.966079 -3.42727,1.73664 -0.26452,0.73606 -0.73606,1.794145 -0.73606,1.794145 0,0 -0.55205,1.253601 -2.31169,0.287523 -1.94366,-0.644052 -28.206046,-7.91568 -28.206046,-7.91568 0,0 -1.333101,-0.349881 -2.0989,-0.330486 -0.540543,-0.01151 -1.437616,0.0345 -1.483622,-0.908574 -0.046,-0.943075 0.07425,-1.584338 0.724559,-2.380691 0.494541,-0.816568 8.225337,-12.352253 8.485574,-12.612489 -0.09759,0.09759 0.609689,-0.646279 -0.193403,-1.194377 -0.494541,-0.639767 -0.51179,-1.213348 -0.506042,-1.426115 -0.01359,-0.682145 -0.172512,-1.16735 -0.172513,-1.167344 0,0 -0.09201,-0.747562 -1.081088,-1.690637 -0.724559,-0.989079 -1.334108,-1.863151 -1.334108,-1.863151 0,0 -0.50604,-0.724559 0.310525,-1.828647 0.793565,-1.161594 1.920656,-3.10525 1.920656,-3.10525 0,0 0.586547,-0.943078 -0.736061,-1.828649 -1.322604,-0.885571 -13.106495,-9.25204 -21.759354,-12.179697 -2.146948,-0.910828 -6.245672,-2.634893 -6.245672,-2.634893 0,0 -2.569832,-0.975887 -5.855316,0.585531 -3.350543,1.268651 -12.71905,4.586666 -12.71905,4.586666 0,0 -1.756595,0.390353 -3.350543,2.309595 -1.919243,1.691537 -7.026381,6.310731 -7.026381,6.310731 0,0 -2.765009,2.309598 -6.050494,4.131252 -0.618062,0.390355 -1.561418,0.553003 -0.780709,1.789125 0.13012,0.260237 0.634328,1.821654 0.585534,3.025249 0.260236,1.252386 3.952338,23.762827 3.952338,23.762827"
     id="vs2"
     sodipodi:nodetypes="cccccccscccccccccscccccccccc"
     inkscape:label="vs2" /><path
     style="display:inline;fill:none;stroke:none;stroke-width:5.6;stroke-linejoin:round;stroke-dasharray:none;stroke-opacity:1"
     d="m 124.20331,77.401429 -2.21968,-0.828066 c 0,0 -2.76022,-0.966079 -3.42727,1.73664 -0.26452,0.73606 -0.73606,1.794146 -0.73606,1.794146 0,0 -0.55205,1.2536 -2.31169,0.28752 -1.94366,-0.64405 -28.206053,-7.915678 -28.206053,-7.915678 0,0 -1.3331,-0.349881 -2.0989,-0.330486 -0.54054,-0.01151 -1.43761,0.0345 -1.48362,-0.908574 -0.046,-0.943075 0.0742,-1.584338 0.72456,-2.380691 0.49454,-0.816568 8.22534,-12.352253 8.48558,-12.612489 -0.0976,0.09759 0.60968,-0.646279 -0.19341,-1.194377 -0.49454,-0.639767 -0.51179,-1.213348 -0.50604,-1.426115 -0.0136,-0.682145 -0.17251,-1.16735 -0.17251,-1.167344 0,0 -0.092,-0.747562 -1.08109,-1.690637 -0.72456,-0.989079 -1.33411,-1.863151 -1.33411,-1.863151 0,0 -0.50604,-0.724559 0.31053,-1.828647 0.79356,-1.161594 1.92065,-3.10525 1.92065,-3.10525 0,0 0.58655,-0.943078 -0.73606,-1.828649 -1.3226,-0.885571 -13.10649,-9.25204 -21.75935,-12.179697 -2.14695,-0.910828 -6.24567,-2.634893 -6.24567,-2.634893 0,0 -2.56984,-0.975887 -5.855321,0.585531 -3.350543,1.268651 -12.71905,4.586666 -12.71905,4.586666 0,0 -1.756595,0.390353 -3.350543,2.309595 -1.919243,1.691537 -7.026381,6.310731 -7.026381,6.310731 0,0 -2.765009,2.309598 -6.050494,4.131252 -0.618062,0.390355 -1.561418,0.553003 -0.780709,1.789125 0.13012,0.260237 0.634328,1.821654 0.585534,3.025249 0.260236,1.252386 3.952338,23.762827 3.952338,23.762827"
     id="s2"
     sodipodi:nodetypes="cccccccscccccccccscccccccccc"
     inkscape:label="s2"
     sodipodi:insensitive="true" /><path
     style="display:inline;fill:none;stroke:#00ff00;stroke-width:1.6;stroke-linejoin:round;stroke-dasharray:none;stroke-opacity:1"
     d="m 31.890451,73.805171 0.346324,1.956128 c 0,0 0.463544,2.016831 2.504773,1.284917 2.203876,-0.463547 14.551435,-2.566199 14.551435,-2.566199 0,0 1.587127,-0.529042 3.289266,0.299024 2.392193,0.322024 17.435406,3.174257 17.435406,3.174257 0,0 2.162175,0.39103 4.577371,-0.966079 2.760223,-1.012081 8.188661,-2.783226 8.188661,-2.783226 0,0 1.403114,-0.552043 3.243262,0.207018 1.97816,0.483039 23.921931,6.417519 23.921931,6.417519 0,0 10.15018,2.837447 17.04644,7.781935 7.80709,4.554136 42.67063,24.527275 53.27526,31.358475"
     id="vs3"
     inkscape:label="vs3"
     sodipodi:nodetypes="cccccccccccc" /><path
     style="display:inline;fill:none;stroke:none;stroke-width:5.6;stroke-linejoin:round;stroke-dasharray:none;stroke-opacity:1"
     d="m 31.890215,73.808575 0.346324,1.956128 c 0,0 0.463544,2.016831 2.504773,1.284917 2.203876,-0.463547 14.551435,-2.566199 14.551435,-2.566199 0,0 1.587127,-0.529042 3.289266,0.299024 2.392193,0.322024 17.435406,3.174257 17.435406,3.174257 0,0 2.162175,0.39103 4.577371,-0.966079 2.760223,-1.012081 8.188661,-2.783226 8.188661,-2.783226 0,0 1.403114,-0.552043 3.243262,0.207018 1.97816,0.483039 23.921927,6.417519 23.921927,6.417519 0,0 10.15018,2.837447 17.04644,7.781935 7.80709,4.554136 42.67063,24.527271 53.27526,31.358471"
     id="s3"
     inkscape:label="s3"
     sodipodi:nodetypes="cccccccccccc"
     sodipodi:insensitive="true" /></svg>
