<?xml version="1.0" encoding="UTF-8" standalone="no"?>
<!-- Created with Inkscape (http://www.inkscape.org/) -->

<svg
   width="250mm"
   height="160mm"
   viewBox="0 0 250 160"
   version="1.1"
   id="svg1"
   xml:space="preserve"
   inkscape:version="1.4.2 (f4327f4, 2025-05-13)"
   sodipodi:docname="catalunya.svg"
   xmlns:inkscape="http://www.inkscape.org/namespaces/inkscape"
   xmlns:sodipodi="http://sodipodi.sourceforge.net/DTD/sodipodi-0.dtd"
   xmlns="http://www.w3.org/2000/svg"
   xmlns:svg="http://www.w3.org/2000/svg"><sodipodi:namedview
     id="namedview1"
     pagecolor="#505050"
     bordercolor="#eeeeee"
     borderopacity="1"
     inkscape:showpageshadow="0"
     inkscape:pageopacity="0"
     inkscape:pagecheckerboard="0"
     inkscape:deskcolor="#505050"
     inkscape:document-units="mm"
     inkscape:zoom="5.7513468"
     inkscape:cx="691.57715"
     inkscape:cy="409.90399"
     inkscape:window-width="1920"
     inkscape:window-height="1009"
     inkscape:window-x="-8"
     inkscape:window-y="-8"
     inkscape:window-maximized="1"
     inkscape:current-layer="svg1"
     showguides="false" /><defs
     id="defs1" /><path
     style="display:inline;fill:none;stroke:#00ff00;stroke-width:1.6;stroke-linejoin:round;stroke-dasharray:none;stroke-opacity:1"
     d="m 174.56978,109.74654 -122.608583,-0.0277 c 0,0 -6.785546,0.23001 -6.371513,-8.05066 0.414033,-8.280664 -2.71422,-9.798787 -7.590615,-11.960962 -4.876393,-2.162175 -20.425649,-5.106413 -20.655668,-19.68959 -0.230018,-14.58318 15.503254,-23.323886 30.270446,-23.27788 14.767192,0.046 27.017051,0.07023 27.017051,0.07023"
     id="vs1"
     inkscape:label="vs1"
     sodipodi:insensitive="true" /><path
     style="fill:none;stroke:none;stroke-width:5.6;stroke-linejoin:round;stroke-dasharray:none;stroke-opacity:1"
     d="m 174.56901,109.74788 -122.608584,-0.0277 c 0,0 -6.785546,0.23001 -6.371513,-8.05066 0.414033,-8.280663 -2.71422,-9.798786 -7.590615,-11.960961 -4.876393,-2.162175 -20.425649,-5.106413 -20.655668,-19.68959 -0.230018,-14.58318 15.503254,-23.323886 30.270446,-23.27788 14.767192,0.046 27.017051,0.07023 27.017051,0.07023"
     id="s1"
     inkscape:label="s1"
     sodipodi:insensitive="true" /><path
     style="fill:none;stroke:#00ff00;stroke-width:1.6;stroke-linejoin:round;stroke-dasharray:none;stroke-opacity:1"
     d="m 74.606528,46.808781 8.476186,-0.046 c 0,0 6.348513,0.02299 8.050649,6.509525 1.702138,6.486525 -4.32435,16.147306 -16.745352,16.193309 -12.421005,0.046 -27.60223,0.138012 -27.60223,0.138012 0,0 -3.450281,0.36803 -4.554368,3.358272 -1.104091,2.990241 -0.046,6.118495 4.048326,8.142658 3.496283,2.34619 15.549258,10.442842 15.549258,10.442842 0,0 8.556691,5.106413 16.745352,5.520446 6.486525,0.046 15.181225,0.09201 15.181225,0.09201 0,0 6.854556,-0.04601 6.578536,-7.498606 -0.27603,-7.452604 0.59805,-8.464685 4.41635,-13.893123 3.6803,-5.42844 14.03114,-20.379647 14.03114,-20.379647 0,0 7.82063,-10.764869 20.79368,-2.070166 10.39684,6.164498 54.97444,32.708643 54.97444,32.708643"
     id="vs2"
     inkscape:label="vs2"
     sodipodi:nodetypes="ccsscsccccscccc"
     sodipodi:insensitive="true" /><path
     style="fill:none;stroke:none;stroke-width:5.6;stroke-linejoin:round;stroke-dasharray:none;stroke-opacity:1"
     d="m 74.605948,46.807218 8.47619,-0.046 c 0,0 6.34851,0.02299 8.05065,6.509525 1.70213,6.486525 -4.32435,16.147306 -16.74536,16.193309 -12.421001,0.046 -27.602226,0.138012 -27.602226,0.138012 0,0 -3.450281,0.36803 -4.554368,3.358272 -1.104091,2.990241 -0.046,6.118495 4.048326,8.142658 3.496283,2.34619 15.549258,10.442842 15.549258,10.442842 0,0 8.556691,5.106413 16.74535,5.520446 6.48653,0.046 15.18123,0.09201 15.18123,0.09201 0,0 6.854552,-0.04601 6.578532,-7.498606 -0.27603,-7.452604 0.59805,-8.464685 4.41635,-13.893123 3.6803,-5.42844 14.03114,-20.379647 14.03114,-20.379647 0,0 7.82063,-10.764869 20.79368,-2.070166 10.39684,6.164498 54.97444,32.708643 54.97444,32.708643"
     id="s2"
     inkscape:label="s2"
     sodipodi:nodetypes="ccsscsccccscccc"
     sodipodi:insensitive="true" /><path
     style="fill:none;stroke:#00ff00;stroke-width:1.6;stroke-linejoin:round;stroke-dasharray:none;stroke-opacity:1"
     d="m 194.54292,86.021986 c 0,0 8.18117,4.800491 9.02694,5.45108 0.65059,0.325298 4.03367,2.146951 7.18903,-2.374656 1.23612,-2.992718 0.42289,-8.848034 -1.26865,-11.255221 -1.00842,-1.691535 -3.21724,-5.632351 -9.23839,-7.67697 -6.08302,-2.065627 -5.87159,-1.854184 -6.6035,-2.342127 -0.71457,-0.476379 -5.88784,-3.871015 -4.03366,-10.246807 1.85418,-6.375788 7.87215,-7.774558 11.90581,-5.985435 4.2939,1.366242 20.42855,6.798675 20.42855,6.798675 0,0 7.77456,2.537304 8.55527,9.95404 0.42289,7.416734 0.22771,29.000084 0.22771,29.000084 0,0 -1.30118,12.637721 -15.22383,12.377491 -13.40217,-0.0651 -40.95181,0.023 -40.95181,0.023"
     id="vs3"
     inkscape:label="vs3"
     sodipodi:nodetypes="ccccssscccccc"
     sodipodi:insensitive="true" /><path
     style="fill:none;stroke:none;stroke-width:5.6;stroke-linejoin:round;stroke-dasharray:none;stroke-opacity:1"
     d="m 194.54332,86.023012 c 0,0 8.18117,4.80049 9.02694,5.45108 0.65059,0.3253 4.03367,2.14695 7.18903,-2.37466 1.23612,-2.99272 0.42289,-8.84803 -1.26865,-11.25522 -1.00842,-1.691534 -3.21724,-5.63235 -9.23839,-7.676969 -6.08302,-2.065627 -5.87159,-1.854184 -6.6035,-2.342127 -0.71457,-0.476379 -5.88784,-3.871015 -4.03366,-10.246807 1.85418,-6.375788 7.87215,-7.774558 11.90581,-5.985435 4.2939,1.366242 20.42855,6.798675 20.42855,6.798675 0,0 7.77456,2.537304 8.55527,9.95404 0.42289,7.416734 0.22771,29.000083 0.22771,29.000083 0,0 -1.30118,12.637718 -15.22383,12.377488 -13.40217,-0.0651 -40.95181,0.023 -40.95181,0.023"
     id="s3"
     inkscape:label="s3"
     sodipodi:nodetypes="ccccssscccccc"
     sodipodi:insensitive="true" /></svg>
