<?xml version="1.0" encoding="UTF-8" standalone="no"?>
<!-- Created with Inkscape (http://www.inkscape.org/) -->

<svg
   width="250mm"
   height="160mm"
   viewBox="0 0 250 160"
   version="1.1"
   id="svg1"
   xml:space="preserve"
   inkscape:version="1.4.2 (f4327f4, 2025-05-13)"
   sodipodi:docname="hungaroring.svg"
   xmlns:inkscape="http://www.inkscape.org/namespaces/inkscape"
   xmlns:sodipodi="http://sodipodi.sourceforge.net/DTD/sodipodi-0.dtd"
   xmlns="http://www.w3.org/2000/svg"
   xmlns:svg="http://www.w3.org/2000/svg"><sodipodi:namedview
     id="namedview1"
     pagecolor="#505050"
     bordercolor="#eeeeee"
     borderopacity="1"
     inkscape:showpageshadow="0"
     inkscape:pageopacity="0"
     inkscape:pagecheckerboard="0"
     inkscape:deskcolor="#505050"
     inkscape:document-units="mm"
     inkscape:zoom="2.8756734"
     inkscape:cx="296.80005"
     inkscape:cy="440.76633"
     inkscape:window-width="1920"
     inkscape:window-height="1009"
     inkscape:window-x="-8"
     inkscape:window-y="-8"
     inkscape:window-maximized="1"
     inkscape:current-layer="svg1"
     showguides="false" /><defs
     id="defs1" /><path
     style="display:inline;fill:none;stroke:#00ff00;stroke-width:1.6;stroke-linejoin:round;stroke-dasharray:none;stroke-opacity:1"
     d="m 70.670427,99.979542 0.292764,-84.52801 c 0,0 1.261126,-7.3369111 7.335412,-1.008416 5.291495,5.512945 6.831202,9.88898 8.457681,14.508174 1.626476,4.619196 1.919242,5.660141 1.821653,15.353943 -0.09759,9.693804 -0.195177,24.527274 -0.195177,24.527274 0,0 0.06506,6.083025 6.017966,6.473378 4.77336,0.313006 7.514324,-4.001133 8.620324,-7.026381 1.00842,-2.342126 4.32643,-10.181746 4.32643,-10.181746 0,0 1.69154,-3.740896 5.75773,-4.098721 4.19631,-0.780709 42.84739,-8.823386 42.84739,-8.823386"
     id="vs1"
     inkscape:label="vs1"
     sodipodi:nodetypes="ccssscscccc"
     sodipodi:insensitive="true" /><path
     style="fill:none;stroke:none;stroke-width:5.6;stroke-linejoin:round;stroke-dasharray:none;stroke-opacity:1"
     d="m 70.675574,99.976169 0.292764,-84.528008 c 0,0 1.261126,-7.3369106 7.335412,-1.008416 5.291495,5.512945 6.831202,9.88898 8.457681,14.508174 1.626476,4.619196 1.919242,5.660141 1.821653,15.353943 -0.09759,9.693804 -0.195177,24.527274 -0.195177,24.527274 0,0 0.06506,6.083025 6.017966,6.473378 4.77336,0.313006 7.514327,-4.001133 8.620327,-7.026381 1.00842,-2.342126 4.32643,-10.181746 4.32643,-10.181746 0,0 1.69154,-3.740896 5.75773,-4.098721 4.19631,-0.780709 42.84739,-8.823386 42.84739,-8.823386"
     id="s1"
     inkscape:label="s1"
     sodipodi:nodetypes="ccssscscccc"
     sodipodi:insensitive="true" /><path
     style="fill:none;stroke:#00ff00;stroke-width:1.6;stroke-linejoin:round;stroke-dasharray:none;stroke-opacity:1"
     d="m 155.89922,45.18649 c 0,0 8.11472,-1.369199 12.89657,-1.174021 4.78184,0.195177 6.34325,0.975886 8.39262,-1.821654 2.04936,-2.797543 13.6624,-18.541839 13.6624,-18.541839 0,0 2.76501,-3.220425 8.16492,-2.179479 5.3999,1.040945 6.11555,7.026379 6.18061,7.254087 0.0325,0.227706 0.81324,5.936642 0.78071,6.213142 -0.0325,0.195178 -0.0407,4.204444 -0.29277,5.204727 -0.16265,1.203592 -3.0903,20.461081 -3.0903,20.461081 0,0 -0.16265,3.610779 -3.90355,3.025246 -3.74089,-0.585531 -4.16378,1.366242 -8.00227,6.701086 -3.83848,5.334844 -8.13238,10.832338 -8.13238,10.832338 0,0 -1.52889,2.179478 0.0651,5.139666 1.59395,2.960187 5.79026,9.92151 5.79026,9.92151 0,0 2.56983,4.6192 -2.66742,8.49021 -4.97703,3.15537 -17.1756,9.88898 -17.1756,9.88898 0,0 -4.32643,2.96019 -5.36738,7.44926 -1.39877,4.13126 -4.5216,13.79253 -4.5216,13.79253 0,0 -2.83007,6.18061 -10.53957,5.3999 -5.69267,-0.29276 -8.19745,-0.45541 -8.19745,-0.45541"
     id="vs2"
     inkscape:label="vs2"
     sodipodi:nodetypes="csscsccccsscsccccccc"
     sodipodi:insensitive="true" /><path
     style="display:inline;fill:none;stroke:none;stroke-width:5.6;stroke-linejoin:round;stroke-dasharray:none;stroke-opacity:1"
     d="m 155.90233,45.186863 c 0,0 8.11472,-1.369199 12.89657,-1.174021 4.78184,0.195177 6.34325,0.975886 8.39262,-1.821654 2.04936,-2.797543 13.6624,-18.541839 13.6624,-18.541839 0,0 2.76501,-3.220425 8.16492,-2.179479 5.3999,1.040945 6.11555,7.026379 6.18061,7.254087 0.0325,0.227706 0.81324,5.936642 0.78071,6.213142 -0.0325,0.195178 -0.0407,4.204444 -0.29277,5.204727 -0.16265,1.203592 -3.0903,20.461081 -3.0903,20.461081 0,0 -0.16265,3.610779 -3.90355,3.025246 -3.74089,-0.585531 -4.16378,1.366242 -8.00227,6.701086 -3.83848,5.334844 -8.13238,10.832333 -8.13238,10.832333 0,0 -1.52889,2.17948 0.0651,5.13967 1.59395,2.96019 5.79026,9.92151 5.79026,9.92151 0,0 2.56983,4.619208 -2.66742,8.490218 -4.97703,3.15537 -17.1756,9.88898 -17.1756,9.88898 0,0 -4.32643,2.96019 -5.36738,7.44926 -1.39877,4.13126 -4.5216,13.79253 -4.5216,13.79253 0,0 -2.83007,6.18061 -10.53957,5.3999 -5.69267,-0.29276 -8.19745,-0.45541 -8.19745,-0.45541"
     id="s2"
     inkscape:label="s2"
     sodipodi:nodetypes="csscsccccsscsccccccc"
     sodipodi:insensitive="true" /><path
     style="fill:none;stroke:#00ff00;stroke-width:1.6;stroke-linejoin:round;stroke-dasharray:none;stroke-opacity:1"
     d="m 139.96598,140.78982 -39.58587,-2.54865 c 0,0 -4.922397,0 -3.496283,-5.10641 1.150094,-5.06041 2.760224,-17.61943 2.484202,-23.41589 0,-1.61013 -0.276024,-6.1645 -5.42844,-6.44053 -5.152416,-0.27602 -5.704459,4.41636 -5.842471,7.54461 -0.138012,3.12826 -0.138012,17.48142 -0.138012,17.48142 0,0 -0.80016,7.07899 -8.510688,7.36059 -7.220112,0.26369 -9.108736,-7.13057 -8.970724,-10.12082 0.138012,-2.99024 0.192147,-25.629409 0.192147,-25.629409"
     id="vs3"
     inkscape:label="vs3"
     sodipodi:nodetypes="ccccsscssc"
     sodipodi:insensitive="true" /><path
     style="fill:none;stroke:none;stroke-width:5.6;stroke-linejoin:round;stroke-dasharray:none;stroke-opacity:1"
     d="m 139.96721,140.7902 -39.58586,-2.54865 c 0,0 -4.922401,0 -3.496287,-5.10641 1.150094,-5.06041 2.760224,-17.61943 2.484202,-23.41589 0,-1.61013 -0.276024,-6.1645 -5.42844,-6.44053 -5.152416,-0.27602 -5.704459,4.41636 -5.842471,7.54461 -0.138012,3.12826 -0.138012,17.48142 -0.138012,17.48142 0,0 -0.80016,7.07899 -8.510688,7.36059 -7.220112,0.26369 -9.108736,-7.13057 -8.970724,-10.12082 0.138012,-2.99024 0.192147,-25.629402 0.192147,-25.629402"
     id="s3"
     inkscape:label="s3"
     sodipodi:nodetypes="ccccsscssc"
     sodipodi:insensitive="true" /></svg>
