<?xml version="1.0" encoding="UTF-8" standalone="no"?>
<!-- Created with Inkscape (http://www.inkscape.org/) -->

<svg
   width="250mm"
   height="160mm"
   viewBox="0 0 250 160"
   version="1.1"
   id="svg1"
   xml:space="preserve"
   inkscape:version="1.4.2 (f4327f4, 2025-05-13)"
   sodipodi:docname="imola.svg"
   xmlns:inkscape="http://www.inkscape.org/namespaces/inkscape"
   xmlns:sodipodi="http://sodipodi.sourceforge.net/DTD/sodipodi-0.dtd"
   xmlns="http://www.w3.org/2000/svg"
   xmlns:svg="http://www.w3.org/2000/svg"><sodipodi:namedview
     id="namedview1"
     pagecolor="#505050"
     bordercolor="#eeeeee"
     borderopacity="1"
     inkscape:showpageshadow="0"
     inkscape:pageopacity="0"
     inkscape:pagecheckerboard="0"
     inkscape:deskcolor="#505050"
     inkscape:document-units="mm"
     inkscape:zoom="1.3185616"
     inkscape:cx="465.27974"
     inkscape:cy="335.59297"
     inkscape:window-width="1920"
     inkscape:window-height="1009"
     inkscape:window-x="-8"
     inkscape:window-y="-8"
     inkscape:window-maximized="1"
     inkscape:current-layer="svg1" /><defs
     id="defs1" /><path
     style="fill:none;stroke:#00ff00;stroke-width:1.6;stroke-opacity:1;stroke-dasharray:none"
     d="m 134.08459,76.690709 15.82056,-0.709444 c 0,0 2.90871,-0.567552 3.33438,1.276999 0.92227,1.418883 0.14189,1.702659 2.69588,0.922274 14.04696,-6.384981 14.89829,-6.881591 14.89829,-6.881591 0,0 6.7397,-4.114765 8.44236,-6.172147 13.33751,-13.834125 14.04696,-14.614511 14.04696,-14.614511 0,0 2.27021,-2.766825 6.52687,-4.398542 7.94575,-3.760044 9.29369,-4.256654 9.29369,-4.256654 0,0 2.48305,-1.135107 1.63172,-3.618155 -3.40533,-6.881591 -3.61816,-7.165367 -3.61816,-7.165367 0,0 -1.13511,-2.34116 -4.54043,-0.993219 -20.92855,8.726141 -21.77988,9.080862 -21.77988,9.080862 0,0 -4.61137,2.412103 -12.34429,2.341158"
     id="vs3"
     inkscape:label="vs3" /><path
     style="fill:none;stroke:none;stroke-width:5.6;stroke-dasharray:none;stroke-opacity:1"
     d="m 134.10402,76.686486 15.82056,-0.709444 c 0,0 2.90871,-0.567552 3.33438,1.276999 0.92227,1.418878 0.14189,1.702658 2.69588,0.922278 14.04696,-6.384985 14.89829,-6.881595 14.89829,-6.881595 0,0 6.7397,-4.114765 8.44236,-6.172147 13.33751,-13.834125 14.04696,-14.614511 14.04696,-14.614511 0,0 2.27021,-2.766825 6.52687,-4.398542 7.94575,-3.760044 9.29369,-4.256654 9.29369,-4.256654 0,0 2.48305,-1.135107 1.63172,-3.618155 -3.40533,-6.881591 -3.61816,-7.165367 -3.61816,-7.165367 0,0 -1.13511,-2.34116 -4.54043,-0.993219 -20.92855,8.726141 -21.77988,9.080862 -21.77988,9.080862 0,0 -4.61137,2.412103 -12.34429,2.341158"
     id="s3"
     inkscape:label="s3" /><path
     style="display:inline;fill:none;stroke:#00ff00;stroke-width:1.6;stroke-opacity:1;stroke-dasharray:none;fill-opacity:1"
     d="m 134.09003,76.690723 -20.81714,0.839506 c 0,0 -1.5802,0.300992 -3.61189,-0.627063 -1.70561,-0.702312 -3.68713,-2.182185 -4.99143,0.150495 -1.30429,2.332678 -3.76238,6.295726 -3.76238,6.295726 0,0 -1.003305,0.928055 -0.25083,3.662056 0.67723,2.759083 3.61189,13.920827 3.61189,13.920827 0,0 1.27921,3.93796 -0.10033,8.95448 -1.78086,4.8911 -3.18549,7.85084 -3.18549,7.85084 0,0 -1.80594,3.68714 -5.493079,2.83433 -4.038295,-0.60198 -12.240296,-1.85611 -12.240296,-1.85611 0,0 -5.593414,-0.90297 -10.635009,0.30099 -5.417836,0.90297 -25.709637,4.26404 -25.709637,4.26404 0,0 -2.895844,0.94164 -4.539945,-1.85611 -1.509259,-2.56829 4.015362,-6.64151 4.015362,-6.64151 l 4.418652,-3.9308"
     id="vs2"
     sodipodi:nodetypes="cccscccccccccscc"
     inkscape:label="vs2" /><path
     style="display:inline;fill:none;fill-opacity:1;stroke:none;stroke-width:5.6;stroke-dasharray:none;stroke-opacity:1"
     d="m 134.15051,76.689592 -20.81713,0.839506 c 0,0 -1.5802,0.300992 -3.61189,-0.627063 -1.70561,-0.702312 -3.68713,-2.182185 -4.99143,0.150495 -1.30429,2.332678 -3.76238,6.295725 -3.76238,6.295725 0,0 -1.00331,0.92806 -0.25083,3.66206 0.67723,2.75908 3.61189,13.920815 3.61189,13.920815 0,0 1.27921,3.93796 -0.10033,8.95448 -1.78086,4.8911 -3.18549,7.85084 -3.18549,7.85084 0,0 -1.805945,3.68714 -5.493084,2.83433 -4.038295,-0.60198 -12.240296,-1.85611 -12.240296,-1.85611 0,0 -5.593414,-0.90297 -10.635009,0.30099 -5.417836,0.90297 -25.709637,4.26404 -25.709637,4.26404 0,0 -2.895844,0.94164 -4.539945,-1.85611 -1.509259,-2.56829 4.015362,-6.64151 4.015362,-6.64151 l 4.418652,-3.9308"
     id="s2"
     sodipodi:nodetypes="cccscccccccccscc"
     inkscape:label="s2" /><path
     style="display:inline;fill:none;stroke:#00ff00;stroke-width:1.6;stroke-opacity:1;stroke-dasharray:none"
     d="m 168.5014,41.502371 -19.8023,0.49661 c 0,0 -2.09286,0.319249 -6.95254,-0.532082 -16.35264,-2.908713 -17.12255,-3.062474 -21.70893,-3.54721 -4.36307,-0.461133 -23.380424,2.412103 -23.380424,2.412103 0,0 -7.659763,1.747786 -8.830344,2.208923 -1.170577,0.461137 -3.842713,0.476414 -3.770126,3.997959 0.03443,1.670323 -1.835944,3.712399 -1.835944,3.712399 l -7.597855,3.94171 c 0,0 -2.821599,1.25222 -3.714184,4.76187 -6.91706,19.3323 -11.759003,32.332831 -11.759003,32.332831 0,0 -1.472095,2.163799 -0.01774,6.172148 0.585291,1.525301 2.252479,4.185708 -0.372457,6.136678 -2.660407,2.30569 -7.96349,7.25404 -7.96349,7.25404"
     id="vs1"
     sodipodi:nodetypes="cccscssccccccc"
     inkscape:label="vs1" /><path
     style="display:inline;fill:none;stroke:none;stroke-width:5.6;stroke-dasharray:none;stroke-opacity:1;stroke-linecap:butt;stroke-linejoin:round"
     d="m 168.47222,41.507945 -19.8023,0.49661 c 0,0 -2.09286,0.319249 -6.95254,-0.532082 -16.35264,-2.908713 -17.12255,-3.062474 -21.70893,-3.54721 -4.36307,-0.461133 -23.380427,2.412103 -23.380427,2.412103 0,0 -7.65976,1.747786 -8.83034,2.208923 -1.17058,0.461137 -3.84271,0.476414 -3.77013,3.997959 0.0344,1.670323 -1.83594,3.712399 -1.83594,3.712399 l -7.597856,3.94171 c 0,0 -2.821599,1.25222 -3.714184,4.76187 -6.91706,19.3323 -11.759003,32.332831 -11.759003,32.332831 0,0 -1.472095,2.163799 -0.01774,6.172148 0.585291,1.525301 2.252479,4.185704 -0.372457,6.136674 -2.660407,2.30569 -7.96349,7.25404 -7.96349,7.25404"
     id="s1"
     sodipodi:nodetypes="cccscssccccccc"
     inkscape:label="s1" /></svg>
