<?xml version="1.0" encoding="UTF-8" standalone="no"?>
<!-- Created with Inkscape (http://www.inkscape.org/) -->

<svg
   width="250mm"
   height="160mm"
   viewBox="0 0 250 160"
   version="1.1"
   id="svg1"
   xml:space="preserve"
   inkscape:version="1.4.2 (f4327f4, 2025-05-13)"
   sodipodi:docname="interlagos.svg"
   xmlns:inkscape="http://www.inkscape.org/namespaces/inkscape"
   xmlns:sodipodi="http://sodipodi.sourceforge.net/DTD/sodipodi-0.dtd"
   xmlns="http://www.w3.org/2000/svg"
   xmlns:svg="http://www.w3.org/2000/svg"><sodipodi:namedview
     id="namedview1"
     pagecolor="#505050"
     bordercolor="#eeeeee"
     borderopacity="1"
     inkscape:showpageshadow="0"
     inkscape:pageopacity="0"
     inkscape:pagecheckerboard="0"
     inkscape:deskcolor="#505050"
     inkscape:document-units="mm"
     inkscape:zoom="1.4378367"
     inkscape:cx="363.0454"
     inkscape:cy="207.60355"
     inkscape:window-width="1920"
     inkscape:window-height="1009"
     inkscape:window-x="-8"
     inkscape:window-y="-8"
     inkscape:window-maximized="1"
     inkscape:current-layer="svg1"
     showguides="false" /><defs
     id="defs1" /><path
     style="display:inline;fill:none;stroke:#00ff00;stroke-width:1.6;stroke-linejoin:round;stroke-dasharray:none;stroke-opacity:1"
     d="m 85.292455,31.813891 c 0,0 -17.574984,4.529045 -42.048961,11.337594 -1.932157,0.552045 -17.20539,6.256507 -8.6487,14.169147 8.556691,7.912639 8.464685,7.211083 5.152419,13.651602 -0.664053,1.066687 -9.699941,11.772003 -2.024165,25.911593 6.992565,12.881043 19.069297,14.296463 21.529741,15.089223 2.087168,0.24974 81.803431,21.30048 81.803431,21.30048"
     id="vs1"
     inkscape:label="vs1"
     sodipodi:nodetypes="ccscscc"
     sodipodi:insensitive="true" /><path
     style="fill:none;stroke:none;stroke-width:5.6;stroke-linejoin:round;stroke-dasharray:none;stroke-opacity:1"
     d="m 85.292436,31.815759 c 0,0 -17.574984,4.529045 -42.048961,11.337594 -1.932157,0.552045 -17.20539,6.256507 -8.6487,14.169147 8.556691,7.912639 8.464685,7.211083 5.152419,13.651602 -0.664053,1.066687 -9.699941,11.772003 -2.024165,25.911593 6.992565,12.881045 19.069297,14.296465 21.529741,15.089225 2.087168,0.24974 81.80343,21.30048 81.80343,21.30048"
     id="s1"
     inkscape:label="s1"
     sodipodi:nodetypes="ccscscc"
     sodipodi:insensitive="true" /><path
     style="fill:none;stroke:#00ff00;stroke-width:1.6;stroke-linejoin:round;stroke-dasharray:none;stroke-opacity:1"
     d="m 140.97839,133.24977 19.55158,5.06041 c 0,0 9.54577,2.23117 10.60386,-10.09782 0.32202,-2.30019 2.16217,-12.51301 2.16217,-12.51301 0,0 1.47212,-12.51301 -10.81087,-20.471656 -2.62221,-1.932156 -24.98002,-17.71143 -45.8197,-32.708643 -1.33411,-1.150093 -6.94656,-6.67054 -3.81831,-17.481412 3.12825,-10.810875 10.12082,-11.270911 12.69702,-11.592936 2.80623,-0.506042 12.00697,-2.484202 12.23699,-2.576208 0.23002,-0.09201 5.65846,-0.782063 7.77463,0.13801 1.47212,0.36803 6.30251,1.47212 1.56413,9.476766 -2.25419,2.806226 -3.12825,4.600371 -3.12825,4.600371 0,0 -2.16218,5.014405 2.07016,8.970724 4.23234,3.95632 10.25883,1.288106 12.74303,-1.97816 3.03625,-2.990241 11.0869,-12.697025 16.19331,-13.01905 5.15242,-1.058087 10.12082,-2.34619 10.12082,-2.34619 0,0 3.81831,-1.058084 5.29043,2.71422 1.47211,3.772305 -2.80623,6.440519 -2.80623,6.440519 L 175.91821,56.44656 c 0,0 -5.79647,6.072491 -4.23234,15.135224 1.56413,9.062731 10.67286,13.571096 10.67286,13.571096 l 8.75232,5.637067"
     id="vs2"
     inkscape:label="vs2"
     sodipodi:insensitive="true" /><path
     style="fill:none;stroke:none;stroke-width:5.6;stroke-linejoin:round;stroke-dasharray:none;stroke-opacity:1"
     d="m 140.97506,133.25182 19.55158,5.06041 c 0,0 9.54577,2.23117 10.60386,-10.09782 0.32202,-2.30019 2.16217,-12.51301 2.16217,-12.51301 0,0 1.47212,-12.51301 -10.81087,-20.471661 -2.62221,-1.932156 -24.98002,-17.71143 -45.8197,-32.708643 -1.33411,-1.150093 -6.94656,-6.67054 -3.81831,-17.481412 3.12825,-10.810875 10.12082,-11.270911 12.69702,-11.592936 2.80623,-0.506042 12.00697,-2.484202 12.23699,-2.576208 0.23002,-0.09201 5.65846,-0.782063 7.77463,0.13801 1.47212,0.36803 6.30251,1.47212 1.56413,9.476766 -2.25419,2.806226 -3.12825,4.600371 -3.12825,4.600371 0,0 -2.16218,5.014405 2.07016,8.970724 4.23234,3.95632 10.25883,1.288106 12.74303,-1.97816 3.03625,-2.990241 11.0869,-12.697025 16.19331,-13.01905 5.15242,-1.058087 10.12082,-2.34619 10.12082,-2.34619 0,0 3.81831,-1.058084 5.29043,2.71422 1.47211,3.772305 -2.80623,6.440519 -2.80623,6.440519 l -11.68495,10.580855 c 0,0 -5.79647,6.072491 -4.23234,15.135224 1.56413,9.062731 10.67286,13.571096 10.67286,13.571096 l 8.75232,5.637067"
     id="s2"
     inkscape:label="s2"
     sodipodi:insensitive="true" /><path
     style="fill:none;stroke:#00ff00;stroke-width:1.6;stroke-linejoin:round;stroke-dasharray:none;stroke-opacity:1"
     d="m 191.07376,90.765141 14.70087,8.740898 c 0,0 4.87639,2.806231 7.82063,-3.95632 2.94424,-6.762546 6.12543,-16.945152 4.78438,-22.54182 -1.19609,-5.336431 -1.51812,-12.513011 -8.00464,-25.026022 -6.48653,-12.513011 -11.31692,-15.779276 -23.36989,-18.631505 -12.05297,-2.85223 -35.19284,-8.050651 -44.66961,-9.200744 -2.16218,-0.184015 -8.28067,-1.518123 -32.47862,5.060409 -15.733276,4.232341 -24.580691,6.603854 -24.580691,6.603854"
     id="vs3"
     inkscape:label="vs3"
     sodipodi:nodetypes="ccscssccc"
     sodipodi:insensitive="true" /><path
     style="fill:none;stroke:none;stroke-width:5.6;stroke-linejoin:round;stroke-dasharray:none;stroke-opacity:1"
     d="m 191.07346,90.766412 14.70087,8.740898 c 0,0 4.87639,2.80624 7.82063,-3.95632 2.94424,-6.762546 6.12543,-16.945152 4.78438,-22.54182 -1.19609,-5.336431 -1.51812,-12.513011 -8.00464,-25.026022 -6.48653,-12.513011 -11.31692,-15.779276 -23.36989,-18.631505 -12.05297,-2.85223 -35.19284,-8.050651 -44.66961,-9.200744 -2.16218,-0.184015 -8.28067,-1.518123 -32.47862,5.060409 -15.733277,4.232341 -24.580692,6.603854 -24.580692,6.603854"
     id="s3"
     inkscape:label="s3"
     sodipodi:nodetypes="ccscssccc"
     sodipodi:insensitive="true" /></svg>
