<?xml version="1.0" encoding="UTF-8" standalone="no"?>
<!-- Created with Inkscape (http://www.inkscape.org/) -->

<svg
   width="250mm"
   height="160mm"
   viewBox="0 0 250 160"
   version="1.1"
   id="svg1"
   xml:space="preserve"
   inkscape:version="1.4.2 (f4327f4, 2025-05-13)"
   sodipodi:docname="jeddah.svg"
   xmlns:inkscape="http://www.inkscape.org/namespaces/inkscape"
   xmlns:sodipodi="http://sodipodi.sourceforge.net/DTD/sodipodi-0.dtd"
   xmlns="http://www.w3.org/2000/svg"
   xmlns:svg="http://www.w3.org/2000/svg"><sodipodi:namedview
     id="namedview1"
     pagecolor="#505050"
     bordercolor="#eeeeee"
     borderopacity="1"
     inkscape:showpageshadow="0"
     inkscape:pageopacity="0"
     inkscape:pagecheckerboard="0"
     inkscape:deskcolor="#505050"
     inkscape:document-units="mm"
     inkscape:zoom="32.53453"
     inkscape:cx="169.34315"
     inkscape:cy="430.08151"
     inkscape:window-width="1920"
     inkscape:window-height="1009"
     inkscape:window-x="-8"
     inkscape:window-y="-8"
     inkscape:window-maximized="1"
     inkscape:current-layer="svg1" /><defs
     id="defs1" /><path
     style="display:inline;fill:none;stroke:#56ff00;stroke-width:1.6;stroke-linejoin:round;stroke-dasharray:none;stroke-opacity:1"
     d="m 141.73121,78.705222 c 0,0 6.36318,-2.118622 8.21791,-1.695 1.75882,0.401715 4.96146,-1.596657 5.05857,-3.673841 0.0552,-1.181462 0.98843,-5.148282 3.99265,-6.538985 4.49687,-2.081668 3.49241,-4.185379 9.7873,-3.657294 5.19842,0.736058 11.38592,1.495121 11.38592,1.495121 0,0 8.51068,0.36803 13.75511,-3.08225 2.99024,-2.047166 13.43309,-9.269749 13.82412,-10.557854 1.01208,-1.012082 8.07365,-8.993725 9.29275,-13.525092 0.43703,-1.150091 4.71538,-12.766031 5.17541,-16.492332 0.46004,-3.726301 -0.46003,-7.222584 -5.70446,-4.163337 -4.53136,3.036246 -21.37314,13.996969 -22.00999,14.339686 -0.89707,0.644054 -9.83466,6.304878 -13.25026,9.980716"
     id="vs3"
     sodipodi:nodetypes="cssscccccsccc"
     inkscape:label="vs3" /><path
     style="fill:none;stroke:none;stroke-width:5.6;stroke-linejoin:round;stroke-dasharray:none;stroke-opacity:1"
     d="m 141.73161,78.708102 c 0,0 6.36318,-2.118622 8.21791,-1.695 1.75882,0.401715 4.96146,-1.596657 5.05857,-3.673841 0.0552,-1.181462 0.98843,-5.148282 3.99265,-6.538985 4.49687,-2.081668 3.49241,-4.185379 9.7873,-3.657294 5.19842,0.736058 11.38592,1.495121 11.38592,1.495121 0,0 8.51068,0.36803 13.75511,-3.08225 2.99024,-2.047166 13.43309,-9.269749 13.82412,-10.557854 1.01208,-1.012082 8.07365,-8.993725 9.29275,-13.525092 0.43703,-1.150091 4.71538,-12.766031 5.17541,-16.492332 0.46004,-3.726301 -0.46003,-7.222584 -5.70446,-4.163337 -4.53136,3.036246 -21.37314,13.996969 -22.00999,14.339686 -0.89707,0.644054 -9.83466,6.304878 -13.25026,9.980716"
     id="s3"
     sodipodi:nodetypes="cssscccccsccc"
     inkscape:label="s3" /><path
     style="display:inline;fill:none;stroke:#56ff00;stroke-width:1.6;stroke-linejoin:round;stroke-dasharray:none;stroke-opacity:1"
     d="m 44.793177,113.56063 -18.151482,8.06732 c 0,0 -4.213295,1.86122 -2.634894,6.24567 1.610212,4.47281 7.107704,2.83007 7.107704,2.83007 0,0 3.442984,-0.57985 6.684822,-5.43243 2.705636,-4.04996 7.319144,-6.91252 7.319144,-6.91252 0,0 4.222573,-3.15158 11.645578,-2.29334 8.018531,0.92709 9.888979,-0.35783 9.888979,-0.35783 0,0 4.098721,-2.66742 6.473378,0.74818 0.68312,1.07348 2.699951,5.00955 9.888982,3.05778 3.894015,-1.44444 4.814371,-1.91924 4.814371,-1.91924 0,0 3.903544,-1.85419 8.620329,-6.73362 2.407184,-2.47224 4.358962,-4.32643 4.358962,-4.32643 0,0 3.31801,-3.61077 8.58779,-4.78184 2.11442,-0.553 8.60407,-2.976451 11.41787,-6.050493 2.24454,-2.472245 2.71622,-2.992718 3.05778,-3.383071 0.30894,-0.353065 4.94448,-6.652293 6.76614,-7.937208 1.25239,-0.943357 6.97119,-4.802871 11.1675,-5.713699"
     id="vs2"
     sodipodi:nodetypes="ccscscsccccccccscc"
     inkscape:label="vs2" /><path
     style="fill:none;stroke:none;stroke-width:5.6;stroke-linejoin:round;stroke-dasharray:none;stroke-opacity:1"
     d="m 44.799288,113.55489 -18.151482,8.06732 c 0,0 -4.213295,1.86122 -2.634894,6.24567 1.610212,4.47281 7.107704,2.83007 7.107704,2.83007 0,0 3.442984,-0.57985 6.684822,-5.43243 2.705636,-4.04996 7.319144,-6.91252 7.319144,-6.91252 0,0 4.222573,-3.15158 11.645578,-2.29334 8.018531,0.92709 9.888979,-0.35783 9.888979,-0.35783 0,0 4.098721,-2.66742 6.473378,0.74818 0.68312,1.07348 2.699951,5.00955 9.888982,3.05778 3.894015,-1.44444 4.814371,-1.91924 4.814371,-1.91924 0,0 3.903544,-1.85419 8.620329,-6.73362 2.407184,-2.47224 4.358961,-4.32643 4.358961,-4.32643 0,0 3.31801,-3.61077 8.58779,-4.78184 2.11442,-0.553 8.60407,-2.976454 11.41786,-6.050494 2.24454,-2.472249 2.71622,-2.992722 3.05778,-3.383075 0.30894,-0.353065 4.94449,-6.652293 6.76614,-7.937208 1.25239,-0.943357 6.97119,-4.802871 11.1675,-5.713699"
     id="s2"
     sodipodi:nodetypes="ccscscsccccccccscc"
     inkscape:label="s2" /><path
     style="display:inline;fill:none;stroke:#00ff00;stroke-width:1.6;stroke-linejoin:round;stroke-dasharray:none;stroke-opacity:1"
     d="m 181.38472,41.019751 -30.67536,25.812188 c 0,0 -2.45598,1.659007 -0.26024,3.20416 2.19575,1.545154 1.69154,4.131252 -2.96019,4.375224 -4.68424,-0.0488 -5.1234,0.03253 -5.1234,0.03253 0,0 -2.43971,-0.162648 -9.48236,4.456546 -3.10657,1.919243 -11.84135,7.09782 -13.64614,7.7095 -1.49444,0.506494 -1.18733,2.797541 -1.18733,2.797541 0,0 -0.0597,9.131612 -8.63265,8.709205 -3.04151,-0.195175 -5.94058,-2.154503 -9.974247,0.545449 -2.472243,1.724066 -4.927861,3.087826 -4.960753,6.278196 -0.03253,3.15537 -2.92766,4.11499 -3.627045,4.42402 -1.040945,0.39036 -5.627611,2.21201 -5.627611,2.21201 0,0 -3.090304,1.4313 -6.017963,-1.30118 -1.951773,-2.11442 -4.180046,-5.10714 -7.904679,-3.35054 -0.829504,0.43914 -2.553568,0.91083 -4.472812,0.92709 -5.676405,-0.0488 -6.766145,0.19518 -6.766145,0.19518 0,0 -6.264077,1.08218 -15.323556,5.53873"
     id="vs1"
     sodipodi:nodetypes="ccscccscccsccccccc"
     inkscape:label="vs1" /><path
     style="fill:none;stroke:none;stroke-width:5.6;stroke-linejoin:round;stroke-dasharray:none;stroke-opacity:1"
     d="m 181.38747,41.011811 -30.67536,25.812188 c 0,0 -2.45598,1.659007 -0.26024,3.20416 2.19575,1.545154 1.69154,4.131252 -2.96019,4.375224 -4.68424,-0.0488 -5.1234,0.03253 -5.1234,0.03253 0,0 -2.43971,-0.162648 -9.48236,4.456546 -3.10657,1.919243 -11.84135,7.09782 -13.64614,7.7095 -1.49444,0.506494 -1.18733,2.797541 -1.18733,2.797541 0,0 -0.0597,9.131612 -8.63265,8.709205 -3.04151,-0.195175 -5.94058,-2.154503 -9.974247,0.545449 -2.472239,1.724066 -4.927859,3.087826 -4.960749,6.278196 -0.0325,3.15537 -2.92766,4.11499 -3.62705,4.42402 -1.04094,0.39036 -5.62761,2.21201 -5.62761,2.21201 0,0 -3.0903,1.4313 -6.01796,-1.30118 -1.95177,-2.11442 -4.18005,-5.10714 -7.90468,-3.35054 -0.8295,0.43914 -2.55357,0.91083 -4.47281,0.92709 -5.676405,-0.0488 -6.766145,0.19518 -6.766145,0.19518 0,0 -6.117694,0.98459 -15.177173,5.44114"
     id="s1"
     sodipodi:nodetypes="ccscccscccsccccccc"
     inkscape:label="s1" /></svg>
