<?xml version="1.0" encoding="UTF-8" standalone="no"?>
<!-- Created with Inkscape (http://www.inkscape.org/) -->

<svg
   width="250mm"
   height="160mm"
   viewBox="0 0 250 160"
   version="1.1"
   id="svg1"
   xml:space="preserve"
   inkscape:version="1.4.2 (f4327f4, 2025-05-13)"
   sodipodi:docname="las_vegas.svg"
   xmlns:inkscape="http://www.inkscape.org/namespaces/inkscape"
   xmlns:sodipodi="http://sodipodi.sourceforge.net/DTD/sodipodi-0.dtd"
   xmlns="http://www.w3.org/2000/svg"
   xmlns:svg="http://www.w3.org/2000/svg"><sodipodi:namedview
     id="namedview1"
     pagecolor="#505050"
     bordercolor="#eeeeee"
     borderopacity="1"
     inkscape:showpageshadow="0"
     inkscape:pageopacity="0"
     inkscape:pagecheckerboard="0"
     inkscape:deskcolor="#505050"
     inkscape:document-units="mm"
     inkscape:zoom="1.0167041"
     inkscape:cx="804.06877"
     inkscape:cy="263.10507"
     inkscape:window-width="1920"
     inkscape:window-height="1009"
     inkscape:window-x="-8"
     inkscape:window-y="-8"
     inkscape:window-maximized="1"
     inkscape:current-layer="svg1" /><defs
     id="defs1" /><path
     style="display:inline;fill:none;stroke:#00ff14;stroke-width:1.6;stroke-linejoin:round;stroke-dasharray:none;stroke-opacity:1"
     d="M 223.18703,45.29066 206.26981,25.373041 c 0,0 -1.17106,-1.659006 -3.87101,-0.195177 -2.69995,1.463831 -1.56142,7.937208 -1.56142,7.937208 0,0 0.35782,1.431298 1.65901,3.220424 0.52047,0.78071 3.18789,5.237258 3.18789,5.237258 0,0 3.02525,6.375788 -2.30959,9.79139 -5.05337,3.235393 -4.91196,2.830071 -10.99499,3.057776 -6.08302,0.227709 -92.774247,1.691537 -92.774247,1.691537 0,0 -1.886714,0.748178 -2.212009,-2.602362 0.03253,-3.285485 -0.06506,-10.051629 -0.06506,-10.051629"
     id="vs1"
     sodipodi:nodetypes="ccscccssccc"
     inkscape:label="vs1"
     sodipodi:insensitive="true" /><path
     style="display:inline;fill:none;stroke:none;stroke-width:5.6;stroke-linejoin:round;stroke-dasharray:none;stroke-opacity:1"
     d="M 223.18681,45.291629 206.26959,25.37401 c 0,0 -1.17106,-1.659006 -3.87101,-0.195177 -2.69995,1.463831 -1.56142,7.937208 -1.56142,7.937208 0,0 0.35782,1.431298 1.65901,3.220424 0.52047,0.78071 3.18789,5.237258 3.18789,5.237258 0,0 3.02525,6.375788 -2.30959,9.79139 -5.05337,3.235393 -4.91196,2.830071 -10.99499,3.057776 -6.08302,0.227709 -92.77425,1.691537 -92.77425,1.691537 0,0 -1.886714,0.748178 -2.212009,-2.602362 0.03253,-3.285485 -0.06506,-10.051629 -0.06506,-10.051629"
     id="s1"
     sodipodi:nodetypes="ccscccssccc"
     inkscape:label="s1"
     sodipodi:insensitive="true" /><path
     style="display:inline;fill:none;stroke:#00ff14;stroke-width:1.6;stroke-linejoin:round;stroke-dasharray:none;stroke-opacity:1"
     d="m 97.297861,43.473512 -0.06706,-6.715133 c 0,0 -0.390356,-7.872147 -7.156501,-11.450397 -6.766144,-3.578249 -8.956786,-2.883967 -10.080209,-3.042667 -1.234488,0.04995 -3.387019,0.277656 -3.387019,0.277656 0,0 -1.305128,0.110105 -1.496359,2.537305 -0.265818,1.009093 -1.919245,3.773425 -6.636027,1.236122 -1.735904,-1.01005 -4.456547,-3.220424 -4.456547,-3.220424 0,0 -2.504776,-1.106005 -2.537303,2.11442 -0.03253,3.220424 -0.260237,34.774079 -0.260237,34.774079 0,0 -0.390355,8.782975 -4.846902,11.710632 -4.033663,2.92766 -7.514322,5.367375 -11.645574,6.766145 -4.32643,1.593948 -14.931059,4.554138 -16.167182,11.743166 -1.886715,6.99385 -3.057777,11.710634 -3.057777,11.710634 0,0 -0.487944,1.30118 1.33371,1.52889 1.756595,0.32529 2.797542,0.2277 7.189028,2.92766 4.619196,2.66742 6.115555,3.6433 6.115555,3.6433"
     id="vs2"
     inkscape:label="vs2"
     sodipodi:nodetypes="ccscccccscccccccc"
     sodipodi:insensitive="true" /><path
     style="display:inline;fill:none;stroke:none;stroke-width:5.6;stroke-linejoin:round;stroke-dasharray:none;stroke-opacity:1"
     d="m 97.292088,43.471438 -0.0671,-6.715133 c 0,0 -0.39035,-7.872147 -7.1565,-11.450397 -6.766144,-3.578249 -8.956786,-2.883967 -10.080209,-3.042667 -1.234488,0.04995 -3.387019,0.277656 -3.387019,0.277656 0,0 -1.305128,0.110105 -1.496359,2.537305 -0.265818,1.009093 -1.919245,3.773425 -6.636027,1.236122 -1.735904,-1.01005 -4.456547,-3.220424 -4.456547,-3.220424 0,0 -2.504776,-1.106005 -2.537303,2.11442 -0.03253,3.220424 -0.260237,34.774079 -0.260237,34.774079 0,0 -0.390355,8.782975 -4.846902,11.710632 -4.033663,2.92766 -7.514322,5.367375 -11.645574,6.766145 -4.32643,1.593948 -14.931059,4.554138 -16.167182,11.743168 -1.886715,6.99385 -3.057777,11.710636 -3.057777,11.710636 0,0 -0.487944,1.30118 1.33371,1.52889 1.756595,0.32529 2.797542,0.2277 7.189028,2.92766 4.619196,2.66742 6.115555,3.6433 6.115555,3.6433"
     id="s2"
     inkscape:label="s2"
     sodipodi:nodetypes="ccscccccscccccccc"
     sodipodi:insensitive="true" /><path
     style="display:inline;fill:none;stroke:#00ff14;stroke-width:1.6;stroke-linejoin:round;stroke-dasharray:none;stroke-opacity:1"
     d="m 40.069238,109.99489 c 0,0 13.700456,8.88874 15.556277,9.68129 2.277068,1.26865 15.679237,8.91309 27.064576,13.01181 5.985435,1.91925 12.458813,3.87102 18.053899,3.70837 5.75772,0.0325 80.64073,0.13012 80.64073,0.13012 l 36.36802,-0.22771 c 0,0 1.88672,0.2024 1.82166,-1.59394 -0.0325,-2.04937 0.0325,-2.89513 0.0325,-2.89513 0,0 0.31086,-1.4083 1.62647,-2.37466 1.23612,-1.17106 4.26137,-3.9686 4.26137,-3.9686 0,0 1.72407,-1.49636 1.46383,-4.68426 0.0325,-3.12283 0.61806,-65.612079 0.61806,-65.612079 0,0 -0.40661,-4.928227 -4.40775,-9.905245"
     id="vs3"
     inkscape:label="vs3"
     sodipodi:nodetypes="ccccccccccccc"
     sodipodi:insensitive="true" /><path
     style="display:inline;fill:none;stroke:none;stroke-width:5.6;stroke-linejoin:round;stroke-dasharray:none;stroke-opacity:1"
     d="m 40.072362,110.00119 c 0,0 13.700456,8.88874 15.556277,9.68129 2.277068,1.26865 15.679237,8.91309 27.064576,13.01181 5.985435,1.91925 12.458813,3.87102 18.053895,3.70837 5.75772,0.0325 80.64073,0.13012 80.64073,0.13012 l 36.36801,-0.22771 c 0,0 1.88672,0.2024 1.82166,-1.59394 -0.0325,-2.04937 0.0325,-2.89513 0.0325,-2.89513 0,0 0.31086,-1.4083 1.62647,-2.37466 1.23612,-1.17106 4.26137,-3.9686 4.26137,-3.9686 0,0 1.72407,-1.49636 1.46383,-4.68426 0.0325,-3.12283 0.61806,-65.612088 0.61806,-65.612088 0,0 -0.29276,-4.781844 -4.2939,-9.758862"
     id="s3"
     inkscape:label="s3"
     sodipodi:nodetypes="ccccccccccccc"
     sodipodi:insensitive="true" /></svg>
