<?xml version="1.0" encoding="UTF-8" standalone="no"?>
<!-- Created with Inkscape (http://www.inkscape.org/) -->

<svg
   width="250mm"
   height="160mm"
   viewBox="0 0 250 160"
   version="1.1"
   id="svg1"
   xml:space="preserve"
   inkscape:version="1.4.2 (f4327f4, 2025-05-13)"
   sodipodi:docname="lusail.svg"
   xmlns:inkscape="http://www.inkscape.org/namespaces/inkscape"
   xmlns:sodipodi="http://sodipodi.sourceforge.net/DTD/sodipodi-0.dtd"
   xmlns="http://www.w3.org/2000/svg"
   xmlns:svg="http://www.w3.org/2000/svg"><sodipodi:namedview
     id="namedview1"
     pagecolor="#505050"
     bordercolor="#eeeeee"
     borderopacity="1"
     inkscape:showpageshadow="0"
     inkscape:pageopacity="0"
     inkscape:pagecheckerboard="0"
     inkscape:deskcolor="#505050"
     inkscape:document-units="mm"
     inkscape:zoom="2.0334082"
     inkscape:cx="620.87878"
     inkscape:cy="272.69488"
     inkscape:window-width="1920"
     inkscape:window-height="1009"
     inkscape:window-x="-8"
     inkscape:window-y="-8"
     inkscape:window-maximized="1"
     inkscape:current-layer="svg1" /><defs
     id="defs1" /><path
     style="display:inline;fill:none;stroke:#00ff00;stroke-width:1.6;stroke-linejoin:round;stroke-dasharray:none;stroke-opacity:1"
     d="m 135.7783,144.12212 -79.51846,-0.13011 c 0,0 -8.181181,-0.63433 -8.604064,-8.53901 -0.422884,-7.90467 8.52274,-10.2956 10.50704,-11.38534 1.854184,-1.13853 15.581651,-8.45767 15.581651,-8.45767 0,0 4.506144,-2.90775 2.862599,-8.26251 -1.648522,-5.37098 -6.40832,-7.05891 -6.40832,-7.05891 L 54.519509,92.253775 c 0,0 -3.903546,-2.146951 -4.814371,-5.530022 -1.268654,-3.252954 -16.167182,-45.346177 -16.167182,-45.346177 0,0 -0.585531,-1.886715 0.227706,-5.107138 0.813239,-3.220427 4.554135,-4.32643 4.554135,-4.32643 l 12.393755,-4.293899 c 0,0 5.920377,-1.626477 9.010684,4.91196 1.008415,2.667424 6.017964,16.980421 6.017964,16.980421"
     id="vs1"
     sodipodi:nodetypes="ccsccsccccscccc"
     inkscape:label="vs1"
     sodipodi:insensitive="true" /><path
     style="fill:none;stroke:none;stroke-width:5.6;stroke-linejoin:round;stroke-dasharray:none;stroke-opacity:1"
     d="m 135.77544,144.12342 -79.518462,-0.13011 c 0,0 -8.181181,-0.63433 -8.604064,-8.539 -0.422884,-7.90467 8.52274,-10.2956 10.50704,-11.38534 1.854184,-1.13853 15.581651,-8.45767 15.581651,-8.45767 0,0 4.506144,-2.90775 2.862599,-8.26251 -1.648522,-5.37098 -6.40832,-7.05891 -6.40832,-7.05891 L 54.516647,92.255076 c 0,0 -3.903546,-2.146951 -4.814371,-5.530022 C 48.433622,83.4721 33.535094,41.378877 33.535094,41.378877 c 0,0 -0.585531,-1.886715 0.227706,-5.107138 0.813239,-3.220427 4.554135,-4.32643 4.554135,-4.32643 L 50.71069,27.65141 c 0,0 5.920377,-1.626477 9.010684,4.91196 1.008415,2.667424 6.017964,16.980421 6.017964,16.980421"
     id="s1"
     sodipodi:nodetypes="ccsccsccccscccc"
     inkscape:label="s1"
     sodipodi:insensitive="true" /><path
     style="fill:none;stroke:#00ff00;stroke-width:1.6;stroke-linejoin:round;stroke-dasharray:none;stroke-opacity:1"
     d="m 65.737437,49.531974 4.257218,11.836984 c 0,0 1.748142,4.002323 5.382434,2.898235 3.634293,-1.10409 3.611293,-4.209341 3.611293,-4.209341 l 4.677595,-39.954597 c 0,0 1.106003,-6.993851 8.099854,-6.603496 6.993852,0.390354 7.807089,4.033663 7.807089,4.033663 0,0 0.84577,2.11442 0.78071,3.220424 -0.0651,1.106005 0.74818,8.197444 5.98543,15.646708 5.66015,6.017967 7.96974,8.327562 8.55527,8.685387 0.55301,0.357825 5.07461,3.383074 4.03367,8.262504 -1.13854,4.879432 -5.39991,20.298433 -5.39991,20.298433 0,0 -0.8783,4.358958 1.7566,6.570967 2.63489,2.212009 8.36009,1.203592 8.36009,1.203592 0,0 7.41674,-0.878297 15.84189,-7.221556 8.42515,-6.343261 12.13351,-11.482929 15.22382,-18.47678 3.09031,-6.99385 8.44955,-20.989684 8.44955,-20.989684"
     id="vs2"
     inkscape:label="vs2"
     sodipodi:nodetypes="ccsccsccccccscssc"
     sodipodi:insensitive="true" /><path
     style="fill:none;stroke:none;stroke-width:5.6;stroke-linejoin:round;stroke-dasharray:none;stroke-opacity:1"
     d="m 65.737198,49.531152 4.25722,11.836984 c 0,0 1.74814,4.002323 5.38243,2.898235 3.6343,-1.10409 3.6113,-4.209341 3.6113,-4.209341 l 4.67759,-39.954597 c 0,0 1.106,-6.993851 8.09985,-6.603496 6.99386,0.390354 7.80709,4.033663 7.80709,4.033663 0,0 0.845772,2.11442 0.780712,3.220424 -0.0651,1.106005 0.74818,8.197444 5.98543,15.646708 5.66015,6.017967 7.96974,8.327562 8.55527,8.685387 0.55301,0.357825 5.07461,3.383074 4.03367,8.262504 -1.13854,4.879432 -5.39991,20.298433 -5.39991,20.298433 0,0 -0.8783,4.358958 1.7566,6.570967 2.63489,2.212009 8.36009,1.203592 8.36009,1.203592 0,0 7.41674,-0.878297 15.84189,-7.221556 8.42515,-6.343261 12.13351,-11.482929 15.22382,-18.47678 3.09031,-6.99385 8.44955,-20.989684 8.44955,-20.989684"
     id="s2"
     inkscape:label="s2"
     sodipodi:nodetypes="ccsccsccccccscssc"
     sodipodi:insensitive="true" /><path
     style="fill:none;stroke:#00ff00;stroke-width:1.6;stroke-linejoin:round;stroke-dasharray:none;stroke-opacity:1"
     d="m 163.15555,34.748374 2.96387,-7.813198 c 0,0 2.07017,-7.084572 11.50093,-7.153578 9.43076,-0.06901 15.34224,0 15.34224,0 0,0 5.17542,0.230018 7.59061,6.003485 3.08225,5.520446 9.36176,16.791357 9.36176,16.791357 0,0 1.61013,3.335269 0.18401,5.290426 -1.03508,1.909156 -1.10409,2.162175 -4.39335,6.210503 -3.28927,4.048326 -19.96561,24.657992 -19.96561,24.657992 0,0 -3.58829,3.726302 -0.25303,8.6717 3.33527,4.945398 27.62524,41.035319 27.62524,41.035319 0,0 3.7263,4.66937 2.09316,8.92472 -1.63313,4.25534 -5.0374,7.15357 -11.36291,6.69354 -3.35827,0.046 -68.08957,0.0609 -68.08957,0.0609"
     id="vs3"
     inkscape:label="vs3"
     sodipodi:nodetypes="ccsccccscscscc"
     sodipodi:insensitive="true" /><path
     style="fill:none;stroke:none;stroke-width:5.6;stroke-linejoin:round;stroke-dasharray:none;stroke-opacity:1"
     d="m 163.15864,34.74922 2.96387,-7.813198 c 0,0 2.07017,-7.084572 11.50093,-7.153578 9.43076,-0.06901 15.34224,0 15.34224,0 0,0 5.17542,0.230018 7.59061,6.003485 3.08225,5.520446 9.36176,16.791357 9.36176,16.791357 0,0 1.61013,3.335269 0.18401,5.290426 -1.03508,1.909156 -1.10409,2.162175 -4.39335,6.210503 -3.28927,4.048326 -19.96561,24.657992 -19.96561,24.657992 0,0 -3.58829,3.726302 -0.25303,8.6717 3.33527,4.945396 27.62524,41.035323 27.62524,41.035323 0,0 3.7263,4.66937 2.09316,8.92472 -1.63313,4.25534 -5.0374,7.15357 -11.36291,6.69354 -3.35827,0.046 -68.08957,0.0609 -68.08957,0.0609"
     id="s3"
     inkscape:label="s3"
     sodipodi:nodetypes="ccsccccscscscc"
     sodipodi:insensitive="true" /></svg>
