<?xml version="1.0" encoding="UTF-8" standalone="no"?>
<!-- Created with Inkscape (http://www.inkscape.org/) -->

<svg
   width="250mm"
   height="160mm"
   viewBox="0 0 250 160"
   version="1.1"
   id="svg1"
   inkscape:version="1.4.2 (f4327f4, 2025-05-13)"
   sodipodi:docname="melbourne.svg"
   xml:space="preserve"
   xmlns:inkscape="http://www.inkscape.org/namespaces/inkscape"
   xmlns:sodipodi="http://sodipodi.sourceforge.net/DTD/sodipodi-0.dtd"
   xmlns="http://www.w3.org/2000/svg"
   xmlns:svg="http://www.w3.org/2000/svg"><sodipodi:namedview
     id="namedview1"
     pagecolor="#505050"
     bordercolor="#eeeeee"
     borderopacity="1"
     inkscape:showpageshadow="0"
     inkscape:pageopacity="0"
     inkscape:pagecheckerboard="0"
     inkscape:deskcolor="#505050"
     inkscape:document-units="mm"
     inkscape:zoom="1.4378367"
     inkscape:cx="489.97219"
     inkscape:cy="304.97205"
     inkscape:window-width="1920"
     inkscape:window-height="1009"
     inkscape:window-x="-8"
     inkscape:window-y="-8"
     inkscape:window-maximized="1"
     inkscape:current-layer="svg1" /><defs
     id="defs1" /><path
     style="display:inline;fill:none;stroke:#00ff14;stroke-width:1.6;stroke-linejoin:round;stroke-dasharray:none;stroke-opacity:1"
     d="m 140.29991,122.14842 -36.53068,0.8783 c 0,0 -2.01084,0.34144 -2.40004,-2.10595 -0.24268,-1.45076 -3.75911,-9.92775 -13.341078,-8.6487 -5.797624,0.54136 -12.67797,0.69795 -13.111059,0.66705 -0.830857,-0.007 -15.127758,0.58898 -32.108179,-4.35552 -2.146948,-0.52047 -5.039823,-1.41794 -5.039823,-1.41794 0,0 -3.496281,-1.40311 -1.081088,-4.50837 2.277184,-3.03624 5.336432,-7.590608 5.336432,-7.590608 0,0 1.377519,-2.171705 -1.039707,-3.848725 -1.59829,-1.046924 -12.117356,-11.125485 -12.117356,-11.125485 0,0 -2.806226,-2.34619 -1.955157,-5.934479 0.598049,-3.381275 1.421688,-9.83527 1.472118,-10.557854 0.125694,-0.9066 0.648321,-4.835525 3.64104,-10.4794 0.927092,-1.951773 2.927657,-6.554703 3.139101,-7.7095"
     id="vs1"
     sodipodi:nodetypes="ccccccccccccccc"
     inkscape:label="vs1" /><path
     style="display:inline;fill:none;stroke:none;stroke-width:5.6;stroke-linejoin:round;stroke-dasharray:none;stroke-opacity:1"
     d="m 140.27816,122.15388 -36.53068,0.8783 c 0,0 -2.01084,0.34144 -2.40004,-2.10595 -0.24268,-1.45076 -3.759105,-9.92775 -13.341073,-8.6487 -5.797624,0.54136 -12.67797,0.69795 -13.111059,0.66705 -0.830857,-0.007 -15.127758,0.58898 -32.108179,-4.35552 -2.146948,-0.52047 -5.039823,-1.41794 -5.039823,-1.41794 0,0 -3.496281,-1.40311 -1.081088,-4.50837 2.277184,-3.036237 5.336432,-7.590605 5.336432,-7.590605 0,0 1.377519,-2.171705 -1.039707,-3.848725 -1.59829,-1.046924 -12.117356,-11.125485 -12.117356,-11.125485 0,0 -2.806226,-2.34619 -1.955157,-5.934479 0.598049,-3.381275 1.421688,-9.83527 1.472118,-10.557854 0.125694,-0.9066 0.648321,-4.835525 3.64104,-10.4794 0.927092,-1.951773 2.927657,-6.554703 3.139101,-7.7095"
     id="s1"
     sodipodi:nodetypes="ccccccccccccccc"
     inkscape:label="s1" /><path
     style="display:inline;fill:none;stroke:#00ff14;stroke-width:1.6;stroke-linejoin:round;stroke-dasharray:none;stroke-opacity:1"
     d="m 35.091309,45.512784 c 0,0 1.803672,-6.455628 1.734666,-7.007673 0.02299,-0.39103 0.207018,-2.208178 2.576208,-1.725139 2.369193,0.483039 8.758127,-2.221654 9.200743,-2.829229 1.13662,-0.730478 6.749221,-8.603829 16.147306,-7.682621 8.910288,0.873393 16.980953,7.391491 16.980953,7.391491 0,0 10.625783,7.648621 13.450506,15.380349 3.980019,10.893962 5.566449,15.135222 13.203069,22.817844 1.93215,1.564126 13.10317,11.806691 30.72259,8.448419 M 71.603809,28.844034"
     id="vs2"
     inkscape:label="vs2"
     sodipodi:nodetypes="ccscscscc" /><path
     style="display:inline;fill:none;stroke:none;stroke-width:5.6;stroke-linejoin:round;stroke-dasharray:none;stroke-opacity:1"
     d="m 35.091449,45.51489 c 0,0 1.803672,-6.455628 1.734666,-7.007673 0.02299,-0.39103 0.207018,-2.208178 2.576208,-1.725139 2.369193,0.483039 8.758127,-2.221654 9.200743,-2.829229 1.13662,-0.730478 6.749221,-8.603829 16.147306,-7.682621 8.910288,0.873393 16.980953,7.391491 16.980953,7.391491 0,0 10.625783,7.648621 13.450506,15.380349 3.980019,10.893962 5.566449,15.135222 13.203079,22.817844 1.93215,1.564126 13.10317,11.806691 30.72259,8.448419 M 71.603949,28.84614"
     id="s2"
     inkscape:label="s2"
     sodipodi:nodetypes="ccscscscc" /><path
     style="display:inline;fill:none;stroke:#00ff14;stroke-width:1.6;stroke-linejoin:round;stroke-dasharray:none;stroke-opacity:1"
     d="m 139.03126,80.282906 8.78297,-0.84577 c 0,0 3.37494,0.0488 5.62761,-3.871015 2.56983,-3.383071 3.44813,-4.716783 3.44813,-4.716783 0,0 0.91083,-2.11442 4.2939,-1.984301 3.38307,-0.130119 19.19243,-1.756595 19.19243,-1.756595 0,0 7.77456,-1.301181 15.1913,2.732482 7.61191,3.903543 25.21039,13.239522 25.21039,13.239522 0,0 1.21986,0.740045 2.60236,1.984301 -0.41475,-0.227706 1.4313,0.422884 -0.26023,3.350543 -1.69154,2.92766 -5.92038,9.466096 -5.82279,9.758863 -0.3253,0.553003 -3.34667,6.917517 -3.91981,7.839617 -0.35782,0.3253 -2.69995,4.81438 -9.56368,2.47225 -4.52161,-1.13854 -15.33768,-3.54572 -15.33768,-3.54572 0,0 -2.60237,-0.8783 -1.88672,3.0903 0.3253,3.83849 0.48794,7.35168 0.48794,7.35168 0,0 0.3741,5.98543 -7.44926,5.79026 -6.53844,0.13012 -39.39327,0.97588 -39.39327,0.97588"
     id="vs3"
     sodipodi:nodetypes="cccccccccscccccccc"
     inkscape:label="vs3" /><path
     style="display:inline;fill:none;stroke:none;stroke-width:5.6;stroke-linejoin:round;stroke-dasharray:none;stroke-opacity:1"
     d="m 139.03325,80.281719 8.78297,-0.84577 c 0,0 3.37494,0.0488 5.62761,-3.871015 2.56983,-3.383071 3.44813,-4.716783 3.44813,-4.716783 0,0 0.91083,-2.11442 4.2939,-1.984301 3.38307,-0.130119 19.19243,-1.756595 19.19243,-1.756595 0,0 7.77456,-1.301181 15.1913,2.732482 7.61191,3.903543 25.21039,13.239522 25.21039,13.239522 0,0 1.21986,0.740045 2.60236,1.984301 -0.41475,-0.227706 1.4313,0.422884 -0.26023,3.350543 -1.69154,2.92766 -5.92038,9.466096 -5.82279,9.758863 -0.3253,0.553003 -3.34667,6.917514 -3.91981,7.839614 -0.35782,0.3253 -2.69995,4.81438 -9.56368,2.47225 -4.52161,-1.13854 -15.33768,-3.54572 -15.33768,-3.54572 0,0 -2.60237,-0.8783 -1.88672,3.0903 0.3253,3.83849 0.48794,7.35168 0.48794,7.35168 0,0 0.3741,5.98543 -7.44926,5.79026 -6.53844,0.13012 -39.39327,0.97588 -39.39327,0.97588"
     id="s3"
     sodipodi:nodetypes="cccccccccscccccccc"
     inkscape:label="s3" /></svg>
