<?xml version="1.0" encoding="UTF-8" standalone="no"?>
<!-- Created with Inkscape (http://www.inkscape.org/) -->

<svg
   width="250mm"
   height="160mm"
   viewBox="0 0 250 160"
   version="1.1"
   id="svg1"
   xml:space="preserve"
   inkscape:version="1.4.2 (f4327f4, 2025-05-13)"
   sodipodi:docname="mexico_city.svg"
   xmlns:inkscape="http://www.inkscape.org/namespaces/inkscape"
   xmlns:sodipodi="http://sodipodi.sourceforge.net/DTD/sodipodi-0.dtd"
   xmlns="http://www.w3.org/2000/svg"
   xmlns:svg="http://www.w3.org/2000/svg"><sodipodi:namedview
     id="namedview1"
     pagecolor="#505050"
     bordercolor="#eeeeee"
     borderopacity="1"
     inkscape:showpageshadow="0"
     inkscape:pageopacity="0"
     inkscape:pagecheckerboard="0"
     inkscape:deskcolor="#505050"
     inkscape:document-units="mm"
     inkscape:zoom="1.4378367"
     inkscape:cx="188.82534"
     inkscape:cy="190.21632"
     inkscape:window-width="1920"
     inkscape:window-height="1009"
     inkscape:window-x="-8"
     inkscape:window-y="-8"
     inkscape:window-maximized="1"
     inkscape:current-layer="svg1" /><defs
     id="defs1" /><path
     style="display:inline;fill:none;stroke:#00ff14;stroke-width:1.6;stroke-linejoin:round;stroke-dasharray:none"
     d="m 49.384989,22.173791 59.719091,0.271592 5.07461,-0.03253 c 0,0 1.26865,0.06506 5.98543,-0.227707 4.78184,-0.227706 27.1947,-0.943356 32.33436,-0.845768 5.07461,-0.06506 54.71469,0.195177 54.71469,0.195177 0,0 1.78172,-0.05082 5.69203,0.593233 2.53021,0.230019 3.35827,0.36803 3.35827,0.36803 0,0 2.57621,-0.184015 2.16218,3.542286 0,3.634295 -0.18402,7.222584 -0.18402,7.222584 0,0 -0.23001,1.840148 3.03625,2.806227 3.26626,0.966078 4.48536,0.483039 4.09433,4.462359 -0.20701,3.933319 0.13801,11.224908 -4.32435,20.701674 -3.86431,9.292749 -21.2105,49.151022 -21.2105,49.151022 M 146.9207,22.804888"
     id="vs1"
     sodipodi:nodetypes="ccccccccccsccc"
     sodipodi:insensitive="true"
     inkscape:label="vs1" /><path
     style="display:inline;fill:none;stroke:none;stroke-width:5.6;stroke-linejoin:round;stroke-dasharray:none;stroke-opacity:1"
     d="m 49.387016,22.162807 59.719094,0.271592 5.07461,-0.03253 c 0,0 1.26865,0.06506 5.98543,-0.227707 4.78184,-0.227706 27.1947,-0.943356 32.33436,-0.845768 5.07461,-0.06506 54.71469,0.195177 54.71469,0.195177 0,0 1.78172,-0.05082 5.69203,0.593233 2.53021,0.230019 3.35827,0.36803 3.35827,0.36803 0,0 2.57621,-0.184015 2.16218,3.542286 0,3.634295 -0.18402,7.222584 -0.18402,7.222584 0,0 -0.23001,1.840148 3.03625,2.806227 3.26626,0.966078 4.48536,0.483039 4.09433,4.462359 -0.20701,3.933319 0.13801,11.224908 -4.32435,20.701674 -3.86431,9.292749 -21.2105,49.151016 -21.2105,49.151016 M 146.92273,22.793904"
     id="s1"
     sodipodi:nodetypes="ccccccccccsccc"
     inkscape:label="s1"
     sodipodi:insensitive="true" /><path
     style="display:inline;fill:none;stroke:#00ff14;stroke-width:1.6;stroke-linejoin:round;stroke-dasharray:none;stroke-opacity:1"
     d="m 199.86315,110.38592 -7.10758,14.67519 c 0,0 -1.2881,2.39219 1.40312,3.17425 2.4842,1.10409 5.47444,2.39219 5.47444,2.39219 0,0 3.10525,1.63314 0.13801,3.77231 -2.5532,2.25418 -10.16682,9.63778 -10.16682,9.63778 0,0 -1.38011,1.70213 -3.17426,0.43703 -1.79414,-1.2651 -2.07016,-1.38011 -2.04716,-3.10525 0.023,-1.72514 -0.23002,-39.83922 -0.23002,-39.83922 0,0 0.23002,-2.898231 -3.86431,-4.140331 -4.09433,-1.242099 -9.15474,-3.634295 -11.77696,-9.706784 -2.62221,-6.072492 -11.96096,-6.256507 -13.38708,-6.026489 -1.70213,0 -14.95121,-0.138009 -14.95121,-0.138009 0,0 -2.94423,0.460036 -4.87639,-4.278347 -1.15009,-3.036244 -2.02416,-5.290426 -2.02416,-5.290426 0,0 -0.87407,-2.34619 -5.93448,-4.094331 -5.01441,-1.748142 -14.30716,-5.244423 -14.30716,-5.244423 0,0 -3.26626,-1.748142 -12.55901,-1.702139 -8.970727,-0.046 -17.021376,-0.184015 -17.021376,-0.184015"
     id="vs2"
     inkscape:label="vs2"
     sodipodi:insensitive="true" /><path
     style="display:inline;fill:none;stroke:none;stroke-width:5.6;stroke-linejoin:round;stroke-dasharray:none;stroke-opacity:1"
     d="m 199.86277,110.3851 -7.10758,14.67519 c 0,0 -1.2881,2.39219 1.40312,3.17425 2.4842,1.10409 5.47444,2.39219 5.47444,2.39219 0,0 3.10525,1.63314 0.13801,3.77231 -2.5532,2.25418 -10.16682,9.63778 -10.16682,9.63778 0,0 -1.38011,1.70213 -3.17426,0.43703 -1.79414,-1.2651 -2.07016,-1.38011 -2.04716,-3.10525 0.023,-1.72514 -0.23002,-39.83923 -0.23002,-39.83923 0,0 0.23002,-2.898226 -3.86431,-4.140326 -4.09433,-1.242099 -9.15474,-3.634295 -11.77696,-9.706784 -2.62221,-6.072492 -11.96096,-6.256507 -13.38708,-6.026489 -1.70213,0 -14.95121,-0.138009 -14.95121,-0.138009 0,0 -2.94423,0.460036 -4.87639,-4.278347 -1.15009,-3.036244 -2.02416,-5.290426 -2.02416,-5.290426 0,0 -0.87407,-2.34619 -5.93448,-4.094331 -5.01441,-1.748142 -14.30716,-5.244423 -14.30716,-5.244423 0,0 -3.26626,-1.748142 -12.55901,-1.702139 -8.970724,-0.046 -17.021373,-0.184015 -17.021373,-0.184015"
     id="s2"
     inkscape:label="s2"
     sodipodi:insensitive="true" /><path
     style="display:inline;fill:none;stroke:#00ff14;stroke-width:1.6;stroke-linejoin:round;stroke-dasharray:none;stroke-opacity:1"
     d="M 83.568388,60.765181 58.292936,60.570003 c 0,0 -3.187896,0.520473 -3.773427,-2.960187 -0.585531,-3.48066 -4.127678,-18.158663 -4.619194,-19.062311 -0.447522,-0.822765 -2.212688,-2.835652 -4.326429,-0.09759 -1.047205,1.626479 -2.439715,5.75773 -6.278203,3.805957 -2.179478,-1.040945 -4.261368,-0.845769 -4.261368,-0.845769 l -7.189028,0.06506 c 0,0 -3.54572,-0.422886 -2.309598,-4.32643 1.236122,-3.903546 1.528889,-4.846902 1.528889,-4.846902 0,0 0.650589,-3.090307 4.32643,-6.180612 3.675837,-3.090307 4.944488,-3.740897 8.782973,-3.936075 3.838488,-0.195177 9.303451,-0.03253 9.303451,-0.03253"
     id="vs3"
     inkscape:label="vs3"
     sodipodi:nodetypes="ccssccccscssc"
     sodipodi:insensitive="true" /><path
     style="display:inline;fill:none;stroke:none;stroke-width:5.6;stroke-linejoin:round;stroke-dasharray:none;stroke-opacity:1"
     d="M 83.565517,60.760944 58.290069,60.565766 c 0,0 -3.187896,0.520473 -3.773427,-2.960187 -0.585531,-3.48066 -4.127678,-18.158663 -4.619194,-19.062311 -0.447522,-0.822765 -2.212688,-2.835652 -4.326429,-0.09759 -1.047205,1.626479 -2.439715,5.75773 -6.278203,3.805957 -2.179478,-1.040945 -4.261368,-0.845769 -4.261368,-0.845769 l -7.189028,0.06506 c 0,0 -3.54572,-0.422886 -2.309598,-4.32643 1.236122,-3.903546 1.528889,-4.846902 1.528889,-4.846902 0,0 0.650589,-3.090307 4.32643,-6.180612 3.675837,-3.090307 4.944488,-3.740897 8.782973,-3.936075 3.838488,-0.195177 9.303451,-0.03253 9.303451,-0.03253"
     id="s3"
     inkscape:label="s3"
     sodipodi:nodetypes="ccssccccscssc"
     sodipodi:insensitive="true" /></svg>
