<?xml version="1.0" encoding="UTF-8" standalone="no"?>
<!-- Created with Inkscape (http://www.inkscape.org/) -->

<svg
   width="250mm"
   height="160mm"
   viewBox="0 0 250 160"
   version="1.1"
   id="svg1"
   xml:space="preserve"
   inkscape:version="1.4.2 (f4327f4, 2025-05-13)"
   sodipodi:docname="miami.svg"
   xmlns:inkscape="http://www.inkscape.org/namespaces/inkscape"
   xmlns:sodipodi="http://sodipodi.sourceforge.net/DTD/sodipodi-0.dtd"
   xmlns="http://www.w3.org/2000/svg"
   xmlns:svg="http://www.w3.org/2000/svg"><sodipodi:namedview
     id="namedview1"
     pagecolor="#505050"
     bordercolor="#eeeeee"
     borderopacity="1"
     inkscape:showpageshadow="0"
     inkscape:pageopacity="0"
     inkscape:pagecheckerboard="0"
     inkscape:deskcolor="#505050"
     inkscape:document-units="mm"
     inkscape:zoom="1"
     inkscape:cx="515.5"
     inkscape:cy="322.5"
     inkscape:window-width="1920"
     inkscape:window-height="1009"
     inkscape:window-x="-8"
     inkscape:window-y="-8"
     inkscape:window-maximized="1"
     inkscape:current-layer="svg1"
     showguides="false" /><defs
     id="defs1" /><path
     style="fill:none;stroke:#00ff00;stroke-width:1.6;stroke-linejoin:round;stroke-dasharray:none;stroke-opacity:1"
     d="m 123.51907,61.044335 28.06952,16.503917 c 0,0 5.42557,3.274052 0.0468,7.249687 -3.60146,2.011203 -7.0626,3.695001 -6.54811,9.30766 0.56127,5.565889 -0.60804,8.652851 -4.67722,11.599501 -4.06917,2.47892 -7.90449,4.63044 -17.07184,4.67721 -9.16734,0.0468 -19.41044,-7.01582 -19.41044,-7.01582 L 82.225469,90.597687 c 0,0 -5.337296,-3.190882 -12.06722,0.18709 -3.270726,2.048975 -6.454558,4.115951 -6.454558,4.115951 0,0 -6.641647,3.320822 -11.318864,-1.262851 -4.677217,-4.583671 -6.648365,-7.18985 -11.973676,-6.922281 -5.26588,0.264583 -8.784167,1.835466 -11.269742,3.523965 -1.96443,1.356392 -5.100515,4.240215 -4.586021,9.385154 0.514493,5.144935 3.04019,5.940065 7.76418,5.799745 2.952322,-0.0297 5.846519,-1.44993 12.11399,0.32741"
     id="vs1"
     inkscape:label="vs1"
     sodipodi:nodetypes="cccccsccccsscscc"
     sodipodi:insensitive="true" /><path
     style="fill:none;stroke:none;stroke-width:5.6;stroke-linejoin:round;stroke-dasharray:none;stroke-opacity:1"
     d="m 123.52023,61.044069 28.06952,16.503917 c 0,0 5.42557,3.274052 0.0468,7.249687 -3.60146,2.011203 -7.0626,3.695001 -6.54811,9.30766 0.56127,5.565889 -0.60804,8.652857 -4.67722,11.599507 -4.06917,2.47892 -7.90449,4.63044 -17.07184,4.67721 -9.16734,0.0468 -19.41045,-7.01582 -19.41045,-7.01582 L 82.226618,90.597421 c 0,0 -5.337296,-3.190882 -12.06722,0.18709 -3.270726,2.048975 -6.454558,4.115951 -6.454558,4.115951 0,0 -6.641647,3.320822 -11.318864,-1.262851 -4.677217,-4.583671 -6.648365,-7.18985 -11.973676,-6.922281 -5.26588,0.264583 -8.784167,1.835466 -11.269742,3.523965 -1.96443,1.356392 -5.100515,4.240215 -4.586021,9.385154 0.514493,5.144941 3.04019,5.940071 7.76418,5.799751 2.952322,-0.0297 5.846519,-1.44993 12.11399,0.32741"
     id="s1"
     inkscape:label="s1"
     sodipodi:nodetypes="cccccsccccsscscc"
     sodipodi:insensitive="true" /><path
     style="display:inline;fill:none;stroke:#00ff00;stroke-width:1.6;stroke-linejoin:round;stroke-dasharray:none;stroke-opacity:1"
     d="m 44.325389,105.71457 c 0,0 6.739194,2.83074 17.421746,3.1284 10.682552,0.29765 33.271353,-0.82683 36.942447,-0.66146 3.671098,0.16536 10.814848,2.3151 17.760158,6.11849 6.94531,3.80338 20.10833,4.03489 26.06146,3.50573 5.95312,-0.52917 13.55989,-1.19063 23.18411,-5.29167 9.42578,-3.24114 23.64714,-8.46667 23.64714,-8.46667 0,0 7.10065,-3.01951 10.70211,-4.656535 3.60145,-1.637027 16.04285,-8.091585 16.04285,-8.091585 0,0 1.44994,-0.982216 2.19829,-2.104748 0.74836,-1.122531 0.0468,-1.96443 -1.44993,-3.040192 -1.49672,-1.075758 -1.94105,-1.309621 -3.85871,-2.338607 -1.91766,-1.028988 -5.3788,-3.648228 -3.99902,-8.044812 1.37978,-4.396584 4.81753,-4.279654 7.29646,-4.209497 2.47892,0.07016 7.62386,0.912058 10.03263,-2.782943 2.40877,-3.695001 2.94664,-4.677217 2.94664,-4.677217 0,0 1.00561,-1.637024 -1.07575,-2.361993 -2.08137,-0.724969 -1.42656,-2.408767 -1.02899,-3.835318 0.39756,-1.426552 1.82411,-7.249687 1.82411,-7.249687 0,0 0.35079,-2.291836 -1.73057,-2.38538 -2.08136,-0.09354 -10.87955,-0.478512 -10.87955,-0.478512"
     id="vs2"
     inkscape:label="vs2"
     sodipodi:nodetypes="cssssccscsssssscsscsc"
     sodipodi:insensitive="true" /><path
     style="display:inline;fill:none;stroke:none;stroke-width:5.6;stroke-linejoin:round;stroke-dasharray:none;stroke-opacity:1"
     d="m 44.327312,105.71604 c 0,0 6.739194,2.83074 17.421746,3.1284 10.682552,0.29765 33.271353,-0.82683 36.942447,-0.66146 3.671095,0.16536 10.814845,2.3151 17.760155,6.11849 6.94531,3.80338 20.10833,4.03489 26.06146,3.50573 5.95312,-0.52917 13.55989,-1.19063 23.18411,-5.29167 9.42578,-3.24114 23.64714,-8.46667 23.64714,-8.46667 0,0 7.10065,-3.01951 10.70211,-4.656533 3.60145,-1.637027 16.04285,-8.091585 16.04285,-8.091585 0,0 1.44994,-0.982216 2.19829,-2.104748 0.74836,-1.122531 0.0468,-1.96443 -1.44993,-3.040192 -1.49672,-1.075758 -1.94105,-1.309621 -3.85871,-2.338607 -1.91766,-1.028988 -5.3788,-3.648228 -3.99902,-8.044812 1.37978,-4.396584 4.81753,-4.279654 7.29646,-4.209497 2.47892,0.07016 7.62386,0.912058 10.03263,-2.782943 2.40877,-3.695001 2.94664,-4.677217 2.94664,-4.677217 0,0 1.00561,-1.637024 -1.07575,-2.361993 -2.08137,-0.724969 -1.42656,-2.408767 -1.02899,-3.835318 0.39756,-1.426552 1.82411,-7.249687 1.82411,-7.249687 0,0 0.35079,-2.291836 -1.73057,-2.38538 -2.08136,-0.09354 -10.87955,-0.478512 -10.87955,-0.478512"
     id="s2"
     inkscape:label="s2"
     sodipodi:nodetypes="cssssccscsssssscsscsc"
     sodipodi:insensitive="true" /><path
     style="fill:none;stroke:#00ff00;stroke-width:1.6;stroke-linejoin:round;stroke-dasharray:none;stroke-opacity:1"
     d="M 216.37389,47.789462 51.215522,41.276436 c 0,0 -2.19829,0.140317 -2.525696,2.03459 -0.327406,1.894274 0.584652,2.50231 3.274052,4.443357 2.689399,1.941044 6.244084,4.209495 6.244084,4.209495 0,0 2.829716,1.987817 6.571488,1.683797 3.741775,-0.304019 5.472345,-0.420949 9.073801,-2.899875 3.601458,-2.478924 9.798769,-4.536901 16.346873,-4.583671 6.548102,-0.04677 8.582692,0.748353 12.932506,2.853103 3.60145,2.338607 20.4477,12.063083 20.4477,12.063083"
     id="vs3"
     inkscape:label="vs3"
     sodipodi:nodetypes="ccsscssscc"
     sodipodi:insensitive="true" /><path
     style="fill:none;stroke:none;stroke-width:5.6;stroke-linejoin:round;stroke-dasharray:none;stroke-opacity:1"
     d="M 216.37147,47.791314 51.213108,41.278288 c 0,0 -2.19829,0.140317 -2.525696,2.03459 -0.327406,1.894274 0.584652,2.50231 3.274052,4.443357 2.689399,1.941044 6.244084,4.209495 6.244084,4.209495 0,0 2.829716,1.987817 6.571488,1.683797 3.741775,-0.304019 5.472345,-0.420949 9.073801,-2.899875 3.601458,-2.478924 9.798769,-4.536901 16.346873,-4.583671 6.548102,-0.04677 8.582692,0.748353 12.9325,2.853103 3.60145,2.338607 20.4477,12.063083 20.4477,12.063083"
     id="s3"
     inkscape:label="s3"
     sodipodi:nodetypes="ccsscssscc"
     sodipodi:insensitive="true" /></svg>
