<?xml version="1.0" encoding="UTF-8" standalone="no"?>
<!-- Created with Inkscape (http://www.inkscape.org/) -->

<svg
   width="250mm"
   height="160mm"
   viewBox="0 0 250 160"
   version="1.1"
   id="svg1"
   xml:space="preserve"
   inkscape:version="1.4.2 (f4327f4, 2025-05-13)"
   sodipodi:docname="monte_carlo.svg"
   xmlns:inkscape="http://www.inkscape.org/namespaces/inkscape"
   xmlns:sodipodi="http://sodipodi.sourceforge.net/DTD/sodipodi-0.dtd"
   xmlns="http://www.w3.org/2000/svg"
   xmlns:svg="http://www.w3.org/2000/svg"><sodipodi:namedview
     id="namedview1"
     pagecolor="#505050"
     bordercolor="#eeeeee"
     borderopacity="1"
     inkscape:showpageshadow="0"
     inkscape:pageopacity="0"
     inkscape:pagecheckerboard="0"
     inkscape:deskcolor="#505050"
     inkscape:document-units="mm"
     inkscape:zoom="1.4378367"
     inkscape:cx="511.53236"
     inkscape:cy="380.78038"
     inkscape:window-width="1920"
     inkscape:window-height="1009"
     inkscape:window-x="-8"
     inkscape:window-y="-8"
     inkscape:window-maximized="1"
     inkscape:current-layer="svg1" /><defs
     id="defs1" /><path
     style="display:inline;fill:none;stroke:#00ff14;stroke-width:1.6;stroke-linejoin:round;stroke-dasharray:none;stroke-opacity:1"
     d="m 40.138244,72.800881 c 0,0 14.966796,-21.859621 29.54003,-27.454701 1.496359,-0.780711 2.212009,-1.301184 6.375791,-4.098724 0.65059,-0.520472 1.626478,-2.04936 3.871016,0.325297 1.203593,1.496358 12.133519,9.433566 12.133519,9.433566 0,0 0.975884,0.975886 7.937206,5.204727 2.797544,1.756595 12.263634,6.928791 20.200844,13.662407 2.6349,1.463829 10.34439,3.383071 15.61418,6.180611 5.00955,2.92766 10.96245,8.522741 16.36236,11.515459 2.79755,1.203593 18.44425,6.40832 20.36349,-12.296166 0.84577,-5.139667 -3.70837,-11.450399 11.84075,-12.751581 C 197.71454,60.570003 206.56258,59.464 206.56258,59.464"
     id="vs1"
     sodipodi:nodetypes="cccccccccccc"
     inkscape:label="vs1"
     sodipodi:insensitive="true" /><path
     style="fill:none;stroke:none;stroke-width:5.6;stroke-linejoin:round;stroke-dasharray:none;stroke-opacity:1"
     d="m 40.120857,72.824916 c 0,0 14.9668,-21.859621 29.54003,-27.454701 1.49636,-0.780711 2.21201,-1.301184 6.37579,-4.098724 0.65059,-0.520472 1.62648,-2.04936 3.87102,0.325297 1.20359,1.496358 12.13352,9.433566 12.13352,9.433566 0,0 0.97588,0.975886 7.9372,5.204727 2.797553,1.756595 12.263643,6.928791 20.200853,13.662407 2.6349,1.463829 10.34439,3.383071 15.61418,6.180611 5.00955,2.92766 10.96245,8.522741 16.36236,11.515459 2.79755,1.203593 18.44425,6.40832 20.36349,-12.296166 0.84577,-5.139667 -3.70837,-11.450399 11.84075,-12.751581 13.33711,-1.951773 22.18515,-3.057776 22.18515,-3.057776"
     id="s1"
     sodipodi:nodetypes="cccccccccccc"
     inkscape:label="s1"
     sodipodi:insensitive="true" /><path
     style="fill:none;stroke:#00ff14;stroke-width:1.6;stroke-linejoin:round;stroke-dasharray:none;stroke-opacity:1"
     d="m 206.53005,59.43147 5.56255,-0.68312 c 0,0 3.73802,-0.602531 4.19631,2.472245 0.41663,2.795227 -1.46383,5.172197 -1.46383,5.172197 0,0 -2.69763,1.576528 -3.02524,6.473378 -0.19518,1.4313 -0.39036,3.155365 -1.39877,4.977019 -0.52048,1.106005 -1.26866,2.992717 0.65059,3.871015 1.4313,0.09759 3.0903,-0.130117 2.83007,-2.79754 -0.0651,-1.561417 -0.0651,-2.634893 0.78071,-7.774559 0.29276,-1.073475 2.30959,-4.098724 5.56255,-1.659006 2.96018,1.789124 7.28662,3.57825 8.42515,4.619193 0.87829,0.910829 3.61078,1.984301 0.13012,5.204728 -3.38308,2.634892 -13.4347,11.385338 -13.4347,11.385338 0,0 -3.64331,4.2939 -23.74657,13.011812 -3.05778,1.20359 -9.75886,3.57825 -18.47678,0.45542 -7.1565,-2.47225 -20.88396,-6.961324 -20.88396,-6.961324 0,0 -7.67697,-1.821653 -19.84302,-10.734749 -3.51319,-2.667421 -8.76024,-6.55506 -8.76024,-6.55506 0,0 -0.92077,-1.215356 -2.4612,0.828067 -1.12709,1.495121 -3.08225,0.299024 -3.08225,0.299024 0,0 -2.16217,-1.012082 -2.32319,-3.312269 -0.16242,-2.320238 -0.62105,-1.932156 -1.49512,-2.599208 -0.87407,-0.667054 -30.477134,-23.792458 -30.477134,-23.792458 0,0 -0.972008,-1.373054 -5.24475,-0.01447 -4.311868,1.371025 -4.991402,1.725139 -4.991402,1.725139"
     id="vs2"
     sodipodi:nodetypes="ccscccccccccccccccscsscsc"
     inkscape:label="vs2"
     sodipodi:insensitive="true" /><path
     style="fill:none;stroke:none;stroke-width:5.6;stroke-linejoin:round;stroke-dasharray:none;stroke-opacity:1"
     d="m 206.53431,59.433744 5.56255,-0.68312 c 0,0 3.73802,-0.602531 4.19631,2.472245 0.41663,2.795227 -1.46383,5.172197 -1.46383,5.172197 0,0 -2.69763,1.576528 -3.02524,6.473378 -0.19518,1.4313 -0.39036,3.155365 -1.39877,4.977019 -0.52048,1.106005 -1.26866,2.992717 0.65059,3.871015 1.4313,0.09759 3.0903,-0.130117 2.83007,-2.79754 -0.0651,-1.561417 -0.0651,-2.634893 0.78071,-7.774559 0.29276,-1.073475 2.30959,-4.098724 5.56255,-1.659006 2.96018,1.789124 7.28662,3.57825 8.42515,4.619193 0.87829,0.910829 3.61078,1.984301 0.13012,5.204728 -3.38308,2.634892 -13.4347,11.385338 -13.4347,11.385338 0,0 -3.64331,4.2939 -23.74657,13.011808 -3.05778,1.2036 -9.75886,3.57826 -18.47678,0.45543 -7.1565,-2.47226 -20.88396,-6.96133 -20.88396,-6.96133 0,0 -7.67697,-1.821653 -19.84302,-10.734749 -3.51319,-2.667421 -8.76024,-6.55506 -8.76024,-6.55506 0,0 -0.92077,-1.215356 -2.4612,0.828067 -1.12709,1.495121 -3.08225,0.299024 -3.08225,0.299024 0,0 -2.16217,-1.012082 -2.32319,-3.312269 -0.16242,-2.320238 -0.62105,-1.932156 -1.49512,-2.599208 -0.87407,-0.667054 -30.477132,-23.792458 -30.477132,-23.792458 0,0 -0.972008,-1.373054 -5.24475,-0.01447 -4.311868,1.371025 -4.991402,1.725139 -4.991402,1.725139"
     id="s2"
     sodipodi:nodetypes="ccscccccccccccccccscsscsc"
     inkscape:label="s2"
     sodipodi:insensitive="true" /><path
     style="fill:none;stroke:#00ff14;stroke-width:1.6;stroke-linejoin:round;stroke-dasharray:none;stroke-opacity:1"
     d="m 73.698801,52.979121 c 0,0 -7.566245,2.321097 -14.462509,10.876367 -0.845767,1.36624 -2.114421,2.569834 -1.073473,5.952905 1.040945,3.383071 -4.001135,8.815507 -4.001135,8.815507 l -9.368507,12.979286 c 0,0 -0.910828,1.593948 -3.415601,0.03253 -2.504776,-1.561418 -3.122838,0.390355 -3.122838,0.390355 0,0 -7.754273,12.816399 -6.97221,19.762959 -0.04601,1.2421 0,4.04833 1.97816,8.83272 0.460037,1.10408 0.598049,2.43819 -0.138012,3.35827 -0.552045,0.82806 -1.012081,2.25418 -3.680298,0.69005 -2.806226,-1.42611 -9.016728,-5.29042 -9.982806,-8.51069 -0.046,-0.92007 1.334108,-2.02416 1.932156,-2.5762 0.598049,-0.55205 1.514854,-2.55716 1.840149,-5.10641 0.598048,-2.53021 0.36803,-5.24443 5.704461,-16.515339 5.842471,-10.488845 5.736992,-11.04089 11.211433,-19.183548"
     id="vs3"
     sodipodi:nodetypes="ccsccsccccccsccc"
     inkscape:label="vs3"
     sodipodi:insensitive="true" /><path
     style="fill:none;stroke:none;stroke-width:5.6;stroke-linejoin:round;stroke-dasharray:none;stroke-opacity:1"
     d="m 73.707162,52.983683 c 0,0 -7.56624,2.321097 -14.46251,10.876367 -0.84576,1.36624 -2.11442,2.569834 -1.07347,5.952905 1.04095,3.383071 -4.001135,8.815507 -4.001135,8.815507 L 44.80154,91.607748 c 0,0 -0.910828,1.593948 -3.415601,0.03253 -2.504776,-1.561418 -3.122838,0.390355 -3.122838,0.390355 0,0 -7.754273,12.816407 -6.97221,19.762967 -0.04601,1.2421 0,4.04832 1.97816,8.83271 0.460037,1.10408 0.598049,2.43819 -0.138012,3.35827 -0.552045,0.82806 -1.012081,2.25418 -3.680298,0.69005 -2.806226,-1.42611 -9.016728,-5.29042 -9.982806,-8.51069 -0.046,-0.92006 1.334108,-2.02415 1.932156,-2.57619 0.598049,-0.55205 1.514854,-2.55716 1.840149,-5.10641 0.598048,-2.53021 0.36803,-5.24443 5.704461,-16.515347 5.842471,-10.488845 5.736992,-11.04089 11.211433,-19.183548"
     id="s3"
     sodipodi:nodetypes="ccsccsccccccsccc"
     inkscape:label="s3"
     sodipodi:insensitive="true" /></svg>
