<?xml version="1.0" encoding="UTF-8" standalone="no"?>
<!-- Created with Inkscape (http://www.inkscape.org/) -->

<svg
   width="250mm"
   height="160mm"
   viewBox="0 0 250 160"
   version="1.1"
   id="svg1"
   xml:space="preserve"
   inkscape:version="1.4.2 (f4327f4, 2025-05-13)"
   sodipodi:docname="montreal.svg"
   xmlns:inkscape="http://www.inkscape.org/namespaces/inkscape"
   xmlns:sodipodi="http://sodipodi.sourceforge.net/DTD/sodipodi-0.dtd"
   xmlns="http://www.w3.org/2000/svg"
   xmlns:svg="http://www.w3.org/2000/svg"><sodipodi:namedview
     id="namedview1"
     pagecolor="#505050"
     bordercolor="#eeeeee"
     borderopacity="1"
     inkscape:showpageshadow="0"
     inkscape:pageopacity="0"
     inkscape:pagecheckerboard="0"
     inkscape:deskcolor="#505050"
     inkscape:document-units="mm"
     inkscape:zoom="2.0334082"
     inkscape:cx="509.24355"
     inkscape:cy="371.5437"
     inkscape:window-width="1920"
     inkscape:window-height="1009"
     inkscape:window-x="-8"
     inkscape:window-y="-8"
     inkscape:window-maximized="1"
     inkscape:current-layer="svg1" /><defs
     id="defs1" /><path
     style="display:inline;fill:none;stroke:#00ff00;stroke-width:1.6;stroke-linejoin:round;stroke-dasharray:none;stroke-opacity:1"
     d="m 195.12844,70.052363 c 0,0 11.47425,1.943452 23.75724,10.960182 0.87407,0.598048 2.18518,1.771142 3.97933,0.01151 1.73664,-1.748141 2.95573,-2.898235 2.95573,-2.898235 0,0 2.05867,-1.391613 3.50779,0.218517 0.69005,0.667054 2.80622,2.024165 0.48303,5.612455 -2.23117,3.036245 -2.43819,3.634293 -5.54344,6.762546 -3.10525,3.128251 -9.10874,7.659618 -16.83736,10.419842 -1.33411,0.59805 -5.52045,2.32319 -5.52045,2.32319 0,0 -1.33411,0.75906 -3.42728,-1.1961 -0.75906,-0.80507 -1.2881,-1.31111 -1.2881,-1.31111 0,0 -1.51812,-1.66763 -4.20934,-0.52904 -2.00116,0.66706 -11.1789,2.96724 -11.1789,2.96724 0,0 -2.96724,0.93158 -4.66938,2.4612 -0.48304,0.40253 -2.92124,1.88615 -6.92356,1.74814 -0.98908,-0.046 -4.25534,-0.046 -8.00465,-2.16217 -3.22026,-1.56413 -9.43076,-4.48537 -9.43076,-4.48537"
     id="vs1"
     inkscape:label="vs1"
     sodipodi:nodetypes="ccccccscccccccccc"
     sodipodi:insensitive="true" /><path
     style="fill:none;stroke:none;stroke-width:5.6;stroke-linejoin:round;stroke-dasharray:none;stroke-opacity:1"
     d="m 195.13167,70.053766 c 0,0 11.47425,1.943452 23.75724,10.960182 0.87407,0.598048 2.18518,1.771142 3.97933,0.01151 1.73664,-1.748141 2.95573,-2.898235 2.95573,-2.898235 0,0 2.05867,-1.391613 3.50779,0.218517 0.69005,0.667054 2.80622,2.024165 0.48303,5.612455 -2.23117,3.036245 -2.43819,3.634293 -5.54344,6.762546 -3.10525,3.128251 -9.10874,7.659614 -16.83736,10.419839 -1.33411,0.59805 -5.52045,2.32319 -5.52045,2.32319 0,0 -1.33411,0.75906 -3.42728,-1.1961 -0.75906,-0.80507 -1.2881,-1.31111 -1.2881,-1.31111 0,0 -1.51812,-1.667625 -4.20934,-0.52904 -2.00116,0.66706 -11.1789,2.96724 -11.1789,2.96724 0,0 -2.96724,0.93158 -4.66938,2.4612 -0.48304,0.40253 -2.92124,1.88615 -6.92356,1.74814 -0.98908,-0.046 -4.25534,-0.046 -8.00465,-2.16217 -3.22026,-1.56413 -9.43076,-4.48537 -9.43076,-4.48537"
     id="s1"
     inkscape:label="s1"
     sodipodi:nodetypes="ccccccscccccccccc"
     sodipodi:insensitive="true" /><path
     style="display:inline;fill:none;stroke:#00ff00;stroke-width:1.6;stroke-linejoin:round;stroke-dasharray:none;stroke-opacity:1"
     d="m 152.80035,100.96329 c 0,0 -2.89724,-1.399747 -3.11576,-1.42275 -0.17251,-0.046 -3.7723,-0.770562 -4.05982,3.18576 -0.13802,1.05809 -0.55205,3.54228 -2.80623,4.50836 -0.80507,0.41404 -3.15126,2.16218 -8.87872,0.69006 -1.56413,-0.43704 -7.75163,-2.30019 -9.75279,-3.19726 -2.02416,-0.73606 -7.84363,-2.92123 -7.84363,-2.92123 0,0 -14.39917,-6.302514 -16.745355,-8.280674 -1.2421,-0.805066 -6.348513,-3.772305 -12.490008,-9.315754 -1.886151,-1.564124 -7.797631,-6.578531 -7.797631,-6.578531 0,0 -1.311105,-0.851067 -0.230018,-2.622212 0.345027,-0.552045 2.185178,-3.519284 -1.679136,-7.521606 C 76.021141,66.199347 67.717471,59.275789 67.165426,58.884756 66.61338,58.493725 54.997442,49.476998 49.661013,47.084805 48.303902,46.417751 44.991636,44.761615 43.70353,44.232573"
     id="vs2"
     inkscape:label="vs2"
     sodipodi:nodetypes="ccccccccccccscc"
     sodipodi:insensitive="true" /><path
     style="fill:none;stroke:none;stroke-width:5.6;stroke-linejoin:round;stroke-dasharray:none;stroke-opacity:1"
     d="m 152.78632,100.95796 c 0,0 -2.88098,-1.391616 -3.0995,-1.414616 -0.17251,-0.046 -3.7723,-0.770563 -4.05982,3.185756 -0.13802,1.05809 -0.55205,3.54228 -2.80623,4.50836 -0.80507,0.41404 -3.15126,2.16218 -8.87872,0.69006 -1.56413,-0.43704 -7.75164,-2.30019 -9.7528,-3.19726 -2.02416,-0.73606 -7.84363,-2.92123 -7.84363,-2.92123 0,0 -14.39917,-6.302511 -16.745347,-8.280671 -1.242103,-0.805066 -6.348516,-3.772305 -12.490011,-9.315754 -1.886151,-1.564124 -7.797631,-6.578531 -7.797631,-6.578531 0,0 -1.311105,-0.851067 -0.230018,-2.622212 0.345027,-0.552045 2.185178,-3.519284 -1.679136,-7.521606 C 76.023366,66.20215 67.719696,59.278592 67.167651,58.887559 66.615605,58.496528 54.999667,49.479801 49.663238,47.087608 48.306127,46.420554 44.993861,44.764418 43.705755,44.235376"
     id="s2"
     inkscape:label="s2"
     sodipodi:insensitive="true" /><path
     style="fill:none;stroke:#00ff00;stroke-width:1.6;stroke-linejoin:round;stroke-dasharray:none;stroke-opacity:1"
     d="m 43.776721,44.261156 c 0,0 -4.28586,-2.037813 -10.531532,-3.111289 -2.602362,-0.487941 -9.238389,-2.016831 -9.238389,-2.016831 0,0 -2.277067,-0.553003 -1.756595,-2.634893 0.520473,-2.08189 4.456548,-1.106003 4.814373,-0.780708 0.487942,0.162647 3.968602,1.236122 4.651724,1.626478 0.748178,0.357822 4.586663,1.366239 8.164915,0.975884 3.545718,-0.227706 14.345525,-0.03253 23.323679,0.813239 2.537304,0.162647 11.547986,0.813239 11.547986,0.813239 0,0 1.203595,-0.162647 11.840752,2.342126 10.767279,2.439715 62.847066,13.955173 62.847066,13.955173 0,0 1.83793,0.08132 1.41504,2.016831 -0.42288,1.935509 0.95962,2.390921 2.48851,2.586099 1.49636,0.276502 41.82454,9.213787 41.82454,9.213787"
     id="vs3"
     inkscape:label="vs3"
     sodipodi:nodetypes="cccscccccccscc"
     sodipodi:insensitive="true" /><path
     style="fill:none;stroke:none;stroke-width:5.6;stroke-linejoin:round;stroke-dasharray:none;stroke-opacity:1"
     d="m 43.773069,44.260405 c 0,0 -4.28586,-2.037813 -10.531532,-3.111289 -2.602362,-0.487941 -9.23839,-2.016831 -9.23839,-2.016831 0,0 -2.277067,-0.553003 -1.756595,-2.634893 0.520473,-2.08189 4.456549,-1.106003 4.814374,-0.780708 0.487942,0.162647 3.968602,1.236122 4.651724,1.626478 0.748178,0.357822 4.586663,1.366239 8.164915,0.975884 3.545718,-0.227706 14.345525,-0.03253 23.323679,0.813239 2.537304,0.162647 11.547986,0.813239 11.547986,0.813239 0,0 1.203595,-0.162647 11.840752,2.342126 10.767279,2.439715 62.847058,13.955173 62.847058,13.955173 0,0 1.83793,0.08132 1.41504,2.016831 -0.42288,1.935509 0.95962,2.390921 2.48851,2.586099 1.49636,0.276502 41.82454,9.213787 41.82454,9.213787"
     id="s3"
     inkscape:label="s3"
     sodipodi:nodetypes="cccscccccccscc"
     sodipodi:insensitive="true" /></svg>
