<?xml version="1.0" encoding="UTF-8" standalone="no"?>
<!-- Created with Inkscape (http://www.inkscape.org/) -->

<svg
   width="250mm"
   height="160mm"
   viewBox="0 0 250 160"
   version="1.1"
   id="svg1"
   xml:space="preserve"
   inkscape:version="1.4.2 (f4327f4, 2025-05-13)"
   sodipodi:docname="monza.svg"
   xmlns:inkscape="http://www.inkscape.org/namespaces/inkscape"
   xmlns:sodipodi="http://sodipodi.sourceforge.net/DTD/sodipodi-0.dtd"
   xmlns="http://www.w3.org/2000/svg"
   xmlns:svg="http://www.w3.org/2000/svg"><sodipodi:namedview
     id="namedview1"
     pagecolor="#505050"
     bordercolor="#eeeeee"
     borderopacity="1"
     inkscape:showpageshadow="0"
     inkscape:pageopacity="0"
     inkscape:pagecheckerboard="0"
     inkscape:deskcolor="#505050"
     inkscape:document-units="mm"
     inkscape:zoom="1.0167041"
     inkscape:cx="688.00746"
     inkscape:cy="371.29781"
     inkscape:window-width="1920"
     inkscape:window-height="1009"
     inkscape:window-x="-8"
     inkscape:window-y="-8"
     inkscape:window-maximized="1"
     inkscape:current-layer="svg1" /><defs
     id="defs1" /><path
     style="fill:none;stroke:#00ff00;stroke-width:1.6;stroke-linejoin:round;stroke-dasharray:none"
     d="m 39.100508,69.93038 4.293899,26.617294 c 0,0 2.182351,16.595246 17.565949,23.356206 2.537307,1.04095 6.241151,2.41237 13.337112,2.47225 7.32146,0.0618 10.604632,0.52047 17.761129,-2.14695 2.407187,-0.84577 5.7252,-2.08189 5.7252,-2.08189 0,0 2.098154,-0.73192 1.935506,1.78912 -0.162647,2.52104 0.666857,1.93551 2.114417,2.00057 1.51263,0.0163 84.98737,0.80094 84.98737,0.80094 0,0 5.63546,-1e-5 9.66078,-0.41404"
     id="vs1"
     sodipodi:nodetypes="cccsccsccc"
     inkscape:label="vs1"
     sodipodi:insensitive="true" /><path
     style="fill:none;stroke:none;stroke-width:5.6;stroke-linejoin:round;stroke-dasharray:none;stroke-opacity:1"
     d="m 39.102606,69.928821 4.293899,26.617294 c 0,0 2.182351,16.595235 17.565949,23.356205 2.537307,1.04095 6.241151,2.41237 13.337112,2.47225 7.32146,0.0618 10.604632,0.52047 17.761133,-2.14695 2.40718,-0.84577 5.7252,-2.08189 5.7252,-2.08189 0,0 2.098155,-0.73192 1.935505,1.78912 -0.162645,2.52104 0.666856,1.93551 2.114416,2.00057 1.51263,0.0163 84.98737,0.80094 84.98737,0.80094 0,0 5.63546,-1e-5 9.66078,-0.41404"
     id="s1"
     sodipodi:nodetypes="cccsccsccc"
     inkscape:label="s1"
     sodipodi:insensitive="true" /><path
     style="display:inline;fill:none;stroke:#00ff00;stroke-width:1.6;stroke-linejoin:round;stroke-dasharray:none;stroke-opacity:1"
     d="m 39.103158,69.960153 -1.336361,-9.585327 c 0,0 -0.469284,-1.329055 -2.205924,-1.329055 -1.736641,0 -2.323187,-1.2421 -2.392193,-2.576209 -0.138012,-0.793564 -1.224672,-5.007829 -2.525853,-7.089722 -1.008417,-2.439715 -7.221558,-17.110537 -7.221558,-17.110537 0,0 -1.106005,-3.187894 0.943356,-6.148082 2.049361,-2.960189 6.896263,-2.960189 6.896263,-2.960189 l 17.826188,-3.285483 c 0,0 3.057777,-0.74818 4.456547,2.049361 1.724064,2.504775 15.256353,22.738148 15.256353,22.738148 0,0 4.456547,6.766144 9.986569,11.613046 5.172196,4.944489 30.594035,29.422968 30.594035,29.422968"
     id="vs2"
     inkscape:label="vs2"
     sodipodi:nodetypes="ccscccscccccc"
     sodipodi:insensitive="true" /><path
     style="display:inline;fill:none;stroke:none;stroke-width:5.6;stroke-linejoin:round;stroke-dasharray:none;stroke-opacity:1"
     d="m 39.101695,69.960435 -1.336361,-9.585327 c 0,0 -0.469284,-1.329055 -2.205924,-1.329055 -1.736641,0 -2.323187,-1.2421 -2.392193,-2.576209 -0.138012,-0.793564 -1.224672,-5.007829 -2.525853,-7.089722 -1.008417,-2.439715 -7.221558,-17.110537 -7.221558,-17.110537 0,0 -1.106005,-3.187894 0.943356,-6.148082 2.049361,-2.960189 6.896263,-2.960189 6.896263,-2.960189 l 17.826188,-3.285483 c 0,0 3.057777,-0.74818 4.456547,2.049361 1.724064,2.504775 15.256353,22.738148 15.256353,22.738148 0,0 4.456547,6.766144 9.986569,11.613046 5.172196,4.944489 30.594038,29.422968 30.594038,29.422968"
     id="s2"
     inkscape:label="s2"
     sodipodi:nodetypes="ccscccscccccc"
     sodipodi:insensitive="true" /><path
     style="display:inline;fill:none;stroke:#00ff00;stroke-width:1.6;stroke-linejoin:round;stroke-dasharray:none;stroke-opacity:1"
     d="m 109.36809,85.687674 5.23348,4.972153 c 0,0 1.659,2.732482 4.97702,1.12227 1.05721,-0.260236 5.25352,-1.349975 8.8155,1.496359 1.05721,0.845767 2.32587,2.130684 2.61863,2.553568 0.3253,0.325295 0.6018,1.154798 3.72463,1.268653 3.13911,0.113853 17.30493,0.611217 34.55633,0.841235 17.25139,0.230018 52.30622,1.10409 52.30622,1.10409 0,0 5.01441,0.552043 5.72746,6.969558 0.023,0.73606 0.76977,7.15471 -8.50115,12.26185 -1.00841,0.48794 -6.89626,3.4156 -18.11895,3.70836 -1.85418,0.0976 -4.2702,0.34284 -4.2702,0.34284"
     id="vs3"
     inkscape:label="vs3"
     sodipodi:nodetypes="ccccccsccccc"
     sodipodi:insensitive="true" /><path
     style="fill:none;stroke:none;stroke-width:5.6;stroke-linejoin:round;stroke-dasharray:none;stroke-opacity:1"
     d="m 109.3685,85.689209 5.23348,4.972153 c 0,0 1.659,2.732482 4.97702,1.12227 1.05721,-0.260236 5.25352,-1.349975 8.8155,1.496359 1.05721,0.845767 2.32587,2.130684 2.61863,2.553568 0.3253,0.325295 0.6018,1.154798 3.72463,1.268653 3.13911,0.113853 17.30493,0.611217 34.55634,0.841235 17.25139,0.230018 52.30622,1.10409 52.30622,1.10409 0,0 5.01441,0.552043 5.72746,6.969543 0.023,0.73606 0.76977,7.15471 -8.50115,12.26185 -1.00841,0.48795 -6.89626,3.41561 -18.11895,3.70836 -1.85418,0.0976 -4.24174,0.33878 -4.24174,0.33878"
     id="s3"
     inkscape:label="s3"
     sodipodi:nodetypes="ccccccsccccc"
     sodipodi:insensitive="true" /></svg>
