<?xml version="1.0" encoding="UTF-8" standalone="no"?>
<!-- Created with Inkscape (http://www.inkscape.org/) -->

<svg
   width="250mm"
   height="160mm"
   viewBox="0 0 250 160"
   version="1.1"
   id="svg1"
   xml:space="preserve"
   inkscape:version="1.4.2 (f4327f4, 2025-05-13)"
   sodipodi:docname="sakhir.svg"
   xmlns:inkscape="http://www.inkscape.org/namespaces/inkscape"
   xmlns:sodipodi="http://sodipodi.sourceforge.net/DTD/sodipodi-0.dtd"
   xmlns="http://www.w3.org/2000/svg"
   xmlns:svg="http://www.w3.org/2000/svg"><sodipodi:namedview
     id="namedview1"
     pagecolor="#505050"
     bordercolor="#eeeeee"
     borderopacity="1"
     inkscape:showpageshadow="0"
     inkscape:pageopacity="0"
     inkscape:pagecheckerboard="0"
     inkscape:deskcolor="#505050"
     inkscape:document-units="mm"
     inkscape:zoom="1.0167041"
     inkscape:cx="442.11487"
     inkscape:cy="325.07"
     inkscape:window-width="1920"
     inkscape:window-height="1009"
     inkscape:window-x="-8"
     inkscape:window-y="-8"
     inkscape:window-maximized="1"
     inkscape:current-layer="svg1" /><defs
     id="defs1" /><path
     style="display:inline;fill:none;stroke:#00ff14;stroke-width:1.6;stroke-linejoin:round;stroke-dasharray:none;stroke-opacity:1"
     d="m 141.36942,49.845028 5.88848,-13.663104 c 0,0 3.61129,-7.245587 9.13173,-7.429602 1.28811,-0.023 4.39336,0.851071 7.68262,6.509528 2.07017,3.312266 8.5797,14.100139 8.5797,14.100139 l 9.8448,16.055297 34.89381,57.734664 c 0,0 1.62755,2.6148 -1.12709,4.16334 -2.73722,1.35711 -6.80181,3.44633 -6.80181,3.44633 0,0 -2.35504,1.4138 -8.83945,1.08503 -5.61245,-0.069 -48.02788,-0.20701 -48.02788,-0.20701"
     id="vs3"
     sodipodi:nodetypes="ccccccccccc"
     inkscape:label="vs3" /><path
     style="display:inline;fill:none;stroke:none;stroke-width:5.6;stroke-linejoin:round;stroke-dasharray:none;stroke-opacity:1"
     d="m 141.36624,49.8477 5.88848,-13.663104 c 0,0 3.61129,-7.245587 9.13173,-7.429602 1.28811,-0.023 4.39336,0.851071 7.68262,6.509528 2.07017,3.312266 8.5797,14.100139 8.5797,14.100139 l 9.8448,16.055297 34.89381,57.734662 c 0,0 1.62755,2.6148 -1.12709,4.16334 -2.73722,1.35711 -6.80181,3.44633 -6.80181,3.44633 0,0 -2.35504,1.4138 -8.83945,1.08503 -5.61245,-0.069 -48.02788,-0.20701 -48.02788,-0.20701"
     id="s3"
     sodipodi:nodetypes="ccccccccccc"
     inkscape:label="s3" /><path
     style="display:inline;fill:none;stroke:#00ff14;stroke-width:1.6;stroke-linejoin:round;stroke-dasharray:none;stroke-opacity:1"
     d="m 86.167284,40.938906 2.244539,1.902976 c 0,0 1.873915,1.626001 3.76063,2.292854 1.951773,0.634328 5.497491,2.016834 5.497491,2.016834 0,0 4.797436,1.642063 5.322536,6.531023 0.14638,1.366239 0.1968,1.352766 0.19517,3.301748 -0.16428,1.970828 -0.55579,4.320367 -0.55579,4.320367 0,0 -0.2793,3.199059 -0.16381,4.079667 0.13411,0.744233 -0.20191,1.956198 2.54288,5.309532 2.76203,3.041034 23.24332,17.475578 23.24332,17.475578 0,0 4.6526,3.782476 -2.07264,5.670346 -0.99773,0.374761 -5.09761,-0.230498 -5.5946,-0.268608 -0.89457,-0.09759 -37.961978,-4.521608 -37.961978,-4.521608 0,0 -5.806522,-0.862031 -9.79139,4.001135 -3.350543,4.619194 -4.63546,6.40832 -4.63546,6.40832 0,0 -1.040945,1.36624 1.252386,1.61021 2.24454,0.24397 12.784108,1.46383 12.784108,1.46383 0,0 6.392056,0.66686 12.865434,0.52047 3.008984,0 73.30532,0.35783 73.30532,0.35783 0,0 4.34269,-0.0163 5.38364,-4.944491 0.22771,-1.171064 0.47168,-4.602929 -0.40662,-7.286617 -0.58553,-2.000567 -2.02241,-5.753107 -3.6921,-7.725767 -1.26634,-1.620896 -3.47624,-3.619151 -6.6035,-5.351108 -1.82165,-0.943358 -3.91981,-2.11442 -10.76728,-4.066193 -1.41503,-0.553003 -5.17335,-1.762176 -8.21371,-5.38364 -2.31394,-3.006109 -4.01277,-6.48231 -4.37522,-11.385339 -0.0337,-0.829503 -0.40662,-2.813805 1.65901,-7.465529"
     id="vs2"
     sodipodi:nodetypes="ccccccccccccccccccccccccccc"
     inkscape:label="vs2" /><path
     style="display:inline;fill:none;stroke:none;stroke-width:5.6;stroke-linejoin:round;stroke-dasharray:none;stroke-opacity:1"
     d="m 86.156045,40.928508 2.244539,1.902976 c 0,0 1.873915,1.626001 3.760628,2.292854 1.95178,0.634328 5.49749,2.016834 5.49749,2.016834 0,0 4.797428,1.642063 5.322528,6.531023 0.14638,1.366239 0.1968,1.352766 0.19517,3.301748 -0.16428,1.970828 -0.55579,4.320367 -0.55579,4.320367 0,0 -0.2793,3.199059 -0.16381,4.079667 0.13411,0.744233 -0.20191,1.956198 2.54288,5.309532 2.76203,3.041034 23.24332,17.475578 23.24332,17.475578 0,0 4.6526,3.782476 -2.07264,5.670344 -0.99773,0.37476 -5.09761,-0.2305 -5.5946,-0.26861 -0.89457,-0.0976 -37.961967,-4.521604 -37.961967,-4.521604 0,0 -5.806522,-0.862031 -9.79139,4.001134 -3.350543,4.61919 -4.63546,6.40832 -4.63546,6.40832 0,0 -1.040945,1.366239 1.252386,1.610209 2.24454,0.24397 12.784108,1.46383 12.784108,1.46383 0,0 6.392056,0.66686 12.865435,0.52047 3.00898,0 73.305308,0.35783 73.305308,0.35783 0,0 4.34269,-0.0163 5.38364,-4.944489 0.22771,-1.17106 0.47168,-4.60293 -0.40662,-7.286617 -0.58553,-2.000567 -2.02241,-5.753107 -3.6921,-7.725767 -1.26634,-1.620896 -3.47624,-3.619151 -6.6035,-5.351108 -1.82165,-0.943358 -3.91981,-2.11442 -10.76728,-4.066193 -1.41503,-0.553003 -5.17335,-1.762176 -8.21371,-5.38364 -2.31394,-3.006109 -4.01277,-6.48231 -4.37522,-11.385339 -0.0337,-0.829503 -0.47168,-2.748746 1.59395,-7.40047"
     id="s2"
     sodipodi:nodetypes="ccccccccccccccccccccccccccc"
     inkscape:label="s2" /><path
     style="display:inline;fill:none;stroke:#00ff14;stroke-width:1.6;stroke-linejoin:round;stroke-dasharray:none;stroke-opacity:1"
     d="m 152.59607,131.61452 -106.721526,-0.3713 c 0,0 -1.514455,0.0874 -1.659006,-1.106 -0.05948,-1.49309 1.260759,-2.78407 1.260759,-2.78407 l 6.551912,-7.8633 c 0,0 0.864824,-1.31003 0.181702,-2.87145 -0.683122,-1.56142 -4.326427,-12.23111 -4.326427,-12.23111 0,0 -0.601319,-2.23377 0.09759,-6.961318 0.845767,-4.684252 11.352808,-74.850471 11.352808,-74.850471 0,0 0.620374,-2.333276 2.602365,-2.765011 1.663629,-0.549733 2.935154,-0.325295 3.903543,0.09759 1.724067,1.008415 2.108838,1.469411 4.846902,4.261369 2.564252,3.325905 5.432433,6.701085 5.432433,6.701085 0,0 2.374656,2.797542 2.79754,3.057779 0.357825,0.520472 7.286617,7.058908 7.286617,7.058908"
     id="vs1"
     sodipodi:nodetypes="cccccsccccccccc"
     inkscape:label="vs1" /><path
     style="display:inline;fill:none;stroke:none;stroke-width:5.6;stroke-linejoin:round;stroke-dasharray:none;stroke-opacity:1;fill-opacity:1"
     d="m 152.58415,131.60987 -106.721523,-0.3713 c 0,0 -1.514455,0.0874 -1.659006,-1.106 -0.05948,-1.49309 1.260759,-2.78407 1.260759,-2.78407 l 6.55191,-7.8633 c 0,0 0.86483,-1.31003 0.1817,-2.87145 -0.68312,-1.56142 -4.32642,-12.23111 -4.32642,-12.23111 0,0 -0.60132,-2.23377 0.0976,-6.961324 0.84576,-4.68425 11.35281,-74.850468 11.35281,-74.850468 0,0 0.62037,-2.333276 2.60236,-2.765011 1.66363,-0.549733 2.93515,-0.325295 3.90354,0.09759 1.72407,1.008415 2.10884,1.469411 4.84691,4.261369 2.56425,3.325905 5.43243,6.701085 5.43243,6.701085 0,0 2.37465,2.797542 2.79754,3.057779 0.35782,0.520472 7.28661,7.058908 7.28661,7.058908"
     id="s1"
     sodipodi:nodetypes="cccccsccccccccc"
     inkscape:label="s1" /></svg>
