<?xml version="1.0" encoding="UTF-8" standalone="no"?>
<!-- Created with Inkscape (http://www.inkscape.org/) -->

<svg
   width="250mm"
   height="160mm"
   viewBox="0 0 250 160"
   version="1.1"
   id="svg1"
   xml:space="preserve"
   inkscape:version="1.4.2 (f4327f4, 2025-05-13)"
   sodipodi:docname="silverstone.svg"
   xmlns:inkscape="http://www.inkscape.org/namespaces/inkscape"
   xmlns:sodipodi="http://sodipodi.sourceforge.net/DTD/sodipodi-0.dtd"
   xmlns="http://www.w3.org/2000/svg"
   xmlns:svg="http://www.w3.org/2000/svg"><sodipodi:namedview
     id="namedview1"
     pagecolor="#505050"
     bordercolor="#eeeeee"
     borderopacity="1"
     inkscape:showpageshadow="0"
     inkscape:pageopacity="0"
     inkscape:pagecheckerboard="0"
     inkscape:deskcolor="#505050"
     inkscape:document-units="mm"
     inkscape:zoom="1.4378367"
     inkscape:cx="229.16372"
     inkscape:cy="278.54345"
     inkscape:window-width="1920"
     inkscape:window-height="1009"
     inkscape:window-x="-8"
     inkscape:window-y="-8"
     inkscape:window-maximized="1"
     inkscape:current-layer="svg1"
     showguides="false" /><defs
     id="defs1" /><path
     style="display:inline;fill:none;stroke:#00ff00;stroke-width:1.6;stroke-linejoin:round;stroke-dasharray:none;stroke-opacity:1"
     d="M 89.667677,28.007934 119.65567,49.63801 c 0,0 4.9224,2.852232 3.35827,10.350836 -0.092,1.702139 -0.78534,5.28716 -1.1961,10.488848 -0.32202,2.944238 -0.10221,7.719774 2.89824,11.454926 2.80622,3.496281 13.89312,16.607343 13.89312,16.607343 0,0 3.20006,3.922507 -1.09057,5.082887 -4.04945,0.88715 -10.08416,3.49693 -10.08416,3.49693 0,0 -5.01347,2.45944 -0.11918,5.10629 4.68809,2.53533 9.52277,3.79531 17.94145,3.56529 1.10409,-0.11501 1.42611,-0.41404 3.7493,-2.73723 2.00116,-2.30018 41.0722,-48.01538 41.0722,-48.01538"
     id="vs1"
     inkscape:label="vs1"
     sodipodi:nodetypes="ccccccccsccc"
     sodipodi:insensitive="true" /><path
     style="fill:none;stroke:none;stroke-width:5.6;stroke-linejoin:round;stroke-dasharray:none;stroke-opacity:1"
     d="m 89.669243,28.008172 29.987987,21.630076 c 0,0 4.9224,2.852232 3.35827,10.350836 -0.092,1.702139 -0.78534,5.28716 -1.1961,10.488848 -0.32202,2.944238 -0.10221,7.719774 2.89824,11.454926 2.80622,3.496281 13.89312,16.607343 13.89312,16.607343 0,0 3.20006,3.922499 -1.09057,5.082889 -4.04945,0.88715 -10.08416,3.49693 -10.08416,3.49693 0,0 -5.01347,2.45944 -0.11918,5.10629 4.68809,2.53533 9.52277,3.79531 17.94145,3.56529 1.10409,-0.11501 1.42611,-0.41404 3.7493,-2.73723 2.00116,-2.30018 41.0722,-48.015382 41.0722,-48.015382"
     id="s1"
     inkscape:label="s1"
     sodipodi:nodetypes="ccccccccsccc"
     sodipodi:insensitive="true" /><path
     style="fill:none;stroke:#00ff00;stroke-width:1.6;stroke-linejoin:round;stroke-dasharray:none;stroke-opacity:1"
     d="m 190.07446,65.043794 4.9076,-5.774972 c 0,0 2.73248,-2.765012 1.36625,-7.286617 -1.36625,-4.521607 -2.50478,-4.456546 -6.86374,-4.749313 -4.35896,-0.292767 -4.78184,-0.292767 -5.23725,-0.487942 -0.55301,-0.16265 -5.62761,-1.268653 -5.26979,-6.083024 0.35783,-4.814372 5.13967,-7.384206 9.98657,-4.911961 4.94449,2.407185 12.10099,5.692669 12.10099,5.692669 0,0 9.1408,3.838485 13.04434,14.312998 1.36624,3.578249 1.11896,2.784099 1.74001,7.591486 0.50604,4.577371 4.85339,41.909382 4.85339,41.909382 0,0 0.98599,9.01978 -8.87046,11.91491 -4.91197,1.59394 -18.6069,6.00612 -27.22723,6.21314 -2.08747,-0.0214 -19.25749,1.36624 -19.25749,1.36624 0,0 -5.87206,0.58879 -9.20586,3.83848 -3.03142,2.95493 -6.44085,2.08189 -9.04321,1.10601 -2.60236,-0.97589 -5.26978,-1.82166 -5.26978,-1.82166 0,0 -8.32757,-3.7409 -13.76,1.69154 -5.43243,5.43243 -9.79139,4.13125 -12.68652,1.75659 -2.89513,-2.37465 -4.78184,-6.79867 -4.78184,-6.79867 0,0 -2.37466,-5.07461 -6.99385,-7.05891 -4.358962,-2.08189 -7.665838,-3.80624 -7.665838,-3.80624"
     id="vs2"
     inkscape:label="vs2"
     sodipodi:nodetypes="ccsscsccccccccsscssccc"
     sodipodi:insensitive="true" /><path
     style="fill:none;stroke:none;stroke-width:5.6;stroke-linejoin:round;stroke-dasharray:none;stroke-opacity:1"
     d="m 190.07441,65.044531 4.9076,-5.774972 c 0,0 2.73248,-2.765012 1.36625,-7.286617 -1.36625,-4.521607 -2.50478,-4.456546 -6.86374,-4.749313 -4.35896,-0.292767 -4.78184,-0.292767 -5.23725,-0.487942 -0.55301,-0.16265 -5.62761,-1.268653 -5.26979,-6.083024 0.35783,-4.814372 5.13967,-7.384206 9.98657,-4.911961 4.94449,2.407185 12.10099,5.692669 12.10099,5.692669 0,0 9.1408,3.838485 13.04434,14.312998 1.36624,3.578249 1.11896,2.784099 1.74001,7.591486 0.50604,4.577371 4.85339,41.909375 4.85339,41.909375 0,0 0.98599,9.01978 -8.87046,11.91491 -4.91197,1.59394 -18.6069,6.00612 -27.22723,6.21314 -2.08747,-0.0214 -19.25749,1.36624 -19.25749,1.36624 0,0 -5.87206,0.58879 -9.20586,3.83848 -3.03141,2.95493 -6.44084,2.08189 -9.0432,1.10601 -2.60236,-0.97589 -5.26978,-1.82166 -5.26978,-1.82166 0,0 -8.32757,-3.7409 -13.76,1.69154 -5.43243,5.43243 -9.79139,4.13125 -12.68652,1.75659 -2.89513,-2.37465 -4.78184,-6.79867 -4.78184,-6.79867 0,0 -2.37466,-5.07461 -6.99385,-7.05891 -4.358961,-2.08189 -7.665837,-3.80624 -7.665837,-3.80624"
     id="s2"
     inkscape:label="s2"
     sodipodi:nodetypes="ccsscsccccccccsscssccc"
     sodipodi:insensitive="true" /><path
     style="fill:none;stroke:#00ff00;stroke-width:1.6;stroke-linejoin:round;stroke-dasharray:none;stroke-opacity:1"
     d="M 95.962144,113.67041 47.297951,89.195999 c 0,0 -19.517723,-11.08444 -20.818906,-13.857584 -0.845767,-1.496359 -2.472244,-4.098721 -1.36624,-7.937209 0.780709,-2.407184 0.910827,-5.399902 6.570967,-7.67697 4.684254,-1.951773 10.539571,-6.115555 11.775694,-7.286617 1.366239,-1.171064 17.956307,-16.720184 17.956307,-16.720184 0,0 2.667421,-2.08189 -2.016831,-5.269786 -4.684255,-3.187893 1.756595,-7.611912 2.862598,-8.587798 1.106003,-0.975886 4.619873,-3.915384 10.149216,-4.554136 2.532681,-0.03022 5.269785,2.14695 5.269785,2.14695 l 12.003402,8.571533"
     id="vs3"
     inkscape:label="vs3"
     sodipodi:nodetypes="cccccccssccc"
     sodipodi:insensitive="true" /><path
     style="fill:none;stroke:none;stroke-width:5.6;stroke-linejoin:round;stroke-dasharray:none;stroke-opacity:1"
     d="M 95.963424,113.6707 47.29923,89.196292 c 0,0 -19.517723,-11.08444 -20.818906,-13.857584 -0.845767,-1.496359 -2.472244,-4.098721 -1.36624,-7.937209 0.780709,-2.407184 0.910827,-5.399902 6.570967,-7.67697 4.684254,-1.951773 10.539571,-6.115555 11.775694,-7.286617 1.366239,-1.171064 17.956307,-16.720184 17.956307,-16.720184 0,0 2.667421,-2.08189 -2.016831,-5.269786 -4.684255,-3.187893 1.756595,-7.611912 2.862598,-8.587798 1.106003,-0.975886 4.619873,-3.915384 10.149216,-4.554136 2.532681,-0.03022 5.269785,2.14695 5.269785,2.14695 l 12.003404,8.571533"
     id="s3"
     inkscape:label="s3"
     sodipodi:nodetypes="cccccccssccc"
     sodipodi:insensitive="true" /></svg>
