<?xml version="1.0" encoding="UTF-8" standalone="no"?>
<!-- Created with Inkscape (http://www.inkscape.org/) -->

<svg
   width="250mm"
   height="160mm"
   viewBox="0 0 250 160"
   version="1.1"
   id="svg1"
   xml:space="preserve"
   inkscape:version="1.4.2 (f4327f4, 2025-05-13)"
   sodipodi:docname="singapore.svg"
   xmlns:inkscape="http://www.inkscape.org/namespaces/inkscape"
   xmlns:sodipodi="http://sodipodi.sourceforge.net/DTD/sodipodi-0.dtd"
   xmlns="http://www.w3.org/2000/svg"
   xmlns:svg="http://www.w3.org/2000/svg"><sodipodi:namedview
     id="namedview1"
     pagecolor="#505050"
     bordercolor="#eeeeee"
     borderopacity="1"
     inkscape:showpageshadow="0"
     inkscape:pageopacity="0"
     inkscape:pagecheckerboard="0"
     inkscape:deskcolor="#505050"
     inkscape:document-units="mm"
     inkscape:zoom="2.0334082"
     inkscape:cx="643.99269"
     inkscape:cy="355.80658"
     inkscape:window-width="1920"
     inkscape:window-height="1009"
     inkscape:window-x="-8"
     inkscape:window-y="-8"
     inkscape:window-maximized="1"
     inkscape:current-layer="svg1"
     showguides="false" /><defs
     id="defs1" /><path
     style="display:inline;fill:none;stroke:#00ff00;stroke-width:1.6;stroke-linejoin:round;stroke-dasharray:none;stroke-opacity:1"
     d="m 206.14266,82.731934 c 0,0 -3.91032,-27.25145 -7.13058,-51.725429 -0.18402,-1.196097 -0.12651,-3.105251 -2.80623,-2.944239 -2.67971,0.161015 -6.46104,0.726377 -9.3887,-4.283172 -2.92766,-5.009549 -5.98543,-0.422884 -5.98543,2.569834 -0.0813,2.846335 -0.58554,4.407753 -0.61807,4.749313 -0.0651,0.422883 -0.26023,5.660138 1.62648,9.433565 1.88671,3.773427 5.26979,13.011817 5.36737,17.240657 0.47876,3.913072 0.48795,7.384206 0.48795,7.384206 0,0 0.54245,3.513191 -9.59622,3.773427 -8.39262,-0.487942 -42.97152,-2.699951 -42.97152,-2.699951 0,0 -5.23726,-0.487945 -11.97087,-4.814372 -6.73362,-4.033665 -13.76,-8.164914 -13.76,-8.164914"
     id="vs1"
     inkscape:label="vs1"
     sodipodi:nodetypes="ccssccscccccc"
     sodipodi:insensitive="true" /><path
     style="fill:none;stroke:none;stroke-width:5.6;stroke-linejoin:round;stroke-dasharray:none;stroke-opacity:1"
     d="m 206.14311,82.730959 c 0,0 -3.91032,-27.25145 -7.13058,-51.725429 -0.18402,-1.196097 -0.12651,-3.105251 -2.80623,-2.944239 -2.67971,0.161015 -6.46104,0.726377 -9.3887,-4.283172 -2.92766,-5.009549 -5.98543,-0.422884 -5.98543,2.569834 -0.0813,2.846335 -0.58554,4.407753 -0.61807,4.749313 -0.0651,0.422883 -0.26023,5.660138 1.62648,9.433565 1.88671,3.773427 5.26979,13.011817 5.36737,17.240657 0.47876,3.913072 0.48795,7.384206 0.48795,7.384206 0,0 0.54245,3.513191 -9.59622,3.773427 -8.39262,-0.487942 -42.97152,-2.699951 -42.97152,-2.699951 0,0 -5.23726,-0.487945 -11.97087,-4.814372 -6.73362,-4.033665 -13.76,-8.164914 -13.76,-8.164914"
     id="s1"
     inkscape:label="s1"
     sodipodi:nodetypes="ccssccscccccc"
     sodipodi:insensitive="true" /><path
     style="fill:none;stroke:#00ff00;stroke-width:1.6;stroke-linejoin:round;stroke-dasharray:none;stroke-opacity:1"
     d="M 109.40021,53.25546 95.962143,45.31365 c 0,0 -1.593948,-1.821654 -4.001132,1.626475 -2.407187,3.448132 -7.579384,10.409455 -10.376924,16.655127 -0.943356,2.374656 -2.504776,2.439715 -4.098721,-0.162647 -1.593948,-2.602365 -9.043212,-9.888982 -12.03593,-11.417869 -1.52889,-1.106006 -2.049362,-1.919245 -4.163782,-0.520473 -2.114421,1.39877 -4.228841,3.936074 -5.855317,7.481793 -1.854184,3.54572 -13.402172,25.665808 -18.411721,32.822308 -0.845767,0.975884 -1.707801,1.561417 -1.040945,3.171629 0.666856,1.610212 1.39877,3.659574 2.537304,4.733049 1.138533,1.073468 4.684254,4.131248 7.351678,4.424018 2.66742,0.29276 1.984301,1.82165 2.049359,3.93607 0.06506,2.11442 0.226878,3.35787 0.226878,3.35787 0,0 0.483039,3.54229 2.990241,4.9454 2.392193,1.61013 7.291588,5.84247 7.291588,5.84247 0,0 2.277184,1.70214 3.427278,4.30135 1.403114,2.20818 1.748142,2.71422 1.748142,2.71422 0,0 2.093169,1.85165 2.932737,-0.90857 0.506042,-2.53021 4.358851,-24.94552 4.358851,-24.94552 0,0 1.932157,-11.684942 3.864314,-16.23931 1.794145,-4.508365 2.948897,-7.734565 2.948897,-7.734565"
     id="vs2"
     inkscape:label="vs2"
     sodipodi:nodetypes="ccscscsccssssccccccccc"
     sodipodi:insensitive="true" /><path
     style="fill:none;stroke:none;stroke-width:5.6;stroke-linejoin:round;stroke-dasharray:none;stroke-opacity:1"
     d="m 109.40126,53.260001 -13.438055,-7.94181 c 0,0 -1.593948,-1.821654 -4.001132,1.626475 -2.407187,3.448132 -7.579384,10.409455 -10.376924,16.655127 -0.943356,2.374656 -2.504776,2.439715 -4.098721,-0.162647 -1.593948,-2.602365 -9.043212,-9.888982 -12.03593,-11.417869 -1.52889,-1.106006 -2.049362,-1.919245 -4.163782,-0.520473 -2.114421,1.39877 -4.228841,3.936074 -5.855317,7.481793 -1.854184,3.54572 -13.402172,25.665808 -18.411721,32.822308 -0.845767,0.975884 -1.707801,1.561417 -1.040945,3.171629 0.666856,1.610212 1.39877,3.659574 2.537304,4.733049 1.138533,1.073467 4.684254,4.131247 7.351678,4.424017 2.66742,0.29276 1.984301,1.82165 2.049359,3.93607 0.06506,2.11442 0.226878,3.35787 0.226878,3.35787 0,0 0.483039,3.54229 2.990241,4.9454 2.392193,1.61013 7.291588,5.84247 7.291588,5.84247 0,0 2.277184,1.70214 3.427278,4.30135 1.403114,2.20818 1.748142,2.71422 1.748142,2.71422 0,0 2.093169,1.85165 2.932737,-0.90857 0.506042,-2.53021 4.358851,-24.94552 4.358851,-24.94552 0,0 1.932157,-11.684941 3.864314,-16.239309 C 76.551248,82.627216 77.706,79.401016 77.706,79.401016"
     id="s2"
     inkscape:label="s2"
     sodipodi:nodetypes="ccscscsccssssccccccccc"
     sodipodi:insensitive="true" /><path
     style="fill:none;stroke:#00ff00;stroke-width:1.6;stroke-linejoin:round;stroke-dasharray:none;stroke-opacity:1"
     d="m 77.701571,79.405593 3.264971,-8.881896 c 0,0 0.460036,-2.760223 3.151253,-0.460036 2.760224,2.231181 16.377325,13.157062 16.377325,13.157062 0,0 3.45028,3.220262 5.98048,4.025326 2.53021,0.805066 3.51929,0.874072 10.58086,1.219099 7.01556,0.36803 45.07077,2.94286 45.07077,2.94286 0,0 2.19805,-0.159636 2.10604,2.278563 -0.092,2.438196 0.58179,7.611979 6.76255,7.475599 5.86547,0.13801 21.71375,1.1961 27.44121,1.56413 1.28811,0.092 2.27719,0.25302 3.40428,-1.44912 1.12709,-1.702135 4.48536,-6.992561 4.60037,-7.130573 0.11501,-0.138012 1.17309,-1.472118 0.48304,-5.428438 -0.59805,-4.002325 -0.7888,-6.033419 -0.7888,-6.033419"
     id="vs3"
     inkscape:label="vs3"
     sodipodi:nodetypes="ccccsccsccsscc"
     sodipodi:insensitive="true" /><path
     style="fill:none;stroke:none;stroke-width:5.6;stroke-linejoin:round;stroke-dasharray:none;stroke-opacity:1"
     d="m 77.70302,79.405622 3.264971,-8.881896 c 0,0 0.460036,-2.760223 3.151253,-0.460036 2.760224,2.231181 16.377326,13.157062 16.377326,13.157062 0,0 3.45028,3.220262 5.98048,4.025326 2.53021,0.805066 3.51929,0.874072 10.58086,1.219099 7.01556,0.36803 45.07077,2.94286 45.07077,2.94286 0,0 2.19805,-0.159636 2.10604,2.278563 -0.092,2.438196 0.58179,7.61198 6.76255,7.4756 5.86547,0.13801 21.71375,1.1961 27.44121,1.56413 1.28811,0.092 2.27719,0.25302 3.40428,-1.44912 1.12709,-1.702136 4.48536,-6.992562 4.60037,-7.130574 0.11501,-0.138012 1.17309,-1.472118 0.48304,-5.428438 -0.59805,-4.002325 -0.7888,-6.033419 -0.7888,-6.033419"
     id="s3"
     inkscape:label="s3"
     sodipodi:nodetypes="ccccsccsccsscc"
     sodipodi:insensitive="true" /></svg>
