<?xml version="1.0" encoding="UTF-8" standalone="no"?>
<!-- Created with Inkscape (http://www.inkscape.org/) -->

<svg
   width="250mm"
   height="160mm"
   viewBox="0 0 250 160"
   version="1.1"
   id="svg1"
   xml:space="preserve"
   inkscape:version="1.4.2 (f4327f4, 2025-05-13)"
   sodipodi:docname="spa.svg"
   xmlns:inkscape="http://www.inkscape.org/namespaces/inkscape"
   xmlns:sodipodi="http://sodipodi.sourceforge.net/DTD/sodipodi-0.dtd"
   xmlns="http://www.w3.org/2000/svg"
   xmlns:svg="http://www.w3.org/2000/svg"><sodipodi:namedview
     id="namedview1"
     pagecolor="#505050"
     bordercolor="#eeeeee"
     borderopacity="1"
     inkscape:showpageshadow="0"
     inkscape:pageopacity="0"
     inkscape:pagecheckerboard="0"
     inkscape:deskcolor="#505050"
     inkscape:document-units="mm"
     inkscape:zoom="1"
     inkscape:cx="534.5"
     inkscape:cy="299.5"
     inkscape:window-width="1920"
     inkscape:window-height="1009"
     inkscape:window-x="-8"
     inkscape:window-y="-8"
     inkscape:window-maximized="1"
     inkscape:current-layer="svg1"
     showguides="false" /><defs
     id="defs1" /><path
     style="fill:none;stroke:#00ff00;stroke-width:1.6;stroke-linejoin:round;stroke-dasharray:none;stroke-opacity:1"
     d="m 69.005573,108.16624 -29.028344,22.3463 c 0,0 -2.495701,0.67855 -2.024163,-1.86315 1.10409,-3.24326 3.879921,-11.44546 3.879921,-11.44546 0,0 2.439715,-6.89626 5.107138,-11.25522 2.569835,-3.9686 6.538439,-8.360091 6.798675,-8.620327 0.260237,-0.260236 16.232241,-18.31413 16.232241,-18.31413 0,0 1.203593,-1.789128 1.593945,-3.383074 0.315069,-1.286537 2.504776,-5.920375 8.067328,-7.67697 4.033663,-1.138534 5.920375,-1.626478 9.140799,-4.261371 3.220426,-2.634893 17.663537,-14.931059 17.663537,-14.931059 0,0 2.01683,-1.659006 5.49749,-3.155365 3.48067,-1.496359 60.40736,-26.609163 60.40736,-26.609163"
     id="vs1"
     inkscape:label="vs1"
     sodipodi:nodetypes="cccccscscscsc"
     sodipodi:insensitive="true" /><path
     style="fill:none;stroke:none;stroke-width:5.6;stroke-linejoin:round;stroke-dasharray:none;stroke-opacity:1"
     d="m 69.005324,108.16686 -29.028344,22.3463 c 0,0 -2.495701,0.67855 -2.024163,-1.86315 1.10409,-3.24326 3.879921,-11.44546 3.879921,-11.44546 0,0 2.439715,-6.89626 5.107138,-11.25522 2.569835,-3.9686 6.538439,-8.360098 6.798675,-8.620334 0.260237,-0.260236 16.232241,-18.31413 16.232241,-18.31413 0,0 1.203593,-1.789128 1.593945,-3.383074 0.315069,-1.286537 2.504776,-5.920375 8.067328,-7.67697 4.033663,-1.138534 5.920375,-1.626478 9.140799,-4.261371 3.220426,-2.634893 17.663546,-14.931059 17.663546,-14.931059 0,0 2.01683,-1.659006 5.49749,-3.155365 3.48067,-1.496359 60.40736,-26.609163 60.40736,-26.609163"
     id="s1"
     inkscape:label="s1"
     sodipodi:nodetypes="cccccscscscsc"
     sodipodi:insensitive="true" /><path
     style="display:inline;fill:none;stroke:#00ff00;stroke-width:1.6;stroke-linejoin:round;stroke-dasharray:none;stroke-opacity:1"
     d="m 172.29361,19.019266 3.00808,-1.43705 c 0,0 4.00113,-1.919243 6.42458,2.195744 2.42345,4.114987 8.76671,0.439149 10.60463,-0.37409 1.83792,-0.813238 5.80653,-3.057776 8.66912,0.40662 2.9114,3.431866 18.57437,20.298433 18.57437,20.298433 0,0 2.34213,3.51319 -0.68312,6.278199 -3.02525,2.765013 -6.14808,0.422887 -7.51432,-1.301181 -1.36624,-1.724064 -6.70109,-8.262503 -6.70109,-8.262503 0,0 -2.11442,-2.699951 -6.18061,-0.618061 -4.06619,2.081892 -11.77569,6.245672 -18.70448,8.490211 -6.9288,2.244537 -19.42014,6.148083 -19.42014,6.148083 0,0 -5.56255,1.789124 -5.75773,8.327562 0.0325,2.342126 0.39036,7.12397 0.39036,7.12397 0,0 0.35782,3.35054 3.25295,6.440847 2.89513,3.090307 5.85532,4.228841 10.50704,5.302316 4.65173,1.073473 24.95016,6.375789 24.95016,6.375789 0,0 6.34326,2.260802 4.5216,8.39262 -0.86202,1.870449 -1.62647,3.805958 -1.62647,3.805958 0,0 -1.56142,6.083027 3.35054,8.457677 4.91196,2.37466 16.72018,7.80709 16.72018,7.80709 0,0 3.96861,2.11442 1.88672,6.18061 -2.08189,4.0662 -2.53731,4.9445 -2.53731,4.9445"
     id="vs2"
     inkscape:label="vs2"
     sodipodi:nodetypes="ccssccsscsscccsscccscsc"
     sodipodi:insensitive="true" /><path
     style="fill:none;stroke:none;stroke-width:5.6;stroke-linejoin:round;stroke-dasharray:none;stroke-opacity:1"
     d="m 172.29425,19.018758 3.00808,-1.43705 c 0,0 4.00113,-1.919243 6.42458,2.195744 2.42345,4.114987 8.76671,0.439149 10.60463,-0.37409 1.83792,-0.813238 5.80653,-3.057776 8.66912,0.40662 2.9114,3.431866 18.57437,20.298433 18.57437,20.298433 0,0 2.34213,3.51319 -0.68312,6.278199 -3.02525,2.765013 -6.14808,0.422887 -7.51432,-1.301181 -1.36624,-1.724064 -6.70109,-8.262503 -6.70109,-8.262503 0,0 -2.11442,-2.699951 -6.18061,-0.618061 -4.06619,2.081892 -11.77569,6.245672 -18.70448,8.490211 -6.9288,2.244537 -19.42014,6.148083 -19.42014,6.148083 0,0 -5.56255,1.789124 -5.75773,8.327562 0.0325,2.342126 0.39036,7.12397 0.39036,7.12397 0,0 0.35782,3.35054 3.25295,6.440847 2.89513,3.090307 5.85532,4.228841 10.50704,5.302316 4.65173,1.073473 24.95016,6.375789 24.95016,6.375789 0,0 6.34326,2.260802 4.5216,8.39262 -0.86202,1.870449 -1.62647,3.805958 -1.62647,3.805958 0,0 -1.56142,6.083035 3.35054,8.457675 4.91196,2.37466 16.72018,7.80709 16.72018,7.80709 0,0 3.96861,2.11442 1.88672,6.18061 -2.08189,4.0662 -2.53731,4.9445 -2.53731,4.9445"
     id="s2"
     inkscape:label="s2"
     sodipodi:nodetypes="ccssccsscsscccsscccscsc"
     sodipodi:insensitive="true" /><path
     style="fill:none;stroke:#00ff00;stroke-width:1.6;stroke-linejoin:round;stroke-dasharray:none;stroke-opacity:1"
     d="m 216.05304,123.9558 -3.16952,5.62649 c 0,0 -3.33352,5.22292 -10.54342,3.40391 -7.20989,-1.81901 -9.42578,-2.28203 -13.32838,-4.8948 -3.90261,-2.61276 -12.56771,-8.73125 -14.81667,-12.17083 -2.51354,-3.37344 -11.31094,-16.040363 -11.31094,-16.040363 0,0 -3.47265,-4.530989 -8.20208,-6.746875 -4.72943,-2.215885 -19.57917,-6.416146 -19.57917,-6.416146 0,0 -3.77031,-0.959114 -8.23515,1.455209 -4.46485,2.414323 -15.41198,8.40052 -15.41198,8.40052 0,0 -5.2586,3.108855 -11.476304,4.233335 -6.383073,1.42213 -14.882812,3.24114 -14.882812,3.24114 0,0 -2.315105,0.79375 -1.885157,-2.44739 0.429948,-3.241147 -1.785937,-3.571876 -3.373437,-1.951303 -1.752865,1.587503 -10.861616,8.538663 -10.861616,8.538663"
     id="vs3"
     inkscape:label="vs3"
     sodipodi:nodetypes="ccssccscscccscc"
     sodipodi:insensitive="true" /><path
     style="fill:none;stroke:none;stroke-width:5.6;stroke-linejoin:round;stroke-dasharray:none;stroke-opacity:1"
     d="m 216.05287,123.95596 -3.16952,5.62649 c 0,0 -3.33352,5.22292 -10.54342,3.40391 -7.20989,-1.81901 -9.42578,-2.28203 -13.32838,-4.8948 -3.90261,-2.61276 -12.56771,-8.73125 -14.81667,-12.17083 -2.51354,-3.37344 -11.31094,-16.040367 -11.31094,-16.040367 0,0 -3.47265,-4.530989 -8.20208,-6.746875 -4.72943,-2.215885 -19.57917,-6.416146 -19.57917,-6.416146 0,0 -3.77031,-0.959114 -8.23515,1.455209 -4.46485,2.414323 -15.41198,8.40052 -15.41198,8.40052 0,0 -5.2586,3.108855 -11.476299,4.233339 -6.383075,1.42213 -14.882814,3.24114 -14.882814,3.24114 0,0 -2.315105,0.79375 -1.885157,-2.44739 0.429948,-3.241151 -1.785937,-3.57188 -3.373437,-1.951307 -1.752865,1.587507 -10.861616,8.538667 -10.861616,8.538667"
     id="s3"
     inkscape:label="s3"
     sodipodi:nodetypes="ccssccscscccscc"
     sodipodi:insensitive="true" /></svg>
