<?xml version="1.0" encoding="UTF-8" standalone="no"?>
<!-- Created with Inkscape (http://www.inkscape.org/) -->

<svg
   width="250mm"
   height="160mm"
   viewBox="0 0 250 160"
   version="1.1"
   id="svg1"
   xml:space="preserve"
   inkscape:version="1.4.2 (f4327f4, 2025-05-13)"
   sodipodi:docname="spielberg.svg"
   xmlns:inkscape="http://www.inkscape.org/namespaces/inkscape"
   xmlns:sodipodi="http://sodipodi.sourceforge.net/DTD/sodipodi-0.dtd"
   xmlns="http://www.w3.org/2000/svg"
   xmlns:svg="http://www.w3.org/2000/svg"><sodipodi:namedview
     id="namedview1"
     pagecolor="#505050"
     bordercolor="#eeeeee"
     borderopacity="1"
     inkscape:showpageshadow="0"
     inkscape:pageopacity="0"
     inkscape:pagecheckerboard="0"
     inkscape:deskcolor="#505050"
     inkscape:document-units="mm"
     inkscape:zoom="0.71891836"
     inkscape:cx="392.95143"
     inkscape:cy="366.52284"
     inkscape:window-width="1920"
     inkscape:window-height="1009"
     inkscape:window-x="-8"
     inkscape:window-y="-8"
     inkscape:window-maximized="1"
     inkscape:current-layer="svg1" /><defs
     id="defs1" /><path
     style="display:inline;fill:none;stroke:#00ff00;stroke-width:1.6;stroke-linejoin:round;stroke-dasharray:none;stroke-opacity:1"
     d="m 45.819702,71.282758 c 0,0 18.32855,6.397783 29.128358,18.043358 3.496924,3.480662 7.398591,7.925739 18.991529,17.034474 2.852229,2.30019 10.212821,8.28067 24.934011,16.65335 2.94424,1.74814 13.24907,8.00464 13.24907,8.00464 0,0 1.93156,1.11642 4.46887,3.36095 1.00841,0.74818 2.96018,3.65958 6.34326,0.35782 3.7409,-3.0903 36.54693,-28.80491 36.54693,-28.80491"
     id="vs1"
     sodipodi:nodetypes="cccccccc"
     inkscape:label="vs1"
     sodipodi:insensitive="true" /><path
     style="display:inline;fill:none;stroke:none;stroke-width:5.6;stroke-linejoin:round;stroke-dasharray:none;stroke-opacity:1"
     d="m 45.820254,71.283663 c 0,0 18.32855,6.397783 29.128358,18.043358 3.49692,3.48066 7.39859,7.92574 18.99153,17.034479 2.85223,2.30019 10.212818,8.28067 24.934008,16.65335 2.94424,1.74814 13.24907,8.00465 13.24907,8.00465 0,0 1.93156,1.11642 4.46887,3.36095 1.00841,0.74818 2.96018,3.65958 6.34326,0.35782 3.7409,-3.0903 36.54693,-28.80492 36.54693,-28.80492"
     id="s1"
     sodipodi:nodetypes="cccccccc"
     inkscape:label="s1"
     sodipodi:insensitive="true" /><path
     style="display:inline;fill:none;stroke:#00ff00;stroke-width:1.6;stroke-linejoin:round;stroke-dasharray:none;stroke-opacity:1"
     d="m 45.900207,71.328761 c 0,0 -12.720076,-5.196208 -20.527166,-8.156395 -0.748179,-0.390353 -3.740897,-1.919243 -0.455414,-4.066194 3.318013,-2.146948 18.867133,-12.71905 43.19923,-17.143065 7.807089,-1.561418 31.163299,-6.766145 31.163299,-6.766145 0,0 5.269784,-1.496359 18.867134,-6.31073 9.62874,-3.643309 15.22382,-5.920377 15.22382,-5.920377 0,0 5.69267,-0.910827 5.33485,4.94449 0,1.39877 -1.4313,18.086424 -18.02137,25.373041 -2.5373,0.975887 -14.57323,4.424016 -27.064575,7.09144 -1.171065,0.325294 -6.505909,1.821653 -8.262504,8.262503 -1.756595,6.440847 2.472246,11.125102 3.64331,11.905811 0.975887,0.845767 18.281599,14.036497 18.281599,14.036497"
     id="vs2"
     inkscape:label="vs2"
     sodipodi:insensitive="true" /><path
     style="display:inline;fill:none;stroke:none;stroke-width:5.6;stroke-linejoin:round;stroke-dasharray:none;stroke-opacity:1"
     d="m 45.90159,71.329727 c 0,0 -12.720076,-5.196208 -20.527166,-8.156395 -0.748179,-0.390353 -3.740897,-1.919243 -0.455414,-4.066194 3.318013,-2.146948 18.867133,-12.71905 43.19923,-17.143065 7.807089,-1.561418 31.163299,-6.766145 31.163299,-6.766145 0,0 5.269791,-1.496359 18.867141,-6.31073 9.62874,-3.643309 15.22382,-5.920377 15.22382,-5.920377 0,0 5.69267,-0.910827 5.33485,4.94449 0,1.39877 -1.4313,18.086424 -18.02137,25.373041 -2.5373,0.975887 -14.57323,4.424016 -27.064582,7.09144 -1.171065,0.325294 -6.505909,1.821653 -8.262504,8.262503 -1.756595,6.440847 2.472246,11.125102 3.64331,11.905811 0.975887,0.845767 18.281606,14.036497 18.281606,14.036497"
     id="s2"
     inkscape:label="s2"
     sodipodi:insensitive="true" /><path
     style="display:inline;fill:none;stroke:#00ff00;stroke-width:1.6;stroke-linejoin:round;stroke-dasharray:none;stroke-opacity:1"
     d="m 107.25766,94.537637 c 0,0 6.95355,4.775047 13.78476,-0.917622 1.39877,-1.236123 3.44813,-2.830071 4.39149,-8.034795 0.29276,-1.724068 2.08189,-9.140802 8.52273,-14.703354 1.82166,-1.496359 3.70837,-3.383071 16.52501,-8.620328 3.80596,-1.724065 49.31478,-22.412852 49.31478,-22.412852 0,0 6.6035,-2.83007 11.19016,2.08189 4.58667,4.911961 15.25636,17.956308 15.25636,17.956308 0,0 2.24454,2.277067 -0.71565,5.920374 -1.30118,1.951773 -5.43243,8.360093 -12.0034,13.174464 -2.50478,2.049362 -34.14391,26.964838 -34.14391,26.964838"
     id="vs3"
     inkscape:label="vs3"
     sodipodi:insensitive="true" /><path
     style="fill:none;stroke:none;stroke-width:5.6;stroke-linejoin:round;stroke-dasharray:none;stroke-opacity:1"
     d="m 107.25895,94.540258 c 0,0 6.95355,4.775043 13.78476,-0.91762 1.39877,-1.23613 3.44813,-2.83008 4.39149,-8.0348 0.29276,-1.72407 2.08189,-9.140802 8.52273,-14.703354 1.82166,-1.496359 3.70837,-3.383071 16.52501,-8.620328 3.80596,-1.724065 49.31478,-22.412852 49.31478,-22.412852 0,0 6.6035,-2.83007 11.19016,2.08189 4.58667,4.911961 15.25636,17.956308 15.25636,17.956308 0,0 2.24454,2.277067 -0.71565,5.920374 -1.30118,1.951773 -5.43243,8.360093 -12.0034,13.174464 -2.50478,2.049362 -34.14391,26.96484 -34.14391,26.96484"
     id="s3"
     inkscape:label="s3"
     sodipodi:insensitive="true" /></svg>
