<?xml version="1.0" encoding="UTF-8" standalone="no"?>
<!-- Created with Inkscape (http://www.inkscape.org/) -->

<svg
   width="250mm"
   height="160mm"
   viewBox="0 0 250 160"
   version="1.1"
   id="svg1"
   xml:space="preserve"
   inkscape:version="1.4.2 (f4327f4, 2025-05-13)"
   sodipodi:docname="suzuka.svg"
   xmlns:inkscape="http://www.inkscape.org/namespaces/inkscape"
   xmlns:sodipodi="http://sodipodi.sourceforge.net/DTD/sodipodi-0.dtd"
   xmlns="http://www.w3.org/2000/svg"
   xmlns:svg="http://www.w3.org/2000/svg"><sodipodi:namedview
     id="namedview1"
     pagecolor="#505050"
     bordercolor="#eeeeee"
     borderopacity="1"
     inkscape:showpageshadow="0"
     inkscape:pageopacity="0"
     inkscape:pagecheckerboard="0"
     inkscape:deskcolor="#505050"
     inkscape:document-units="mm"
     inkscape:zoom="1.4378367"
     inkscape:cx="390.51722"
     inkscape:cy="362.69765"
     inkscape:window-width="1920"
     inkscape:window-height="1009"
     inkscape:window-x="-8"
     inkscape:window-y="-8"
     inkscape:window-maximized="1"
     inkscape:current-layer="svg1" /><defs
     id="defs1" /><path
     style="display:inline;fill:none;stroke:#00ff00;stroke-width:1.6;stroke-linejoin:round;stroke-dasharray:none;stroke-opacity:1"
     d="m 176.32637,64.262105 45.41154,55.577575 c 0,0 3.10627,4.03281 1.67497,7.546 -0.52047,2.34212 -1.65901,5.46496 -1.65901,5.46496 0,0 -2.76501,5.56255 -8.19744,2.96019 -1.04095,-0.61806 -5.13967,-5.39991 -6.31073,-7.83962 -1.62648,-2.56983 -5.56255,-9.10827 -5.56255,-9.10827 0,0 -2.17948,-2.89513 -6.9288,-2.34213 -0.84576,0 -2.24453,-0.16265 -2.24453,-0.16265 0,0 -3.87102,0.0651 -5.82279,-5.0746 -1.106,-4.26137 -2.34213,-8.26251 -2.34213,-8.26251 0,0 -1.69153,-4.8469 -7.83962,-4.68425 -2.69995,-0.03253 -4.19631,-0.06506 -4.19631,-0.06506 0,0 -2.89513,-0.06506 -6.11555,-3.285482 -3.22043,-3.220426 -1.56142,-7.546853 -1.33371,-8.034798 0.2277,-0.487942 2.40718,-7.12397 2.40718,-7.12397 0,0 1.00842,-2.79754 -0.42288,-5.172196 -1.4313,-2.374657 -1.59395,-3.155365 -7.28662,-5.855317 -5.69267,-2.699951 -10.89739,-2.081889 -13.9877,-1.528886 -3.0903,0.553 -8.71792,3.675837 -11.38534,6.701083 -2.66742,3.025248 -5.20473,6.278203 -5.20473,6.278203"
     id="vs1"
     inkscape:label="vs1"
     sodipodi:insensitive="true" /><path
     style="fill:none;stroke:none;stroke-width:5.6;stroke-linejoin:round;stroke-dasharray:none;stroke-opacity:1"
     d="m 176.3281,64.264148 45.41154,55.577572 c 0,0 3.10627,4.03281 1.67497,7.546 -0.52047,2.34212 -1.65901,5.46496 -1.65901,5.46496 0,0 -2.76501,5.56255 -8.19744,2.96019 -1.04095,-0.61806 -5.13967,-5.39991 -6.31073,-7.83962 -1.62648,-2.56983 -5.56255,-9.10827 -5.56255,-9.10827 0,0 -2.17948,-2.89513 -6.9288,-2.34213 -0.84576,0 -2.24453,-0.16265 -2.24453,-0.16265 0,0 -3.87102,0.0651 -5.82279,-5.0746 -1.106,-4.26137 -2.34213,-8.26251 -2.34213,-8.26251 0,0 -1.69153,-4.846897 -7.83962,-4.684247 -2.69995,-0.03253 -4.19631,-0.06506 -4.19631,-0.06506 0,0 -2.89513,-0.06506 -6.11555,-3.285482 -3.22043,-3.220426 -1.56142,-7.546853 -1.33371,-8.034798 0.2277,-0.487942 2.40718,-7.12397 2.40718,-7.12397 0,0 1.00842,-2.79754 -0.42288,-5.172196 -1.4313,-2.374657 -1.59395,-3.155365 -7.28662,-5.855317 -5.69267,-2.699951 -10.89739,-2.081889 -13.9877,-1.528886 -3.0903,0.553 -8.71792,3.675837 -11.38534,6.701083 -2.66742,3.025248 -5.20473,6.278203 -5.20473,6.278203"
     id="s1"
     inkscape:label="s1"
     sodipodi:insensitive="true" /><path
     style="fill:none;stroke:#00ff00;stroke-width:1.6;stroke-linejoin:round;stroke-dasharray:none;stroke-opacity:1"
     d="m 129.00592,80.253484 -4.75934,5.754619 c 0,0 -1.04095,1.447565 -2.37466,1.268653 -1.44756,0.08132 -12.76784,0.975884 -12.76784,0.975884 0,0 -2.8626,0.357825 -3.12284,-2.195742 -0.3253,-2.537304 -1.05721,-6.13182 -1.88671,-9.954041 -0.6018,-3.269218 -2.96019,-15.142501 -3.31802,-17.761127 -0.0813,-0.813239 -0.61806,-3.594515 1.56142,-7.384206 0.74818,-1.512623 2.68369,-5.887847 2.68369,-5.887847 0,0 0.73191,-2.016831 -1.1548,-2.683687 -1.88671,-0.666856 -2.5861,0.569267 -3.05778,1.187328 -0.47168,0.618062 -6.245667,9.791391 -6.245667,9.791391 0,0 -1.935509,3.561985 -5.188463,5.936641 -3.252954,2.374657 -4.814371,2.830071 -9.352243,3.301749 -4.537871,0.471678 -8.051061,-0.09759 -8.36009,-0.178911 -0.30903,-0.08132 -4.375224,-1.008418 -9.222126,-2.895129 -4.846902,-1.886715 -6.814939,-3.529457 -9.840184,-6.115556 -3.025249,-2.586098 -6.538439,-10.751013 -6.538439,-10.751013 0,0 -3.025246,-7.807089 -4.293899,-10.328126 -1.268651,-2.52104 -3.041513,-4.180047 -7.026381,-3.757163 -3.578249,0.211442 -5.611344,0.439147 -7.433,1.415034 -0.666856,0.374092 -3.724632,2.098156 -3.301748,5.969172 0.422885,3.871015 3.98487,7.075175 3.98487,7.075175 0,0 9.501359,8.257561 20.818274,14.376056 11.316914,6.118495 17.225023,7.426867 17.225023,7.426867"
     id="vs2"
     inkscape:label="vs2"
     sodipodi:insensitive="true" /><path
     style="fill:none;stroke:none;stroke-width:5.6;stroke-linejoin:round;stroke-dasharray:none;stroke-opacity:1"
     d="m 129.00601,80.256947 -4.75934,5.754619 c 0,0 -1.04095,1.447565 -2.37466,1.268653 -1.44756,0.08132 -12.76784,0.975884 -12.76784,0.975884 0,0 -2.8626,0.357825 -3.12284,-2.195742 -0.3253,-2.537304 -1.05721,-6.13182 -1.88671,-9.954041 -0.6018,-3.269218 -2.96019,-15.142501 -3.31802,-17.761127 -0.0813,-0.813239 -0.61805,-3.594515 1.56142,-7.384206 0.74818,-1.512623 2.68369,-5.887847 2.68369,-5.887847 0,0 0.73191,-2.016831 -1.1548,-2.683687 -1.88671,-0.666856 -2.5861,0.569267 -3.05778,1.187328 -0.47167,0.618062 -6.245661,9.791391 -6.245661,9.791391 0,0 -1.935509,3.561985 -5.188463,5.936641 -3.252954,2.374657 -4.814371,2.830071 -9.352243,3.301749 -4.537871,0.471678 -8.051061,-0.09759 -8.36009,-0.178911 -0.30903,-0.08132 -4.375224,-1.008418 -9.222126,-2.895129 -4.846902,-1.886715 -6.814939,-3.529457 -9.840184,-6.115556 -3.025249,-2.586098 -6.538439,-10.751013 -6.538439,-10.751013 0,0 -3.025246,-7.807089 -4.293899,-10.328126 -1.268651,-2.52104 -3.041513,-4.180047 -7.026381,-3.757163 -3.578249,0.211442 -5.611344,0.439147 -7.433,1.415034 -0.666856,0.374092 -3.724632,2.098156 -3.301748,5.969172 0.422885,3.871015 3.98487,7.075175 3.98487,7.075175 0,0 9.501359,8.257561 20.818274,14.376056 11.316914,6.118495 17.225023,7.426867 17.225023,7.426867"
     id="s2"
     inkscape:label="s2"
     sodipodi:insensitive="true" /><path
     style="fill:none;stroke:#00ff00;stroke-width:1.6;stroke-linejoin:round;stroke-dasharray:none;stroke-opacity:1"
     d="m 65.917576,64.813486 c 0,0 17.091599,5.883573 32.711988,11.79358 1.854186,0.618061 4.846906,1.593948 8.587796,3.155365 3.7409,1.561417 12.19858,-2.569834 12.81664,-2.992718 0.84577,-0.455414 6.2782,-3.448129 10.86487,-8.164914 2.21201,-2.08189 10.05163,-9.75886 12.62146,-10.832336 0.553,-0.292766 1.48338,-1.2799 2.71398,0.307229 1.25361,1.288103 1.88616,1.690637 1.88616,1.690637 0,0 1.36861,1.265103 3.43877,-0.851069 1.02359,-0.943075 4.27352,-3.863014 8.09574,-3.635306 3.82222,0.227706 4.97702,0.178911 9.77513,2.830068 4.79811,2.651159 6.97758,6.263092 6.97758,6.263092"
     id="vs3"
     inkscape:label="vs3"
     sodipodi:nodetypes="ccsccccccssc"
     sodipodi:insensitive="true" /><path
     style="fill:none;stroke:none;stroke-width:5.6;stroke-linejoin:round;stroke-dasharray:none;stroke-opacity:1"
     d="m 65.914785,64.815421 c 0,0 17.091599,5.883573 32.711986,11.79358 1.854189,0.618061 4.846909,1.593948 8.587799,3.155365 3.7409,1.561417 12.19858,-2.569834 12.81664,-2.992718 0.84577,-0.455414 6.2782,-3.448129 10.86487,-8.164914 2.21201,-2.08189 10.05163,-9.75886 12.62146,-10.832336 0.553,-0.292766 1.48338,-1.2799 2.71398,0.307229 1.25361,1.288103 1.88616,1.690637 1.88616,1.690637 0,0 1.36861,1.265103 3.43877,-0.851069 1.02359,-0.943075 4.27352,-3.863014 8.09574,-3.635306 3.82222,0.227706 4.97702,0.178911 9.77513,2.830068 4.79811,2.651159 6.97758,6.263092 6.97758,6.263092"
     id="s3"
     inkscape:label="s3"
     sodipodi:nodetypes="ccsccccccssc"
     sodipodi:insensitive="true" /></svg>
