<?xml version="1.0" encoding="UTF-8" standalone="no"?>
<!-- Created with Inkscape (http://www.inkscape.org/) -->

<svg
   width="250mm"
   height="160mm"
   viewBox="0 0 250 160"
   version="1.1"
   id="svg1"
   xml:space="preserve"
   inkscape:version="1.4.2 (f4327f4, 2025-05-13)"
   sodipodi:docname="yas marina.svg"
   xmlns:inkscape="http://www.inkscape.org/namespaces/inkscape"
   xmlns:sodipodi="http://sodipodi.sourceforge.net/DTD/sodipodi-0.dtd"
   xmlns="http://www.w3.org/2000/svg"
   xmlns:svg="http://www.w3.org/2000/svg"><sodipodi:namedview
     id="namedview1"
     pagecolor="#505050"
     bordercolor="#eeeeee"
     borderopacity="1"
     inkscape:showpageshadow="0"
     inkscape:pageopacity="0"
     inkscape:pagecheckerboard="0"
     inkscape:deskcolor="#505050"
     inkscape:document-units="mm"
     inkscape:zoom="2.0334082"
     inkscape:cx="284.00594"
     inkscape:cy="312.52948"
     inkscape:window-width="1920"
     inkscape:window-height="1009"
     inkscape:window-x="-8"
     inkscape:window-y="-8"
     inkscape:window-maximized="1"
     inkscape:current-layer="svg1"
     showguides="false" /><defs
     id="defs1" /><path
     style="display:inline;fill:none;stroke:#00ff00;stroke-width:1.6;stroke-linejoin:round;stroke-dasharray:none;stroke-opacity:1"
     d="m 114.50398,64.831375 -0.84577,48.127455 c 0,0 -0.052,4.17814 5.74444,3.63759 5.0374,-0.25302 20.81668,-1.49512 20.81668,-1.49512 0,0 3.77231,-0.11501 5.77347,-4.57737 2.13917,-4.32435 5.65992,-15.66779 16.52478,-15.407554 4.35896,0.260237 5.92038,1.431298 8.5878,2.79754 2.66742,1.36624 11.25522,5.115994 20.62373,5.530024 9.47004,0.52673 10.32813,0.50421 10.32813,0.50421"
     id="vs1"
     sodipodi:nodetypes="ccccccscc"
     inkscape:label="vs1"
     sodipodi:insensitive="true" /><path
     style="fill:none;stroke:none;stroke-width:5.6;stroke-linejoin:round;stroke-dasharray:none;stroke-opacity:1"
     d="m 114.5032,64.83209 -0.84577,48.12746 c 0,0 -0.052,4.17814 5.74444,3.63759 5.0374,-0.25302 20.81668,-1.49512 20.81668,-1.49512 0,0 3.77231,-0.11501 5.77347,-4.57737 2.13917,-4.32435 5.65992,-15.667795 16.52478,-15.407559 4.35896,0.260237 5.92038,1.431299 8.5878,2.797539 2.66742,1.366242 11.25522,5.116 20.62373,5.53003 9.47004,0.52673 10.32813,0.50421 10.32813,0.50421"
     id="s1"
     sodipodi:nodetypes="ccccccscc"
     inkscape:label="s1"
     sodipodi:insensitive="true" /><path
     style="fill:none;stroke:#00ff00;stroke-width:1.6;stroke-linejoin:round;stroke-dasharray:none;stroke-opacity:1"
     d="m 201.99218,103.94815 19.12469,0.6873 c 0,0 3.86431,0.48304 5.26742,-3.7263 0.48304,-2.254178 -2.25418,-4.577368 -4.00232,-5.175416 -1.63313,-0.805064 -8.48769,-4.600371 -11.1099,-5.359432 -2.41519,-0.897072 -6.35223,-2.723457 -7.21426,-3.374046 -1.02469,-0.601797 -61.97533,-32.669866 -61.97533,-32.669866 0,0 -0.87407,-0.644051 -7.86664,-3.565289 C 127.33829,47.843865 121.90985,44.5546 121.90985,44.5546 l -18.24047,-9.499767 c 0,0 -1.77115,-0.920075 -1.88616,1.472118 -0.11501,2.392193 -0.24152,4.979903 -0.24152,4.979903 0,0 -0.24907,1.61836 -2.518698,1.449117 -2.221654,-0.08888 -12.169129,0.568553 -19.650924,3.951627 -7.481795,3.383071 -9.92151,5.855316 -15.51659,11.060043 -5.595083,5.204727 -19.062311,17.565952 -19.062311,17.565952 0,0 -8.034798,7.579381 -13.727467,16.622593 -5.887846,8.978154 -7.063271,10.650624 -7.063271,10.650624"
     id="vs2"
     inkscape:label="vs2"
     sodipodi:nodetypes="ccccccccccsccssccc"
     sodipodi:insensitive="true" /><path
     style="fill:none;stroke:none;stroke-width:5.6;stroke-linejoin:round;stroke-dasharray:none;stroke-opacity:1"
     d="m 201.99643,103.94929 19.1247,0.6873 c 0,0 3.8643,0.48304 5.26741,-3.7263 0.48304,-2.254185 -2.25418,-4.577375 -4.00231,-5.175425 -1.63313,-0.80506 -8.4877,-4.60037 -11.10991,-5.35943 -2.41519,-0.89707 -6.35223,-2.72345 -7.21426,-3.37404 -1.02468,-0.6018 -61.97532,-32.669865 -61.97532,-32.669865 0,0 -0.87407,-0.644051 -7.86664,-3.565289 -6.87755,-2.921236 -12.30599,-6.210501 -12.30599,-6.210501 l -18.24047,-9.499767 c 0,0 -1.77115,-0.920075 -1.88616,1.472118 -0.11501,2.392193 -0.24152,4.979903 -0.24152,4.979903 0,0 -0.24907,1.61836 -2.518699,1.449117 -2.221654,-0.08888 -12.169129,0.568553 -19.650924,3.951627 -7.481795,3.383071 -9.92151,5.855316 -15.51659,11.060043 -5.595083,5.204727 -19.062311,17.565949 -19.062311,17.565949 0,0 -8.034798,7.579375 -13.727467,16.622595 -5.887846,8.978155 -7.063271,10.650625 -7.063271,10.650625"
     id="s2"
     inkscape:label="s2"
     sodipodi:nodetypes="ccccccccccsccssccc"
     sodipodi:insensitive="true" /><path
     style="fill:none;stroke:#00ff00;stroke-width:1.6;stroke-linejoin:round;stroke-dasharray:none;stroke-opacity:1"
     d="m 24.02742,102.77075 -3.302746,5.03896 c 0,0 -3.84131,3.79531 2.277184,10.00581 1.587128,1.51812 7.636616,3.12825 12.421005,-1.01208 2.162173,-1.93216 2.346188,-4.18634 3.864311,-8.97073 1.150094,-4.78438 4.140335,-17.159384 4.140335,-17.159384 0,0 0.598049,-3.404274 2.944239,-5.336431 2.254181,-2.484199 7.268585,-8.004646 7.268585,-8.004646 0,0 1.012082,-1.97816 5.842474,-1.932157 4.830389,-0.36803 9.246745,-0.782063 9.246745,-0.782063 0,0 2.898235,-0.644052 2.34619,3.542286 -0.159376,4.105014 -0.184015,6.30251 -0.184015,6.30251 0,0 -0.598048,5.014405 5.336432,5.888474 5.934479,0.874072 6.578531,0.828067 6.578531,0.828067 0,0 3.404274,0.552045 4.508365,-7.17658 0.230018,-5.244422 0.322027,-9.338754 0.322027,-9.338754 0,0 0.09201,-12.513011 0.414033,-13.801114 0.322024,-1.288105 1.196097,-5.382434 4.094329,-6.256506 3.08225,-1.150094 13.387086,-4.968402 13.387086,-4.968402 0,0 2.35769,-0.816565 5.29042,-0.690054 1.46062,0.08051 2.11617,0.230018 2.11617,0.230018 0,0 1.97677,0.510805 1.81575,3.512546 -0.046,3.726301 -0.25089,12.173384 -0.25089,12.173384"
     id="vs3"
     inkscape:label="vs3"
     sodipodi:nodetypes="ccccccccccccscccscccccc"
     sodipodi:insensitive="true" /><path
     style="fill:none;stroke:none;stroke-width:5.6;stroke-linejoin:round;stroke-dasharray:none;stroke-opacity:1"
     d="m 24.027525,102.77043 -3.302746,5.03896 c 0,0 -3.841309,3.79531 2.277184,10.00581 1.587128,1.51812 7.636616,3.12825 12.421005,-1.01208 2.162173,-1.93216 2.346188,-4.18634 3.864311,-8.97073 1.150095,-4.78438 4.140336,-17.159389 4.140336,-17.159389 0,0 0.59805,-3.404274 2.94424,-5.336431 2.25418,-2.484199 7.26858,-8.004646 7.26858,-8.004646 0,0 1.01209,-1.97816 5.84248,-1.932157 4.83039,-0.36803 9.24674,-0.782063 9.24674,-0.782063 0,0 2.89824,-0.644052 2.34619,3.542286 -0.15937,4.105014 -0.18401,6.30251 -0.18401,6.30251 0,0 -0.59805,5.014405 5.33643,5.888474 5.93448,0.874072 6.57853,0.828067 6.57853,0.828067 0,0 3.40427,0.552045 4.50837,-7.17658 0.23001,-5.244422 0.32202,-9.338754 0.32202,-9.338754 0,0 0.092,-12.513011 0.41404,-13.801114 0.32202,-1.288105 1.19609,-5.382434 4.09432,-6.256506 3.08226,-1.150094 13.387085,-4.968402 13.387085,-4.968402 0,0 2.35769,-0.816565 5.29042,-0.690054 1.46062,0.08051 2.11617,0.230018 2.11617,0.230018 0,0 1.97677,0.510805 1.81575,3.512546 -0.046,3.726301 -0.25089,12.173384 -0.25089,12.173384"
     id="s3"
     inkscape:label="s3"
     sodipodi:nodetypes="ccccccccccccscccscccccc"
     sodipodi:insensitive="true" /></svg>
