<?xml version="1.0" encoding="UTF-8" standalone="no"?>
<!-- Created with Inkscape (http://www.inkscape.org/) -->

<svg
   width="250mm"
   height="160mm"
   viewBox="0 0 250 160"
   version="1.1"
   id="svg1"
   xml:space="preserve"
   inkscape:version="1.4.2 (f4327f4, 2025-05-13)"
   sodipodi:docname="zandvoort.svg"
   xmlns:inkscape="http://www.inkscape.org/namespaces/inkscape"
   xmlns:sodipodi="http://sodipodi.sourceforge.net/DTD/sodipodi-0.dtd"
   xmlns="http://www.w3.org/2000/svg"
   xmlns:svg="http://www.w3.org/2000/svg"><sodipodi:namedview
     id="namedview1"
     pagecolor="#505050"
     bordercolor="#eeeeee"
     borderopacity="1"
     inkscape:showpageshadow="0"
     inkscape:pageopacity="0"
     inkscape:pagecheckerboard="0"
     inkscape:deskcolor="#505050"
     inkscape:document-units="mm"
     inkscape:zoom="1.4378367"
     inkscape:cx="517.79176"
     inkscape:cy="260.46073"
     inkscape:window-width="1920"
     inkscape:window-height="1009"
     inkscape:window-x="-8"
     inkscape:window-y="-8"
     inkscape:window-maximized="1"
     inkscape:current-layer="svg1"
     showguides="false" /><defs
     id="defs1" /><path
     style="display:inline;fill:none;stroke:#00ff00;stroke-width:1.6;stroke-linejoin:round;stroke-dasharray:none;stroke-opacity:1"
     d="m 169.10075,93.119875 -18.58657,45.618615 c 0,0 -2.5373,6.57097 -8.06732,3.80596 -5.53002,-2.76502 -4.80947,-6.01932 -4.00114,-8.3601 0.35783,-0.91082 1.46778,-3.51482 1.72407,-3.9686 0.19517,-0.48794 3.44813,-7.35168 5.23725,-13.27205 0.8783,-2.76501 2.08189,-6.86374 2.21201,-13.14194 -0.16264,-1.69153 -0.16264,-5.009546 -0.16264,-5.009546 0,0 -0.42289,-3.285485 2.83006,-5.172197 3.25296,-1.886714 11.71064,-5.107138 11.71064,-5.107138 0,0 4.73305,-2.423451 2.34213,-7.254086 -0.81324,-1.301182 -2.50478,-3.903546 -7.31915,-2.277068 -4.74931,1.593945 -5.3999,1.95177 -11.51546,3.610777 -2.92766,0.910828 -11.97087,3.545721 -18.34666,2.081892 -1.75659,-0.292767 -11.09257,-2.146951 -17.04548,-3.057779 -0.97588,-0.130117 -9.23839,-0.650589 -14.605761,2.862601 -2.602362,1.496358 -5.822786,3.936074 -9.888979,6.148083 -4.066193,2.21201 -7.416736,2.862599 -11.840752,3.090307"
     id="vs1"
     inkscape:label="vs1"
     sodipodi:nodetypes="ccscccccscccccccsc"
     sodipodi:insensitive="true" /><path
     style="fill:none;stroke:none;stroke-width:5.6;stroke-linejoin:round;stroke-dasharray:none;stroke-opacity:1"
     d="m 169.10086,93.118864 -18.58657,45.618616 c 0,0 -2.5373,6.57097 -8.06732,3.80596 -5.53002,-2.76502 -4.80947,-6.01932 -4.00114,-8.3601 0.35783,-0.91082 1.46778,-3.51482 1.72407,-3.9686 0.19517,-0.48794 3.44813,-7.35168 5.23725,-13.27205 0.8783,-2.76501 2.08189,-6.86374 2.21201,-13.14194 -0.16264,-1.69153 -0.16264,-5.009547 -0.16264,-5.009547 0,0 -0.42289,-3.285485 2.83006,-5.172197 3.25296,-1.886714 11.71064,-5.107138 11.71064,-5.107138 0,0 4.73305,-2.423451 2.34213,-7.254086 -0.81324,-1.301182 -2.50478,-3.903546 -7.31915,-2.277068 -4.74931,1.593945 -5.3999,1.95177 -11.51546,3.610777 -2.92766,0.910828 -11.97087,3.545721 -18.34666,2.081892 -1.75659,-0.292767 -11.09257,-2.146951 -17.04548,-3.057779 -0.97588,-0.130117 -9.23839,-0.650589 -14.605765,2.862601 -2.602362,1.496358 -5.822786,3.936074 -9.888979,6.148083 -4.066193,2.21201 -7.416736,2.862599 -11.840752,3.090307"
     id="s1"
     inkscape:label="s1"
     sodipodi:nodetypes="ccscccccscccccccsc"
     sodipodi:insensitive="true" /><path
     style="fill:none;stroke:#00ff00;stroke-width:1.6;stroke-linejoin:round;stroke-dasharray:none;stroke-opacity:1"
     d="m 73.862268,93.716211 c 0,0 -14.333209,-0.519077 -18.854814,-0.941963 -4.521608,-0.422884 -8.034798,-1.203593 -11.515458,-4.977019 -3.480662,-3.773427 -4.358959,-9.677538 -4.228841,-11.287749 0.06506,-1.463832 0.292767,-5.204728 3.871016,-9.986571 2.049359,-2.895129 6.538436,-9.303449 6.538436,-9.303449 0,0 4.651724,-8.652856 5.367375,-10.572099 0.813239,-1.951773 2.83007,-6.180613 3.122837,-6.44085 0.227706,-0.292766 1.39877,-3.285482 6.831203,-2.732481 1.138534,0.03253 6.570967,0 11.613046,1.789125 5.042078,1.789124 8.717915,3.805955 12.100989,7.514323 0.813236,0.910828 3.350543,3.090307 1.171062,6.180614 -2.179479,3.090307 -6.912528,4.716782 -9.07574,4.977019 -1.333712,0.195177 -10.441983,1.724067 -13.109406,3.057776 -0.68312,0.325297 -7.449264,2.212009 -7.937209,7.319147 -0.487942,5.107139 1.821656,7.546854 7.091442,8.52274 5.269786,0.975887 16.394888,1.106003 16.394888,1.106003 0,0 5.822788,-0.195175 9.140801,-0.683119 3.480659,-0.390353 16.168815,-2.28496 20.265905,-3.773427 4.11383,-1.318601 16.88283,-5.367374 19.22496,-6.798672"
     id="vs2"
     inkscape:label="vs2"
     sodipodi:nodetypes="cssccccccscsccsscccc"
     sodipodi:insensitive="true" /><path
     style="fill:none;stroke:none;stroke-width:5.6;stroke-linejoin:round;stroke-dasharray:none;stroke-opacity:1"
     d="m 73.860185,93.717662 c 0,0 -14.333209,-0.519077 -18.854814,-0.941963 -4.521608,-0.422884 -8.034798,-1.203593 -11.515458,-4.977019 -3.480662,-3.773427 -4.358959,-9.677538 -4.228841,-11.287749 0.06506,-1.463832 0.292767,-5.204728 3.871016,-9.986571 2.049359,-2.895129 6.538436,-9.303449 6.538436,-9.303449 0,0 4.651724,-8.652856 5.367375,-10.572099 0.813239,-1.951773 2.83007,-6.180613 3.122837,-6.44085 0.227706,-0.292766 1.39877,-3.285482 6.831203,-2.732481 1.138534,0.03253 6.570967,0 11.613046,1.789125 5.042078,1.789124 8.717915,3.805955 12.10099,7.514323 0.81323,0.910828 3.35054,3.090307 1.17106,6.180614 -2.17948,3.090307 -6.912527,4.716782 -9.075739,4.977019 -1.333712,0.195177 -10.441983,1.724067 -13.109406,3.057776 -0.68312,0.325297 -7.449264,2.212009 -7.937209,7.319147 -0.487942,5.107139 1.821656,7.546854 7.091442,8.52274 5.269786,0.975887 16.394888,1.106003 16.394888,1.106003 0,0 5.822784,-0.195175 9.140804,-0.683119 3.48066,-0.390353 16.168815,-2.28496 20.265905,-3.773427 4.11383,-1.318601 16.88283,-5.367374 19.22496,-6.798672"
     id="s2"
     inkscape:label="s2"
     sodipodi:nodetypes="cssccccccscsccsscccc"
     sodipodi:insensitive="true" /><path
     style="display:inline;fill:none;stroke:#00ff00;stroke-width:1.6;stroke-linejoin:round;stroke-dasharray:none;stroke-opacity:1"
     d="m 131.74315,66.751395 c 0,0 6.56703,-2.783226 10.31633,-5.313431 0.66705,-0.414033 2.00116,-1.587127 3.40427,0.75906 0.59016,0.687266 1.43421,2.425951 1.58713,2.622214 0.15823,0.203068 1.65614,2.691217 5.33643,2.300184 3.6803,-0.39103 4.8994,-3.910314 4.83039,-4.899395 -0.069,-0.989079 -1.38011,-9.844796 -2.11617,-13.341077 -0.66705,-3.496284 -4.43936,-24.335967 -4.43936,-24.335967 0,0 -1.2421,-5.221422 2.07017,-8.625697 1.90916,-1.771143 5.44355,-2.681689 8.13197,-2.684959 2.53021,-0.138011 9.76348,0.108751 9.76348,0.108751 0,0 6.2565,-0.161013 11.89196,3.680297 5.63545,3.841311 7.4986,9.430762 7.4296,9.637779 0.13801,0.552046 2.02416,5.244423 1.05808,10.465845 -0.96607,5.221423 -0.71306,3.657296 -3.47328,10.396839 -1.42611,3.726302 -18.44749,45.629938 -18.44749,45.629938"
     id="vs3"
     inkscape:label="vs3"
     sodipodi:nodetypes="cccssscccccscscc"
     sodipodi:insensitive="true" /><path
     style="display:inline;fill:none;stroke:none;stroke-width:5.6;stroke-linejoin:round;stroke-dasharray:none;stroke-opacity:1"
     d="m 131.74644,66.755154 c 0,0 6.56703,-2.783229 10.31633,-5.313434 0.66705,-0.414033 2.00116,-1.587127 3.40427,0.75906 0.59016,0.687266 1.43421,2.425954 1.58713,2.622214 0.15823,0.20307 1.65614,2.69122 5.33643,2.30018 3.6803,-0.39103 4.8994,-3.91031 4.83039,-4.899391 -0.069,-0.989079 -1.38011,-9.844796 -2.11617,-13.341077 -0.66705,-3.496284 -4.43936,-24.335967 -4.43936,-24.335967 0,0 -1.2421,-5.221422 2.07017,-8.625697 1.90916,-1.771143 5.44355,-2.681689 8.13197,-2.684959 2.53021,-0.138011 9.76348,0.108751 9.76348,0.108751 0,0 6.2565,-0.161013 11.89196,3.680297 5.63545,3.841311 7.4986,9.430762 7.4296,9.637779 0.13801,0.552046 2.02416,5.244423 1.05808,10.465845 -0.96607,5.221423 -0.71306,3.657296 -3.47328,10.396839 -1.42611,3.726302 -18.44749,45.62994 -18.44749,45.62994"
     id="s3"
     inkscape:label="s3"
     sodipodi:nodetypes="cccssscccccscscc"
     sodipodi:insensitive="true" /></svg>
