<?xml version="1.0" encoding="UTF-8" standalone="no"?>
<!-- Created with Inkscape (http://www.inkscape.org/) -->

<svg
   width="200mm"
   height="200mm"
   viewBox="0 0 200 200"
   version="1.1"
   id="svg1"
   inkscape:version="1.4.2 (f4327f4, 2025-05-13)"
   sodipodi:docname="logo.svg"
   xmlns:inkscape="http://www.inkscape.org/namespaces/inkscape"
   xmlns:sodipodi="http://sodipodi.sourceforge.net/DTD/sodipodi-0.dtd"
   xmlns="http://www.w3.org/2000/svg"
   xmlns:svg="http://www.w3.org/2000/svg">
  <sodipodi:namedview
     id="namedview1"
     pagecolor="#505050"
     bordercolor="#eeeeee"
     borderopacity="1"
     inkscape:showpageshadow="0"
     inkscape:pageopacity="0"
     inkscape:pagecheckerboard="0"
     inkscape:deskcolor="#505050"
     inkscape:document-units="mm"
     inkscape:zoom="0.71891835"
     inkscape:cx="353.30855"
     inkscape:cy="381.82361"
     inkscape:window-width="1920"
     inkscape:window-height="1009"
     inkscape:window-x="-8"
     inkscape:window-y="-8"
     inkscape:window-maximized="1"
     inkscape:current-layer="layer1" />
  <defs
     id="defs1" />
  <g
     inkscape:label="Warstwa 1"
     inkscape:groupmode="layer"
     id="layer1"
     style="opacity:1;fill:#e3f4d7">
    <path
       style="opacity:1;fill:#ff0000;stroke-width:0.264583"
       d="m 26.86617,139.8513 c 0,0 23.185874,-69.557621 76.91821,-81.334571 55.94052,-6.992568 67.34944,2.576208 67.34944,2.576208 l -1.84015,12.144981 c 0,0 -80.202799,-16.361363 -100.231228,25.105309 C 61.083385,114.86299 58.309664,113.10866 50.420074,139.8513"
       id="path1"
       sodipodi:nodetypes="ccccsc" />
    <path
       style="fill:#ff0000;stroke-width:0.264583"
       d="m 60.430468,139.85575 c 0,0 8.464683,-54.100366 54.100372,-61.460958 37.53903,-7.360598 52.99628,3.312268 52.99628,3.312268 L 166.055,94.95613 c 0,0 -53.23804,-5.739746 -63.16866,1.459336 -8.156715,5.913114 -16.612245,25.106494 -22.214236,43.440284"
       id="path1-8"
       sodipodi:nodetypes="ccccsc" />
    <path
       style="opacity:1;fill:#ff0000;stroke-width:0.264583"
       d="m 162.30111,132.49071 c 0,0 19.50558,3.31226 20.24164,0.73605 0.73606,-2.5762 9.20074,-70.293676 9.20074,-70.661706 0,-0.36803 -16.19331,-4.784386 -16.56134,-2.576208 -0.36803,2.208178 -12.88104,73.605944 -12.88104,72.501864 z"
       id="path2" />
  </g>
</svg>
